<?xml version="1.0" encoding="UTF-8"?>
<svg version="1.1" xmlns="http://www.w3.org/2000/svg" width="570" height="613">
<path d="M0 0 C17.49 0 34.98 0 53 0 C53.33 14.52 53.66 29.04 54 44 C59.05441406 43.98259766 59.05441406 43.98259766 64.2109375 43.96484375 C67.46419175 43.95705138 70.71744497 43.95097564 73.97070312 43.94506836 C76.23665836 43.94003074 78.50261033 43.93320048 80.76855469 43.92456055 C84.02019047 43.91247004 87.27178339 43.90676608 90.5234375 43.90234375 C91.54118256 43.89718246 92.55892761 43.89202118 93.60751343 43.88670349 C94.54833771 43.88662796 95.48916199 43.88655243 96.45849609 43.88647461 C97.70425919 43.88314369 97.70425919 43.88314369 98.97518921 43.87974548 C101 44 101 44 103 45 C103.33 60.84 103.66 76.68 104 93 C119.00355804 92.96043134 119.00355804 92.96043134 134.00708008 92.90991211 C135.88622989 92.90699185 137.76538034 92.90444355 139.64453125 92.90234375 C141.11134338 92.8946698 141.11134338 92.8946698 142.60778809 92.88684082 C143.54135132 92.88671997 144.47491455 92.88659912 145.43676758 92.88647461 C146.2472908 92.884254 147.05781403 92.88203339 147.89289856 92.87974548 C150 93 150 93 153 94 C153.94337376 96.83012127 154.12172829 98.54299918 154.11352539 101.47143555 C154.11344986 102.37214279 154.11337433 103.27285004 154.11329651 104.20085144 C154.10813522 105.16968765 154.10297394 106.13852386 154.09765625 107.13671875 C154.09553383 108.62858452 154.09553383 108.62858452 154.09336853 110.15058899 C154.08776761 113.32958982 154.07521496 116.50852043 154.0625 119.6875 C154.05748512 121.84179586 154.05292219 123.99609282 154.04882812 126.15039062 C154.03779788 131.43361774 154.02105886 136.71680385 154 142 C154.59690643 141.98081009 155.19381287 141.96162018 155.80880737 141.94184875 C162.00475154 141.74562998 168.20103383 141.57057183 174.39794922 141.40795898 C176.71255884 141.34441367 179.02702539 141.27541903 181.34130859 141.20092773 C184.66221226 141.09497171 187.98313251 141.0084337 191.3046875 140.92578125 C192.86411575 140.8697448 192.86411575 140.8697448 194.45504761 140.81257629 C195.41589264 140.79232895 196.37673767 140.7720816 197.36669922 140.7512207 C198.21497284 140.72679398 199.06324646 140.70236725 199.93722534 140.67720032 C200.61794098 140.78372421 201.29865662 140.89024811 202 141 C204.11931075 144.17896613 204.2469603 144.92974532 204.22705078 148.56323242 C204.22689972 149.48396042 204.22674866 150.40468842 204.22659302 151.35331726 C204.21627045 152.34402725 204.20594788 153.33473724 204.1953125 154.35546875 C204.19106766 155.88062859 204.19106766 155.88062859 204.18673706 157.43659973 C204.17553383 160.68701908 204.15042886 163.93716381 204.125 167.1875 C204.11497039 169.38996998 204.10584451 171.59244428 204.09765625 173.79492188 C204.07559405 179.19670843 204.04211508 184.59833459 204 190 C204.56962967 189.99555878 205.13925934 189.99111755 205.72615051 189.98654175 C211.64691666 189.94234564 217.56763606 189.9121491 223.48852539 189.89013672 C225.69915673 189.88006994 227.90977472 189.86641552 230.12036133 189.84912109 C233.29511811 189.82490262 236.46969906 189.81352373 239.64453125 189.8046875 C240.63524124 189.79436493 241.62595123 189.78404236 242.64668274 189.77340698 C243.56741074 189.77325592 244.48813873 189.77310486 245.43676758 189.77294922 C246.2472908 189.768508 247.05781403 189.76406677 247.89289856 189.75949097 C250 190 250 190 253 192 C254.67826727 200.18754673 253.97059263 208.86124815 253.515625 217.15625 C252.81143819 231.54040089 252.92442871 245.91526991 253 260.3125 C253.02694371 265.51691604 253.04647768 270.72131992 253.0625 275.92578125 C253.07079834 277.11198563 253.07909668 278.29819 253.08764648 279.52033997 C253.09094971 280.60715561 253.09425293 281.69397125 253.09765625 282.8137207 C253.10289307 283.77027054 253.10812988 284.72682037 253.11352539 285.71235657 C253 288 253 288 252 290 C236.16 290 220.32 290 204 290 C204.07917831 305.3777555 204.07917831 305.3777555 204.18017578 320.75537109 C204.18601502 322.67805765 204.19111192 324.60074667 204.1953125 326.5234375 C204.20554443 327.52802002 204.21577637 328.53260254 204.22631836 329.56762695 C204.22668091 330.99860718 204.22668091 330.99860718 204.22705078 332.45849609 C204.231492 333.28900482 204.23593323 334.11951355 204.24050903 334.97518921 C204 337 204 337 202 339 C199.93722534 339.24050903 199.93722534 339.24050903 197.36669922 339.22705078 C196.40585419 339.22689972 195.44500916 339.22674866 194.45504761 339.22659302 C193.41542877 339.21627045 192.37580994 339.20594788 191.3046875 339.1953125 C190.24210724 339.1924826 189.17952698 339.18965271 188.08474731 339.18673706 C184.68138501 339.17551639 181.27828314 339.15040837 177.875 339.125 C175.57161838 339.11497264 173.26823264 339.10584637 170.96484375 339.09765625 C165.30980655 339.07557093 159.65492187 339.04207489 154 339 C154.00444122 339.58215775 154.00888245 340.16431549 154.01345825 340.76411438 C154.0576515 346.81464182 154.08784972 352.86512352 154.10986328 358.91577148 C154.11993058 361.17490501 154.13358538 363.43402547 154.15087891 365.69311523 C154.17509508 368.93736999 154.18647575 372.18145271 154.1953125 375.42578125 C154.20563507 376.43836502 154.21595764 377.45094879 154.22659302 378.49421692 C154.22674408 379.43496567 154.22689514 380.37571442 154.22705078 381.3449707 C154.231492 382.17325882 154.23593323 383.00154694 154.24050903 383.85493469 C154 386 154 386 152 389 C149.07348633 389.35644531 149.07348633 389.35644531 145.33203125 389.328125 C144.66016281 389.32625183 143.98829437 389.32437866 143.29606628 389.32244873 C141.86440107 389.3157125 140.43275474 389.30176689 139.0012207 389.28125 C136.86586358 389.25076191 134.73125397 389.24033953 132.59570312 389.234375 C124.29077391 389.18566503 116.06444653 388.80034867 107.7878418 388.11230469 C106.40786011 388.05671387 106.40786011 388.05671387 105 388 C103.79956942 388.97811061 103.79956942 388.97811061 103.89993286 390.80844116 C103.91120209 391.5965921 103.92247131 392.38474304 103.93408203 393.19677734 C103.94871994 394.53354019 103.94871994 394.53354019 103.96365356 395.89730835 C103.98551224 397.35192978 103.98551224 397.35192978 104.0078125 398.8359375 C104.02533124 400.86978666 104.04223929 402.90364115 104.05859375 404.9375 C104.08957286 408.15932783 104.12508469 411.38089291 104.17138672 414.60253906 C104.21364558 417.7012057 104.23714767 420.79956186 104.2578125 423.8984375 C104.28574387 425.34698624 104.28574387 425.34698624 104.3142395 426.82479858 C104.31769379 427.72227814 104.32114807 428.61975769 104.32470703 429.54443359 C104.33438507 430.33417572 104.34406311 431.12391785 104.35403442 431.93759155 C104 434 104 434 102.77638245 435.76292419 C100.44815854 437.38430334 99.07611971 437.33028167 96.25317383 437.2487793 C95.27900513 437.22811401 94.30483643 437.20744873 93.30114746 437.18615723 C92.28008911 437.14921753 91.25903076 437.11227783 90.20703125 437.07421875 C88.79617249 437.04019958 88.79617249 437.04019958 87.35681152 437.00549316 C83.84157622 436.91622947 80.32706026 436.80025381 76.8125 436.6875 C68.954375 436.460625 61.09625 436.23375 53 436 C53 451.84 53 467.68 53 484 C48.37071345 484.92585731 44.19106165 485.11242302 39.515625 485.0625 C38.70059509 485.05871338 37.88556519 485.05492676 37.0458374 485.05102539 C33.57704371 485.0347754 30.10837042 485.00674365 26.63964844 484.97949219 C24.09831299 484.96125064 21.55699749 484.94925201 19.015625 484.9375 C18.24655823 484.92920166 17.47749146 484.92090332 16.68511963 484.91235352 C11.38217425 484.88880848 6.2623753 485.336818 1 486 C0.06981606 483.20944818 -0.14359844 481.43501124 -0.18945312 478.54443359 C-0.20617065 477.64695404 -0.22288818 476.74947449 -0.2401123 475.82479858 C-0.26047546 474.37624985 -0.26047546 474.37624985 -0.28125 472.8984375 C-0.29965942 471.90623199 -0.31806885 470.91402649 -0.33703613 469.89175415 C-0.41582075 465.64018663 -0.48364893 461.38846097 -0.55224609 457.13671875 C-0.60382385 454.03637491 -0.66111694 450.9361737 -0.71875 447.8359375 C-0.73911316 446.38131607 -0.73911316 446.38131607 -0.7598877 444.89730835 C-0.77660522 444.00613312 -0.79332275 443.11495789 -0.81054688 442.19677734 C-0.82307495 441.4086264 -0.83560303 440.62047546 -0.84851074 439.80844116 C-0.80580208 437.97899367 -0.80580208 437.97899367 -2 437 C-4.95246354 436.90473194 -7.88148421 436.87447548 -10.83422852 436.88647461 C-11.76096375 436.88632858 -12.68769897 436.88618256 -13.64251709 436.8860321 C-16.72133687 436.88673162 -19.80009697 436.89452579 -22.87890625 436.90234375 C-25.00740018 436.90420779 -27.13589453 436.90563176 -29.26438904 436.90663147 C-34.8786232 436.91045772 -40.49283168 436.92028892 -46.10705566 436.93133545 C-51.83113253 436.94154727 -57.55521353 436.9461286 -63.27929688 436.95117188 C-74.51954256 436.96191109 -85.75976915 436.9789888 -97 437 C-96.99777939 437.55710159 -96.99555878 438.11420319 -96.99327087 438.68818665 C-96.97117125 444.47921102 -96.95607379 450.27022343 -96.94506836 456.0612793 C-96.94003528 458.22339362 -96.93320831 460.38550453 -96.92456055 462.54760742 C-96.91245021 465.65284059 -96.90676148 468.7580288 -96.90234375 471.86328125 C-96.89718246 472.83211746 -96.89202118 473.80095367 -96.88670349 474.79914856 C-96.88662796 475.6998558 -96.88655243 476.60056305 -96.88647461 477.52856445 C-96.884254 478.32132278 -96.88203339 479.11408112 -96.87974548 479.93086243 C-97 482 -97 482 -98 485 C-114.67863463 485.22917208 -131.33202468 484.53985345 -148 484 C-148 500.17 -148 516.34 -148 533 C-164.5 533 -181 533 -198 533 C-198 548.84 -198 564.68 -198 581 C-204.75083691 583.25027897 -204.75083691 583.25027897 -208.45727539 583.24291992 C-209.28155533 583.24599655 -210.10583527 583.24907318 -210.95509338 583.25224304 C-211.82713913 583.24505753 -212.69918488 583.23787201 -213.59765625 583.23046875 C-214.50954208 583.23001053 -215.42142792 583.22955231 -216.36094666 583.2290802 C-218.28141589 583.22606959 -220.20188294 583.21821914 -222.12231445 583.20581055 C-225.05624066 583.18753898 -227.9898509 583.18530121 -230.92382812 583.18554688 C-232.79427355 583.18063147 -234.66471685 583.17480306 -236.53515625 583.16796875 C-237.84626122 583.16629951 -237.84626122 583.16629951 -239.18385315 583.16459656 C-242.51086135 583.13874696 -245.57256677 583.08619175 -248.84155273 582.42700195 C-251.30656899 581.93935198 -252.60047832 582.34061099 -255 583 C-257.0765269 583.09273334 -259.15577959 583.13068341 -261.234375 583.1328125 C-262.44867188 583.13410156 -263.66296875 583.13539063 -264.9140625 583.13671875 C-266.17992187 583.13285156 -267.44578125 583.12898437 -268.75 583.125 C-270.00039063 583.12886719 -271.25078125 583.13273438 -272.5390625 583.13671875 C-282.80957912 583.12586197 -282.80957912 583.12586197 -287.765625 582.4296875 C-290.88304382 581.70772668 -290.88304382 581.70772668 -293 583 C-293 533.5 -293 484 -293 433 C-259 433 -259 433 -250 434 C-250.06900513 431.98664551 -250.06900513 431.98664551 -250.1394043 429.93261719 C-250.30595689 424.95337519 -250.45208365 419.97370702 -250.59204102 414.99365234 C-250.65547462 412.83820756 -250.72444926 410.68291844 -250.79907227 408.52783203 C-250.90536865 405.43025539 -250.99173317 402.33266579 -251.07421875 399.234375 C-251.11157639 398.27070007 -251.14893402 397.30702515 -251.18742371 396.31414795 C-251.20767105 395.41351624 -251.2279184 394.51288452 -251.2487793 393.58496094 C-251.27320602 392.79442322 -251.29763275 392.0038855 -251.32279968 391.18939209 C-250.90046855 388.32492695 -250.06510146 387.01952798 -248 385 C-245.81697083 384.51898193 -245.81697083 384.51898193 -243.25317383 384.54589844 C-242.29240433 384.54620056 -241.33163483 384.54650269 -240.3417511 384.54681396 C-239.30729355 384.56745911 -238.272836 384.58810425 -237.20703125 384.609375 C-236.14586594 384.61503479 -235.08470062 384.62069458 -233.99137878 384.62652588 C-230.59796265 384.64893857 -227.20559765 384.69914551 -223.8125 384.75 C-221.51368711 384.7700586 -219.21485769 384.78831048 -216.91601562 384.8046875 C-211.27698436 384.8488193 -205.63856727 384.91578028 -200 385 C-200.03029297 383.89229248 -200.06058594 382.78458496 -200.09179688 381.64331055 C-200.84240512 353.75637321 -201.13625425 325.89648591 -201 298 C-200.34 297.67 -199.68 297.34 -199 297 C-197.77689748 300.66930756 -197.76873663 304.12320144 -197.68359375 307.94921875 C-197.66494263 308.63423462 -197.6462915 309.31925049 -197.6270752 310.02502441 C-197.55887925 312.57905423 -197.49866562 315.13329215 -197.4375 317.6875 C-197.2209375 326.2571875 -197.2209375 326.2571875 -197 335 C-173.735 335.495 -173.735 335.495 -150 336 C-150.33 321.15 -150.66 306.3 -151 291 C-153.32839887 289.83580056 -154.46019901 289.94179231 -157.03515625 290.0859375 C-157.84533203 290.12976563 -158.65550781 290.17359375 -159.49023438 290.21875 C-160.76350586 290.29609375 -160.76350586 290.29609375 -162.0625 290.375 C-162.88427734 290.41882813 -163.70605469 290.46265625 -164.55273438 290.5078125 C-171.28662402 290.88927596 -177.95930509 291.52816803 -184.625 292.5625 C-193.86046512 293.75968992 -193.86046512 293.75968992 -198 291 C-198 291.66 -198 292.32 -198 293 C-198.99 292.67 -199.98 292.34 -201 292 C-200.67 258.67 -200.34 225.34 -200 191 C-183.5 191 -167 191 -150 191 C-150 174.83 -150 158.66 -150 142 C-133.5 142 -117 142 -100 142 C-100 126.16 -100 110.32 -100 94 C-83.83 93.67 -67.66 93.34 -51 93 C-50.71062366 77.57736704 -50.71062366 77.57736704 -50.43188477 62.15454102 C-50.39377958 60.22932172 -50.35531198 58.30410954 -50.31640625 56.37890625 C-50.29993042 55.36920776 -50.28345459 54.35950928 -50.26647949 53.31921387 C-50.24629761 52.3651062 -50.22611572 51.41099854 -50.20532227 50.42797852 C-50.18977798 49.59524918 -50.1742337 48.76251984 -50.15821838 47.90455627 C-50 46 -50 46 -49 45 C-47.4651703 44.90680551 -45.92607918 44.882542 -44.38842773 44.88647461 C-43.40748642 44.88655014 -42.4265451 44.88662567 -41.4158783 44.88670349 C-40.3492244 44.89186478 -39.2825705 44.89702606 -38.18359375 44.90234375 C-36.55430687 44.90446617 -36.55430687 44.90446617 -34.8921051 44.90663147 C-31.40720925 44.91224952 -27.92237658 44.92480508 -24.4375 44.9375 C-22.08138113 44.94251267 -19.72526126 44.94707598 -17.36914062 44.95117188 C-11.57938289 44.96137589 -5.78976255 44.98094776 0 45 C0 30.15 0 15.3 0 0 Z " fill="#636768" transform="translate(293,0)"/>
<path d="M0 0 C3.08422852 0.07617188 3.08422852 0.07617188 6.08422852 1.07617188 C7.02760227 3.90629314 7.20595681 5.61917105 7.19775391 8.54760742 C7.19767838 9.44831467 7.19760284 10.34902191 7.19752502 11.27702332 C7.19236374 12.24585953 7.18720245 13.21469574 7.18188477 14.21289062 C7.17976234 15.70475639 7.17976234 15.70475639 7.17759705 17.22676086 C7.17199612 20.4057617 7.15944347 23.5846923 7.14672852 26.76367188 C7.14171363 28.91796773 7.13715071 31.07226469 7.13305664 33.2265625 C7.1220264 38.50978962 7.10528738 43.79297573 7.08422852 49.07617188 C7.97958817 49.04738701 7.97958817 49.04738701 8.89303589 49.01802063 C15.08898006 48.82180185 21.28526235 48.6467437 27.48217773 48.48413086 C29.79678736 48.42058555 32.1112539 48.35159091 34.42553711 48.27709961 C37.74644077 48.17114358 41.06736102 48.08460557 44.38891602 48.00195312 C45.42853485 47.96459549 46.46815369 47.92723785 47.53927612 47.88874817 C48.98054367 47.85837715 48.98054367 47.85837715 50.45092773 47.82739258 C51.29920135 47.80296585 52.14747498 47.77853912 53.02145386 47.75337219 C53.70216949 47.85989609 54.38288513 47.96641998 55.08422852 48.07617188 C57.20353927 51.25513801 57.33118882 52.0059172 57.3112793 55.6394043 C57.31112823 56.56013229 57.31097717 57.48086029 57.31082153 58.42948914 C57.30049896 59.42019913 57.29017639 60.41090912 57.27954102 61.43164062 C57.27529617 62.95680046 57.27529617 62.95680046 57.27096558 64.51277161 C57.25976235 67.76319095 57.23465738 71.01333568 57.20922852 74.26367188 C57.19919891 76.46614186 57.19007302 78.66861615 57.18188477 80.87109375 C57.15982257 86.2728803 57.1263436 91.67450647 57.08422852 97.07617188 C57.65385818 97.07173065 58.22348785 97.06728943 58.81037903 97.06271362 C64.73114518 97.01851751 70.65186457 96.98832097 76.57275391 96.96630859 C78.78338524 96.95624182 80.99400324 96.94258739 83.20458984 96.92529297 C86.37934662 96.9010745 89.55392757 96.8896956 92.72875977 96.88085938 C93.71946976 96.8705368 94.71017975 96.86021423 95.73091125 96.84957886 C96.65163925 96.8494278 97.57236725 96.84927673 98.52099609 96.84912109 C99.33151932 96.84467987 100.14204254 96.84023865 100.97712708 96.83566284 C103.08422852 97.07617188 103.08422852 97.07617188 106.08422852 99.07617188 C107.76249578 107.26371861 107.05482114 115.93742002 106.59985352 124.23242188 C105.89566671 138.61657276 106.00865723 152.99144178 106.08422852 167.38867188 C106.11117223 172.59308791 106.1307062 177.7974918 106.14672852 183.00195312 C106.15502686 184.1881575 106.1633252 185.37436188 106.171875 186.59651184 C106.17517822 187.68332748 106.17848145 188.77014313 106.18188477 189.88989258 C106.18712158 190.84644241 106.1923584 191.80299225 106.19775391 192.78852844 C106.08422852 195.07617187 106.08422852 195.07617187 105.08422852 197.07617188 C89.24422852 197.07617188 73.40422852 197.07617188 57.08422852 197.07617188 C57.16340682 212.45392737 57.16340682 212.45392737 57.2644043 227.83154297 C57.27024353 229.75422952 57.27534043 231.67691854 57.27954102 233.59960938 C57.28977295 234.60419189 57.30000488 235.60877441 57.31054688 236.64379883 C57.31090942 238.07477905 57.31090942 238.07477905 57.3112793 239.53466797 C57.31572052 240.3651767 57.32016174 241.19568542 57.32473755 242.05136108 C57.08422852 244.07617188 57.08422852 244.07617188 55.08422852 246.07617188 C53.02145386 246.31668091 53.02145386 246.31668091 50.45092773 246.30322266 C49.4900827 246.30307159 48.52923767 246.30292053 47.53927612 246.30276489 C46.49965729 246.29244232 45.46003845 246.28211975 44.38891602 246.27148438 C43.32633575 246.26865448 42.26375549 246.26582458 41.16897583 246.26290894 C37.76561353 246.25168827 34.36251166 246.22658024 30.95922852 246.20117188 C28.65584689 246.19114452 26.35246115 246.18201824 24.04907227 246.17382812 C18.39403506 246.1517428 12.73915039 246.11824676 7.08422852 246.07617188 C7.08866974 246.65832962 7.09311096 247.24048737 7.09768677 247.84028625 C7.14188001 253.89081369 7.17207823 259.9412954 7.1940918 265.99194336 C7.20415909 268.25107688 7.21781389 270.51019735 7.23510742 272.76928711 C7.25932359 276.01354187 7.27070427 279.25762459 7.27954102 282.50195312 C7.28986359 283.5145369 7.30018616 284.52712067 7.31082153 285.57038879 C7.3109726 286.51113754 7.31112366 287.45188629 7.3112793 288.42114258 C7.31572052 289.24943069 7.32016174 290.07771881 7.32473755 290.93110657 C7.08422852 293.07617188 7.08422852 293.07617188 5.08422852 296.07617188 C2.15771484 296.43261719 2.15771484 296.43261719 -1.58374023 296.40429688 C-2.25560867 296.40242371 -2.92747711 296.40055054 -3.6197052 296.39862061 C-5.05137041 296.39188438 -6.48301674 296.37793877 -7.91455078 296.35742188 C-10.04990791 296.32693379 -12.18451751 296.31651141 -14.32006836 296.31054688 C-22.62499758 296.26183691 -30.85132496 295.87652054 -39.12792969 295.18847656 C-40.50791138 295.13288574 -40.50791138 295.13288574 -41.91577148 295.07617188 C-43.11620206 296.05428248 -43.11620206 296.05428248 -43.01583862 297.88461304 C-43.0045694 298.67276398 -42.99330017 299.46091492 -42.98168945 300.27294922 C-42.96705154 301.60971207 -42.96705154 301.60971207 -42.95211792 302.97348022 C-42.93025925 304.42810165 -42.93025925 304.42810165 -42.90795898 305.91210938 C-42.89044024 307.94595853 -42.8735322 309.97981302 -42.85717773 312.01367188 C-42.82619862 315.23549971 -42.79068679 318.45706479 -42.74438477 321.67871094 C-42.7021259 324.77737758 -42.67862382 327.87573374 -42.65795898 330.97460938 C-42.63002762 332.42315811 -42.63002762 332.42315811 -42.60153198 333.90097046 C-42.5980777 334.79845001 -42.59462341 335.69592957 -42.59106445 336.62060547 C-42.58138641 337.4103476 -42.57170837 338.20008972 -42.56173706 339.01376343 C-42.91577148 341.07617188 -42.91577148 341.07617188 -44.13938904 342.83909607 C-46.46761294 344.46047522 -47.83965178 344.40645355 -50.66259766 344.32495117 C-51.63676636 344.30428589 -52.61093506 344.28362061 -53.61462402 344.2623291 C-54.63568237 344.2253894 -55.65674072 344.18844971 -56.70874023 344.15039062 C-58.119599 344.11637146 -58.119599 344.11637146 -59.55895996 344.08166504 C-63.07419526 343.99240135 -66.58871122 343.87642569 -70.10327148 343.76367188 C-77.96139648 343.53679687 -85.81952148 343.30992187 -93.91577148 343.07617188 C-93.91577148 358.91617187 -93.91577148 374.75617188 -93.91577148 391.07617188 C-98.54505804 392.00202919 -102.72470983 392.1885949 -107.40014648 392.13867188 C-108.21517639 392.13488525 -109.0302063 392.13109863 -109.86993408 392.12719727 C-113.33872778 392.11094727 -116.80740106 392.08291553 -120.27612305 392.05566406 C-122.81745849 392.03742252 -125.358774 392.02542389 -127.90014648 392.01367188 C-128.66921326 392.00537354 -129.43828003 391.9970752 -130.23065186 391.98852539 C-135.53359724 391.96498035 -140.65339618 392.41298987 -145.91577148 393.07617188 C-146.84595543 390.28562005 -147.05936992 388.51118311 -147.10522461 385.62060547 C-147.12194214 384.72312592 -147.13865967 383.82564636 -147.15588379 382.90097046 C-147.17624695 381.45242172 -147.17624695 381.45242172 -147.19702148 379.97460938 C-147.21543091 378.98240387 -147.23384033 377.99019836 -147.25280762 376.96792603 C-147.33159223 372.7163585 -147.39942041 368.46463285 -147.46801758 364.21289062 C-147.51959534 361.11254679 -147.57688842 358.01234558 -147.63452148 354.91210938 C-147.65488464 353.45748795 -147.65488464 353.45748795 -147.67565918 351.97348022 C-147.69237671 351.08230499 -147.70909424 350.19112976 -147.72631836 349.27294922 C-147.73884644 348.48479828 -147.75137451 347.69664734 -147.76428223 346.88461304 C-147.72157356 345.05516554 -147.72157356 345.05516554 -148.91577148 344.07617188 C-151.86823503 343.98090382 -154.7972557 343.95064735 -157.75 343.96264648 C-158.67673523 343.96250046 -159.60347046 343.96235443 -160.55828857 343.96220398 C-163.63710836 343.96290349 -166.71586846 343.97069766 -169.79467773 343.97851562 C-171.92317166 343.98037967 -174.05166601 343.98180364 -176.18016052 343.98280334 C-181.79439469 343.9866296 -187.40860316 343.9964608 -193.02282715 344.00750732 C-198.74690402 344.01771914 -204.47098502 344.02230047 -210.19506836 344.02734375 C-221.43531405 344.03808297 -232.67554063 344.05516067 -243.91577148 344.07617188 C-243.91355087 344.63327347 -243.91133026 345.19037506 -243.90904236 345.76435852 C-243.88694273 351.55538289 -243.87184527 357.34639531 -243.86083984 363.13745117 C-243.85580676 365.2995655 -243.84897979 367.46167641 -243.84033203 369.6237793 C-243.82822169 372.72901246 -243.82253296 375.83420068 -243.81811523 378.93945312 C-243.81295395 379.90828934 -243.80779266 380.87712555 -243.80247498 381.87532043 C-243.80239944 382.77602768 -243.80232391 383.67673492 -243.80224609 384.60473633 C-243.80002548 385.39749466 -243.79780487 386.19025299 -243.79551697 387.0070343 C-243.91577148 389.07617188 -243.91577148 389.07617188 -244.91577148 392.07617188 C-261.59440611 392.30534395 -278.24779616 391.61602533 -294.91577148 391.07617188 C-294.91577148 407.24617188 -294.91577148 423.41617188 -294.91577148 440.07617188 C-311.41577148 440.07617188 -327.91577148 440.07617188 -344.91577148 440.07617188 C-344.91577148 455.91617187 -344.91577148 471.75617188 -344.91577148 488.07617188 C-351.6666084 490.32645085 -351.6666084 490.32645085 -355.37304688 490.3190918 C-356.19732681 490.32216843 -357.02160675 490.32524506 -357.87086487 490.32841492 C-359.17893349 490.31763664 -359.17893349 490.31763664 -360.51342773 490.30664062 C-361.42531357 490.3061824 -362.3371994 490.30572418 -363.27671814 490.30525208 C-365.19718738 490.30224147 -367.11765443 490.29439102 -369.03808594 490.28198242 C-371.97201214 490.26371086 -374.90562239 490.26147308 -377.83959961 490.26171875 C-379.71004504 490.25680335 -381.58048833 490.25097493 -383.45092773 490.24414062 C-384.7620327 490.24247139 -384.7620327 490.24247139 -386.09962463 490.24076843 C-389.42663284 490.21491884 -392.48833826 490.16236363 -395.75732422 489.50317383 C-398.22234047 489.01552385 -399.5162498 489.41678287 -401.91577148 490.07617188 C-403.99229838 490.16890521 -406.07155107 490.20685529 -408.15014648 490.20898438 C-409.36444336 490.21027344 -410.57874023 490.2115625 -411.82983398 490.21289062 C-413.09569336 490.20902344 -414.36155273 490.20515625 -415.66577148 490.20117188 C-416.91616211 490.20503906 -418.16655273 490.20890625 -419.45483398 490.21289062 C-429.7253506 490.20203384 -429.7253506 490.20203384 -434.68139648 489.50585938 C-437.79881531 488.78389855 -437.79881531 488.78389855 -439.91577148 490.07617188 C-439.91577148 441.23617187 -439.91577148 392.39617187 -439.91577148 342.07617188 C-425.39577148 342.07617188 -410.87577148 342.07617188 -395.91577148 342.07617188 C-395.91577148 373.75617188 -395.91577148 405.43617188 -395.91577148 438.07617188 C-379.41577148 438.07617188 -362.91577148 438.07617188 -345.91577148 438.07617188 C-345.91577148 421.90617187 -345.91577148 405.73617187 -345.91577148 389.07617188 C-329.41577148 389.07617188 -312.91577148 389.07617188 -295.91577148 389.07617188 C-295.91577148 373.23617188 -295.91577148 357.39617187 -295.91577148 341.07617188 C-279.41577148 341.07617188 -262.91577148 341.07617188 -245.91577148 341.07617188 C-245.91577148 324.90617187 -245.91577148 308.73617187 -245.91577148 292.07617188 C-231.35325466 292.0482327 -216.79080191 292.02490916 -202.22827148 292.01367188 C-200.57637062 292.01238785 -200.57637062 292.01238785 -198.89109802 292.01107788 C-162.31336571 291.98604464 -125.74138653 292.18620998 -89.16577148 292.57617188 C-88.04363377 292.58812969 -86.92149605 292.60008751 -85.76535416 292.61240768 C-72.14871492 292.7582935 -58.53225649 292.9158432 -44.91577148 293.07617188 C-45.24577148 277.23617188 -45.57577148 261.39617187 -45.91577148 245.07617188 C-62.08577148 245.07617188 -78.25577148 245.07617188 -94.91577148 245.07617188 C-94.91577148 228.90617187 -94.91577148 212.73617187 -94.91577148 196.07617188 C-78.41577148 196.07617188 -61.91577148 196.07617188 -44.91577148 196.07617188 C-44.91577148 211.91617188 -44.91577148 227.75617188 -44.91577148 244.07617188 C-28.41577148 244.07617188 -11.91577148 244.07617188 5.08422852 244.07617188 C5.08422852 228.23617187 5.08422852 212.39617187 5.08422852 196.07617188 C21.58422852 196.07617188 38.08422852 196.07617188 55.08422852 196.07617188 C54.58922852 148.06117188 54.58922852 148.06117188 54.08422852 99.07617188 C29.82922852 98.58117187 29.82922852 98.58117187 5.08422852 98.07617188 C5.08422852 82.23617187 5.08422852 66.39617187 5.08422852 50.07617188 C-11.41577148 50.07617188 -27.91577148 50.07617188 -44.91577148 50.07617188 C-44.91577148 33.90617187 -44.91577148 17.73617187 -44.91577148 1.07617188 C-38.29514648 0.91117187 -31.67452148 0.74617188 -24.85327148 0.57617188 C-21.7381311 0.49786133 -21.7381311 0.49786133 -18.56005859 0.41796875 C-16.89607916 0.37688479 -15.23209814 0.33586493 -13.56811523 0.29492188 C-12.71866333 0.27333008 -11.86921143 0.25173828 -10.99401855 0.22949219 C-7.32957557 0.14002461 -3.66483933 0.0712906 0 0 Z " fill="#454749" transform="translate(439.915771484375,92.923828125)"/>
<path d="M0 0 C33 0 66 0 100 0 C100 15.84 100 31.68 100 48 C103.52558594 47.98839844 107.05117188 47.97679687 110.68359375 47.96484375 C114.08243723 47.95705437 117.48127974 47.95097693 120.88012695 47.94506836 C123.24992312 47.94002659 125.61971615 47.93319335 127.98950195 47.92456055 C131.38754039 47.9124881 134.78553785 47.90677029 138.18359375 47.90234375 C139.25024765 47.89718246 140.31690155 47.89202118 141.4158783 47.88670349 C142.88729027 47.88659019 142.88729027 47.88659019 144.38842773 47.88647461 C145.25668686 47.884254 146.12494598 47.88203339 147.01951599 47.87974548 C149 48 149 48 150 49 C150.09529612 52.01350238 150.12551904 55.00404106 150.11352539 58.01782227 C150.11367142 58.96406464 150.11381744 59.91030701 150.1139679 60.88522339 C150.11326836 64.02897392 150.10547409 67.17266601 150.09765625 70.31640625 C150.09579221 72.48974068 150.09436824 74.66307552 150.09336853 76.83641052 C150.08954221 82.56901195 150.07971097 88.30158823 150.06866455 94.03417969 C150.05665886 100.9057132 150.05204873 107.7772551 150.04621124 114.64879608 C150.03649927 125.09921491 150.0173435 135.54957849 150 146 C133.5 146 117 146 100 146 C100 161.84 100 177.68 100 194 C83.5 194 67 194 50 194 C50 178.16 50 162.32 50 146 C33.5 146 17 146 0 146 C0 129.83 0 113.66 0 97 C-16.5 97 -33 97 -50 97 C-50 80.83 -50 64.66 -50 48 C-33.5 48 -17 48 0 48 C0 32.16 0 16.32 0 0 Z " fill="#F7E129" transform="translate(345,143)"/>
<path d="M0 0 C32.67 0 65.34 0 99 0 C99 15.84 99 31.68 99 48 C115.5 48 132 48 149 48 C149 64.17 149 80.34 149 97 C165.83 97 182.66 97 200 97 C200 113.17 200 129.34 200 146 C216.17 146 232.34 146 249 146 C256.15697018 160.31394037 250 177.99652815 250 194 C216.67 194 183.34 194 149 194 C149 177.83 149 161.66 149 145 C132.83 145 116.66 145 100 145 C100 129.16 100 113.32 100 97 C83.5 97 67 97 50 97 C50 80.83 50 64.66 50 48 C33.5 48 17 48 0 48 C0 32.16 0 16.32 0 0 Z " fill="#B5B9BB" transform="translate(145,192)"/>
<path d="M0 0 C6.744375 -0.020625 13.48875 -0.04125 20.4375 -0.0625 C22.54825928 -0.071604 24.65901855 -0.08070801 26.83374023 -0.09008789 C28.53369076 -0.09301243 30.233642 -0.09555972 31.93359375 -0.09765625 C32.79440552 -0.10277222 33.65521729 -0.10788818 34.54211426 -0.11315918 C35.39374146 -0.11328003 36.24536865 -0.11340088 37.12280273 -0.11352539 C37.84894272 -0.115746 38.5750827 -0.11796661 39.32322693 -0.12025452 C43.22941633 0.05523175 47.1137861 0.56819846 51 1 C51 32.68 51 64.36 51 97 C18 97 -15 97 -49 97 C-49 129.34 -49 161.68 -49 195 C-51.99661942 195.74915486 -54.22463427 196.15439022 -57.23046875 196.28125 C-58.43606445 196.33732422 -58.43606445 196.33732422 -59.66601562 196.39453125 C-60.49810547 196.42933594 -61.33019531 196.46414063 -62.1875 196.5 C-69.73024558 196.82300417 -77.16094701 197.40428488 -84.625 198.5625 C-93.86046512 199.75968992 -93.86046512 199.75968992 -98 197 C-98 197.66 -98 198.32 -98 199 C-98.99 198.67 -99.98 198.34 -101 198 C-100.67 164.67 -100.34 131.34 -100 97 C-83.5 97 -67 97 -50 97 C-50 80.83 -50 64.66 -50 48 C-33.5 48 -17 48 0 48 C0 32.16 0 16.32 0 0 Z " fill="#050505" transform="translate(193,94)"/>
<path d="M0 0 C14.52 0 29.04 0 44 0 C44 31.68 44 63.36 44 96 C60.5 96 77 96 94 96 C94 80.16 94 64.32 94 48 C110.17 48 126.34 48 143 48 C143 63.84 143 79.68 143 96 C127.16 96.33 111.32 96.66 95 97 C94.67 112.84 94.34 128.68 94 145 C62.98 145 31.96 145 0 145 C0 97.15 0 49.3 0 0 Z " fill="#020303" transform="translate(0,435)"/>
<path d="M0 0 C16.5 0 33 0 50 0 C50 15.84 50 31.68 50 48 C53.52558594 47.98839844 57.05117188 47.97679687 60.68359375 47.96484375 C64.08243723 47.95705437 67.48127974 47.95097693 70.88012695 47.94506836 C73.24992312 47.94002659 75.61971615 47.93319335 77.98950195 47.92456055 C81.38754039 47.9124881 84.78553785 47.90677029 88.18359375 47.90234375 C89.25024765 47.89718246 90.31690155 47.89202118 91.4158783 47.88670349 C92.88729027 47.88659019 92.88729027 47.88659019 94.38842773 47.88647461 C95.69081642 47.88314369 95.69081642 47.88314369 97.01951599 47.87974548 C99 48 99 48 100 49 C100.09529612 52.01350238 100.12551904 55.00404106 100.11352539 58.01782227 C100.11367142 58.96406464 100.11381744 59.91030701 100.1139679 60.88522339 C100.11326836 64.02897392 100.10547409 67.17266601 100.09765625 70.31640625 C100.09579221 72.48974068 100.09436824 74.66307552 100.09336853 76.83641052 C100.08954221 82.56901195 100.07971097 88.30158823 100.06866455 94.03417969 C100.05665886 100.9057132 100.05204873 107.7772551 100.04621124 114.64879608 C100.03649927 125.09921491 100.0173435 135.54957849 100 146 C83.5 146 67 146 50 146 C50 129.83 50 113.66 50 97 C33.5 97 17 97 0 97 C0 64.99 0 32.98 0 0 Z " fill="#EA2223" transform="translate(395,143)"/>
<path d="M0 0 C16.17 0 32.34 0 49 0 C49 15.84 49 31.68 49 48 C65.83 48 82.66 48 100 48 C100 64.17 100 80.34 100 97 C74.755 97.495 74.755 97.495 49 98 C48.67 113.18 48.34 128.36 48 144 C32.49 144 16.98 144 1 144 C0.75043408 121.96689407 0.75043408 121.96689407 0.64453125 112.21875 C0.57360431 105.69138842 0.50223361 99.16403511 0.42724609 92.63671875 C0.07334544 61.75533234 -0.04637217 30.88386338 0 0 Z " fill="#456CAB" transform="translate(295,46)"/>
<path d="M0 0 C16.83 0 33.66 0 51 0 C51 16.17 51 32.34 51 49 C67.17 49 83.34 49 100 49 C107.15697018 63.31394037 101 80.99652815 101 97 C67.67 97 34.34 97 0 97 C0 64.99 0 32.98 0 0 Z " fill="#B2B6B8" transform="translate(294,289)"/>
<path d="M0 0 C16.17 0 32.34 0 49 0 C49 32.01 49 64.02 49 97 C32.83 97 16.66 97 0 97 C0 64.99 0 32.98 0 0 Z " fill="#F7E22A" transform="translate(245,94)"/>
<path d="M0 0 C32.67 0 65.34 0 99 0 C99 15.84 99 31.68 99 48 C66.33 48 33.66 48 0 48 C0 32.16 0 16.32 0 0 Z " fill="#020202" transform="translate(195,386)"/>
<path d="M0 0 C0 2.68422881 -0.00926001 5.36581084 -0.03796387 8.04962158 C-0.04637802 8.84605072 -0.05479218 9.64247986 -0.0634613 10.46304321 C-0.07748741 11.75992569 -0.07748741 11.75992569 -0.09179688 13.08300781 C-0.10155045 14.00042755 -0.11130402 14.91784729 -0.12135315 15.86306763 C-0.15361705 18.89308894 -0.1861823 21.92310694 -0.21875 24.953125 C-0.2411888 27.0549111 -0.2636088 29.1566974 -0.28601074 31.25848389 C-0.34500654 36.78882038 -0.40425789 42.31915411 -0.46356201 47.8494873 C-0.53467321 54.48581743 -0.6054678 61.12215094 -0.67631531 67.75848389 C-0.78396732 77.83899187 -0.89202214 87.91949547 -1 98 C-16.84 98 -32.68 98 -49 98 C-49 65.99 -49 33.98 -49 1 C-43.06 1 -37.12 1 -31 1 C-26.39141583 0.86132149 -21.79244846 0.70590102 -17.1875 0.5 C-14.97269126 0.40542652 -12.75784853 0.3116449 -10.54296875 0.21875 C-9.59446045 0.17685547 -8.64595215 0.13496094 -7.66870117 0.09179688 C-5.10990744 0.00378055 -2.56005726 -0.01625249 0 0 Z " fill="#030202" transform="translate(545,191)"/>
<path d="M0 0 C16.5 0 33 0 50 0 C50 16.17 50 32.34 50 49 C33.5 49 17 49 0 49 C0 32.83 0 16.66 0 0 Z " fill="#050504" transform="translate(295,240)"/>
<path d="M0 0 C16.5 0 33 0 50 0 C50 16.17 50 32.34 50 49 C41.935625 49.020625 33.87125 49.04125 25.5625 49.0625 C23.01345947 49.071604 20.46441895 49.08070801 17.83813477 49.09008789 C15.83089246 49.09300688 13.82364957 49.09555548 11.81640625 49.09765625 C10.76352417 49.10277222 9.71064209 49.10788818 8.62585449 49.11315918 C7.13378479 49.11334045 7.13378479 49.11334045 5.61157227 49.11352539 C4.30918358 49.11685631 4.30918358 49.11685631 2.98048401 49.12025452 C1 49 1 49 0 48 C-0.09311889 46.49581261 -0.11746028 44.98728644 -0.11352539 43.48022461 C-0.11340454 42.50581421 -0.11328369 41.53140381 -0.11315918 40.52746582 C-0.10804321 39.49617554 -0.10292725 38.46488525 -0.09765625 37.40234375 C-0.09664917 36.45975708 -0.09564209 35.51717041 -0.09460449 34.54602051 C-0.08935477 31.00983471 -0.07539364 27.47366619 -0.0625 23.9375 C-0.041875 16.038125 -0.02125 8.13875 0 0 Z " fill="#FBFCFB" transform="translate(294,289)"/>
<path d="M0 0 C16.17 0 32.34 0 49 0 C49 16.17 49 32.34 49 49 C32.83 49 16.66 49 0 49 C0 32.83 0 16.66 0 0 Z " fill="#040505" transform="translate(245,191)"/>
<path d="M0 0 C16.5 0 33 0 50 0 C50 15.84 50 31.68 50 48 C33.5 48 17 48 0 48 C0 32.16 0 16.32 0 0 Z " fill="#030304" transform="translate(295,435)"/>
<path d="M0 0 C16.5 0 33 0 50 0 C50 15.84 50 31.68 50 48 C33.5 48 17 48 0 48 C0 32.16 0 16.32 0 0 Z " fill="#626768" transform="translate(295,386)"/>
<path d="M0 0 C16.5 0 33 0 50 0 C50 15.84 50 31.68 50 48 C33.5 48 17 48 0 48 C0 32.16 0 16.32 0 0 Z " fill="#030303" transform="translate(395,338)"/>
<path d="M0 0 C16.5 0 33 0 50 0 C50 15.84 50 31.68 50 48 C33.5 48 17 48 0 48 C0 32.16 0 16.32 0 0 Z " fill="#040403" transform="translate(345,289)"/>
<path d="M0 0 C16.5 0 33 0 50 0 C50 15.84 50 31.68 50 48 C33.5 48 17 48 0 48 C0 32.16 0 16.32 0 0 Z " fill="#64686A" transform="translate(145,240)"/>
<path d="M0 0 C16.5 0 33 0 50 0 C50 15.84 50 31.68 50 48 C33.5 48 17 48 0 48 C0 32.16 0 16.32 0 0 Z " fill="#B3B8BA" transform="translate(145,192)"/>
<path d="M0 0 C16.5 0 33 0 50 0 C50 15.84 50 31.68 50 48 C33.5 48 17 48 0 48 C0 32.16 0 16.32 0 0 Z " fill="#010202" transform="translate(345,46)"/>
<path d="M0 0 C10.1475 -0.0309375 10.1475 -0.0309375 20.5 -0.0625 C22.61986328 -0.071604 24.73972656 -0.08070801 26.92382812 -0.09008789 C28.62630144 -0.09301174 30.32877546 -0.09555919 32.03125 -0.09765625 C33.3301416 -0.1053302 33.3301416 -0.1053302 34.65527344 -0.11315918 C35.50702148 -0.11328003 36.35876953 -0.11340088 37.23632812 -0.11352539 C37.96468872 -0.115746 38.69304932 -0.11796661 39.44348145 -0.12025452 C42.97817072 0.04601158 46.48872793 0.56109099 50 1 C50 16.51 50 32.02 50 48 C33.5 48 17 48 0 48 C0 32.16 0 16.32 0 0 Z " fill="#020303" transform="translate(395,94)"/>
<path d="M0 0 C16.17 0 32.34 0 49 0 C50.31709864 3.95129593 49.83820567 7.53582867 49.5625 11.625 C48.83737132 23.75813911 48.9324807 35.8465262 49 48 C32.83 48 16.66 48 0 48 C0 32.16 0 16.32 0 0 Z " fill="#030303" transform="translate(345,386)"/>
<path d="M0 0 C16.17 0 32.34 0 49 0 C49 15.84 49 31.68 49 48 C32.83 48 16.66 48 0 48 C0 32.16 0 16.32 0 0 Z " fill="#020202" transform="translate(145,435)"/>
<path d="M0 0 C16.17 0 32.34 0 49 0 C49 15.84 49 31.68 49 48 C32.83 48 16.66 48 0 48 C0 32.16 0 16.32 0 0 Z " fill="#030303" transform="translate(45,386)"/>
<path d="M0 0 C16.17 0 32.34 0 49 0 C49 15.84 49 31.68 49 48 C32.83 48 16.66 48 0 48 C0 32.16 0 16.32 0 0 Z " fill="#B3B8B9" transform="translate(245,289)"/>
<path d="M0 0 C16.17 0 32.34 0 49 0 C49 15.84 49 31.68 49 48 C32.83 48 16.66 48 0 48 C0 32.16 0 16.32 0 0 Z " fill="#020303" transform="translate(145,289)"/>
<path d="M0 0 C16.17 0 32.34 0 49 0 C49 15.84 49 31.68 49 48 C32.83 48 16.66 48 0 48 C0 32.16 0 16.32 0 0 Z " fill="#FCFDFC" transform="translate(195,192)"/>
<path d="M0 0 C16.17 0 32.34 0 49 0 C49 15.84 49 31.68 49 48 C32.83 48 16.66 48 0 48 C0 32.16 0 16.32 0 0 Z " fill="#040403" transform="translate(245,46)"/>
<path d="M0 0 C16.17 0 32.34 0 49 0 C49 15.51 49 31.02 49 47 C32.83 47 16.66 47 0 47 C0 31.49 0 15.98 0 0 Z " fill="#FCFCFB" transform="translate(345,338)"/>
<path d="M0 0 C16.17 0 32.34 0 49 0 C49 15.51 49 31.02 49 47 C32.83 47 16.66 47 0 47 C0 31.49 0 15.98 0 0 Z " fill="#020202" transform="translate(95,338)"/>
<path d="M0 0 C16.17 0 32.34 0 49 0 C49 15.51 49 31.02 49 47 C32.83 47 16.66 47 0 47 C0 31.49 0 15.98 0 0 Z " fill="#020302" transform="translate(446,290)"/>
<path d="M0 0 C16.17 0 32.34 0 49 0 C49 15.51 49 31.02 49 47 C32.83 47 16.66 47 0 47 C0 31.49 0 15.98 0 0 Z " fill="#FCFCFC" transform="translate(245,241)"/>
<path d="M0 0 C1.20974521 2.41949043 1.05500685 3.75691132 0.92993164 6.44970703 C0.86884216 7.85023315 0.86884216 7.85023315 0.80651855 9.27905273 C0.75821899 10.26204346 0.70991943 11.24503418 0.66015625 12.2578125 C0.61983276 13.16007568 0.57950928 14.06233887 0.53796387 14.99194336 C0.38539903 18.36990163 0.22337485 21.7474273 0.0625 25.125 C-0.288125 32.67375 -0.63875 40.2225 -1 48 C-16.51 48 -32.02 48 -48 48 C-48.33 32.49 -48.66 16.98 -49 1 C-32.83 0.67 -16.66 0.34 0 0 Z " fill="#030303" transform="translate(495,142)"/>
<path d="M0 0 C16.17 0 32.34 0 49 0 C49 14.85 49 29.7 49 45 C32.83 45 16.66 45 0 45 C0 30.15 0 15.3 0 0 Z " fill="#020203" transform="translate(295,0)"/>
<path d="M0 0 C0.66 0 1.32 0 2 0 C2 14.85 2 29.7 2 45 C18.17 45 34.34 45 51 45 C51 30.15 51 15.3 51 0 C51.66 0 52.32 0 53 0 C53.33 14.52 53.66 29.04 54 44 C57.36960937 43.98839844 60.73921875 43.97679687 64.2109375 43.96484375 C67.46419175 43.95705138 70.71744497 43.95097564 73.97070312 43.94506836 C76.23665836 43.94003074 78.50261033 43.93320048 80.76855469 43.92456055 C84.02019047 43.91247004 87.27178339 43.90676608 90.5234375 43.90234375 C91.54118256 43.89718246 92.55892761 43.89202118 93.60751343 43.88670349 C94.54833771 43.88662796 95.48916199 43.88655243 96.45849609 43.88647461 C97.70425919 43.88314369 97.70425919 43.88314369 98.97518921 43.87974548 C101 44 101 44 103 45 C103.33 61.17 103.66 77.34 104 94 C103.34 94 102.68 94 102 94 C102 78.16 102 62.32 102 46 C85.5 46 69 46 52 46 C52 61.84 52 77.68 52 94 C51.67 94 51.34 94 51 94 C51 78.16 51 62.32 51 46 C34.83 46 18.66 46 2 46 C2.165 51.94 2.33 57.88 2.5 64 C3.14523825 90.99701063 3.08353043 117.99693291 3.0625 145 C3.06164398 146.10686157 3.06078796 147.21372314 3.05990601 148.35412598 C3.04838453 162.23610715 3.02527058 176.11802967 3 190 C18.51 190 34.02 190 50 190 C50 174.82 50 159.64 50 144 C50.66 143.67 51.32 143.34 52 143 C52 158.84 52 174.68 52 191 C35.5 191 19 191 2 191 C2 223.34 2 255.68 2 289 C1.67 289 1.34 289 1 289 C1 208.81 1 128.62 1 46 C-15.17 46 -31.34 46 -48 46 C-48 110.02 -48 174.04 -48 240 C-48.33 240 -48.66 240 -49 240 C-49 224.16 -49 208.32 -49 192 C-81.67 192 -114.34 192 -148 192 C-148 223.68 -148 255.36 -148 288 C-131.5 288 -115 288 -98 288 C-98 304.5 -98 321 -98 338 C-114.5 338 -131 338 -148 338 C-148 353.84 -148 369.68 -148 386 C-164.5 386 -181 386 -198 386 C-198 385.67 -198 385.34 -198 385 C-181.83 385 -165.66 385 -149 385 C-149 369.49 -149 353.98 -149 338 C-165.17 338 -181.34 338 -198 338 C-198 337.67 -198 337.34 -198 337 C-182.16 337 -166.32 337 -150 337 C-150.2165625 325.676875 -150.2165625 325.676875 -150.4375 314.125 C-150.48060303 311.74168457 -150.52370605 309.35836914 -150.56811523 306.90283203 C-150.60622862 305.02115113 -150.64469694 303.13947737 -150.68359375 301.2578125 C-150.70006958 300.27482178 -150.71654541 299.29183105 -150.73352051 298.27905273 C-150.75370239 297.34536865 -150.77388428 296.41168457 -150.79467773 295.44970703 C-150.81799416 294.23059128 -150.81799416 294.23059128 -150.84178162 292.98684692 C-150.88102414 290.92561733 -150.88102414 290.92561733 -152 289 C-151.01 289 -150.02 289 -149 289 C-149 256.66 -149 224.32 -149 191 C-116 191 -83 191 -49 191 C-49 159.32 -49 127.64 -49 95 C-51.97 95 -54.94 95 -58 95 C-56 93 -56 93 -53.375 92.875 C-52.59125 92.91625 -51.8075 92.9575 -51 93 C-50.98969254 92.41340103 -50.97938507 91.82680206 -50.96876526 91.22242737 C-50.86092806 85.1396213 -50.74631244 79.05697026 -50.62768555 72.97436523 C-50.58426335 70.70161164 -50.54259384 68.42882387 -50.50268555 66.15600586 C-50.44515881 62.89686768 -50.38141448 59.63790269 -50.31640625 56.37890625 C-50.29969376 55.35599991 -50.28298126 54.33309357 -50.26576233 53.27919006 C-50.24581711 52.33829025 -50.22587189 51.39739044 -50.20532227 50.42797852 C-50.18977798 49.59524918 -50.1742337 48.76251984 -50.15821838 47.90455627 C-50 46 -50 46 -49 45 C-47.4651703 44.90680551 -45.92607918 44.882542 -44.38842773 44.88647461 C-43.40748642 44.88655014 -42.4265451 44.88662567 -41.4158783 44.88670349 C-40.3492244 44.89186478 -39.2825705 44.89702606 -38.18359375 44.90234375 C-36.55430687 44.90446617 -36.55430687 44.90446617 -34.8921051 44.90663147 C-31.40720925 44.91224952 -27.92237658 44.92480508 -24.4375 44.9375 C-22.08138113 44.94251267 -19.72526126 44.94707598 -17.36914062 44.95117188 C-11.57938289 44.96137589 -5.78976255 44.98094776 0 45 C0 30.15 0 15.3 0 0 Z M-148 289 C-148 304.84 -148 320.68 -148 337 C-131.83 337 -115.66 337 -99 337 C-99 321.16 -99 305.32 -99 289 C-115.17 289 -131.34 289 -148 289 Z " fill="#56564F" transform="translate(293,0)"/>
<path d="M0 0 C16.17 0 32.34 0 49 0 C48.34 0.99 47.68 1.98 47 3 C43.98974355 3.32554659 41.17539902 3.46509385 38.16015625 3.4765625 C37.28225937 3.49214203 36.40436249 3.50772156 35.49986267 3.52377319 C32.68741789 3.57140549 29.87522175 3.59908293 27.0625 3.625 C24.25352563 3.66149578 21.4446919 3.70215435 18.635849 3.74765015 C16.88639007 3.77485404 15.13682865 3.79621522 13.38722229 3.81118774 C10.01989994 3.85470098 7.21594413 3.92801862 4 5 C4.00580078 5.8264502 4.01160156 6.65290039 4.01757812 7.50439453 C4.05322721 16.63947356 3.83149175 25.74553798 3.5 34.875 C3.45160031 36.25650264 3.40342227 37.63801306 3.35546875 39.01953125 C3.23914338 42.34643681 3.12062283 45.67324796 3 49 C-0.00969076 50.72729938 -2.21910475 51.26185338 -5.67675781 51.31884766 C-6.59741028 51.33871735 -7.51806274 51.35858704 -8.46661377 51.37905884 C-9.94493683 51.39638565 -9.94493683 51.39638565 -11.453125 51.4140625 C-12.46848328 51.43342865 -13.48384155 51.4527948 -14.52996826 51.4727478 C-17.76989365 51.53248099 -21.00985468 51.57890428 -24.25 51.625 C-26.44793208 51.66318551 -28.64584928 51.70223758 -30.84375 51.7421875 C-36.22903456 51.83817735 -41.61440883 51.92324323 -47 52 C-47.02477487 57.03539677 -47.04289549 62.07075781 -47.05493164 67.10620117 C-47.05995099 68.81812152 -47.06676785 70.53003761 -47.07543945 72.24194336 C-47.08761021 74.70687922 -47.09325238 77.17175825 -47.09765625 79.63671875 C-47.10281754 80.39836838 -47.10797882 81.16001801 -47.11329651 81.94474792 C-47.11369638 85.75849825 -46.92590961 89.29315771 -46 93 C-44.98353394 92.99214478 -44.98353394 92.99214478 -43.9465332 92.98413086 C-31.96242976 92.90431093 -19.97789619 92.87256488 -8 93.3125 C-6.67609253 93.34621704 -6.67609253 93.34621704 -5.32543945 93.38061523 C-2.875 93.48828125 -2.875 93.48828125 1 94 C3.09868217 97.14802325 3.25962003 97.9602183 3.31884766 101.56323242 C3.33890869 102.49679565 3.35896973 103.43035889 3.37963867 104.39221191 C3.39667847 105.85902405 3.39667847 105.85902405 3.4140625 107.35546875 C3.43170654 108.25672485 3.44935059 109.15798096 3.4675293 110.08654785 C3.53059763 113.45335037 3.57678343 116.82045204 3.625 120.1875 C3.74875 127.715625 3.8725 135.24375 4 143 C19.84 143 35.68 143 52 143 C51.67 159.5 51.34 176 51 193 C66.84 193 82.68 193 99 193 C99 177.82 99 162.64 99 147 C99.33 147 99.66 147 100 147 C100 162.51 100 178.02 100 194 C83.5 194 67 194 50 194 C50 178.16 50 162.32 50 146 C33.5 146 17 146 0 146 C0 129.83 0 113.66 0 97 C-16.5 97 -33 97 -50 97 C-50 80.83 -50 64.66 -50 48 C-33.5 48 -17 48 0 48 C0 32.16 0 16.32 0 0 Z " fill="#EFDF4E" transform="translate(345,143)"/>
<path d="M0 0 C6.625 -0.125 6.625 -0.125 10 1 C10.94337376 3.83012127 11.12172829 5.54299918 11.11352539 8.47143555 C11.11340454 9.38469604 11.11328369 10.29795654 11.11315918 11.2388916 C11.10804321 12.19517456 11.10292725 13.15145752 11.09765625 14.13671875 C11.09664917 15.01831665 11.09564209 15.89991455 11.09460449 16.80822754 C11.08937263 20.10133159 11.07541136 23.3944171 11.0625 26.6875 C11.041875 34.050625 11.02125 41.41375 11 49 C26.84 48.67 42.68 48.34 59 48 C59 48.66 59 49.32 59 50 C42.83 50 26.66 50 10 50 C10.495 53.96 10.495 53.96 11 58 C11.07358957 59.49476188 11.1184483 60.99171709 11.11352539 62.48828125 C11.11344986 63.26848633 11.11337433 64.04869141 11.11329651 64.85253906 C11.10813522 65.66432617 11.10297394 66.47611328 11.09765625 67.3125 C11.0962413 68.16682617 11.09482635 69.02115234 11.09336853 69.90136719 C11.08781962 72.60094873 11.07527697 75.30044399 11.0625 78 C11.05747839 79.84244671 11.05291664 81.68489473 11.04882812 83.52734375 C11.03786699 88.01826186 11.02063825 92.50911636 11 97 C11.86715637 96.75650314 11.86715637 96.75650314 12.75183105 96.50808716 C16.3879119 95.68633131 20.07142423 95.85802822 23.78125 95.8671875 C25.0569989 95.86575241 25.0569989 95.86575241 26.35852051 95.86428833 C28.15389073 95.86360886 29.94926343 95.8654469 31.74462891 95.86962891 C34.48996508 95.87498044 37.23513765 95.86967604 39.98046875 95.86328125 C41.72656286 95.86394207 43.47265687 95.86522332 45.21875 95.8671875 C46.03863403 95.86516327 46.85851807 95.86313904 47.70324707 95.86105347 C51.30408076 95.87584041 54.53531371 96.0271187 58 97 C57.98839844 95.6903125 57.97679687 94.380625 57.96484375 93.03125 C57.88170977 78.9945966 58.30589674 65.0186706 59 51 C59.66 51 60.32 51 61 51 C61 66.18 61 81.36 61 97 C76.18 97 91.36 97 107 97 C103.42411289 99.38392474 101.63845979 99.31524784 97.3828125 99.44921875 C96.72981171 99.47095657 96.07681091 99.4926944 95.40402222 99.51509094 C94.0172072 99.55900177 92.63023626 99.59820316 91.24316406 99.63305664 C89.16673137 99.68642737 87.0914451 99.75696842 85.015625 99.83007812 C76.5315195 100.08497161 68.5568155 99.65821658 60 99 C60 131.01 60 163.02 60 196 C75.84 196 91.68 196 108 196 C108 164.98 108 133.96 108 102 C108.66 102 109.32 102 110 102 C111.04079614 109.44569549 110.9452192 116.59110516 110.52734375 124.0703125 C109.81382678 138.48357545 109.92427399 152.885793 110 167.3125 C110.02694371 172.51691604 110.04647768 177.72131992 110.0625 182.92578125 C110.07494751 184.70508781 110.07494751 184.70508781 110.08764648 186.52033997 C110.09094971 187.60715561 110.09425293 188.69397125 110.09765625 189.8137207 C110.10289307 190.77027054 110.10812988 191.72682037 110.11352539 192.71235657 C110 195 110 195 109 197 C93.16 197 77.32 197 61 197 C60.67 197.66 60.34 198.32 60 199 C59.67 198.67 59.34 198.34 59 198 C57.46617321 197.8774645 55.92689481 197.82222062 54.38842773 197.79467773 C53.40748642 197.77473251 52.4265451 197.75478729 51.4158783 197.73423767 C50.3492244 197.71752518 49.2825705 197.70081268 48.18359375 197.68359375 C47.0974025 197.66281265 46.01121124 197.64203156 44.8921051 197.62062073 C41.40730373 197.55500558 37.92242432 197.49618489 34.4375 197.4375 C32.08137199 197.39432615 29.72525201 197.35071224 27.36914062 197.30664062 C21.57951063 197.19931208 15.78980225 197.09756835 10 197 C10 196.67 10 196.34 10 196 C26.17 196 42.34 196 59 196 C58.67 163.99 58.34 131.98 58 99 C33.745 98.505 33.745 98.505 9 98 C9 82.16 9 66.32 9 50 C-7.5 50 -24 50 -41 50 C-41 49.67 -41 49.34 -41 49 C-35.80817953 48.83050098 -30.61618014 48.67017329 -25.42382812 48.51782227 C-23.66268563 48.46491724 -21.90161259 48.40963847 -20.140625 48.35180664 C-17.58869418 48.2684339 -15.03662369 48.19400759 -12.484375 48.12109375 C-11.71510681 48.09405869 -10.94583862 48.06702362 -10.15325928 48.03916931 C-3.61602465 47.86628183 2.36026764 48.44668897 9 49 C9 33.49 9 17.98 9 2 C6.36 2 3.72 2 1 2 C0.505 1.01 0.505 1.01 0 0 Z " fill="#624344" transform="translate(436,93)"/>
<path d="M0 0 C16.5 0 33 0 50 0 C50 15.84 50 31.68 50 48 C53.52558594 47.98839844 57.05117188 47.97679687 60.68359375 47.96484375 C64.08243723 47.95705437 67.48127974 47.95097693 70.88012695 47.94506836 C73.24992312 47.94002659 75.61971615 47.93319335 77.98950195 47.92456055 C81.38754039 47.9124881 84.78553785 47.90677029 88.18359375 47.90234375 C89.25024765 47.89718246 90.31690155 47.89202118 91.4158783 47.88670349 C92.88729027 47.88659019 92.88729027 47.88659019 94.38842773 47.88647461 C95.69081642 47.88314369 95.69081642 47.88314369 97.01951599 47.87974548 C99 48 99 48 100 49 C100.09529612 52.01350238 100.12551904 55.00404106 100.11352539 58.01782227 C100.11367142 58.96406464 100.11381744 59.91030701 100.1139679 60.88522339 C100.11326836 64.02897392 100.10547409 67.17266601 100.09765625 70.31640625 C100.09579221 72.48974068 100.09436824 74.66307552 100.09336853 76.83641052 C100.08954221 82.56901195 100.07971097 88.30158823 100.06866455 94.03417969 C100.05665886 100.9057132 100.05204873 107.7772551 100.04621124 114.64879608 C100.03649927 125.09921491 100.0173435 135.54957849 100 146 C83.5 146 67 146 50 146 C50 129.83 50 113.66 50 97 C33.5 97 17 97 0 97 C0 64.99 0 32.98 0 0 Z M2 2 C1.97686653 13.830381 1.95907977 25.66075665 1.94818783 37.49115562 C1.94296121 42.98402071 1.93586754 48.47687036 1.92456055 53.96972656 C1.91372386 59.26704689 1.90772149 64.56435234 1.90512276 69.86168289 C1.90326993 71.88636128 1.89965201 73.91103882 1.89426994 75.93571091 C1.88704917 78.76363661 1.8860095 81.59150021 1.88647461 84.41943359 C1.88287933 85.26316025 1.87928406 86.1068869 1.87557983 86.97618103 C1.77359954 91.12067972 1.77359954 91.12067972 3 95 C27.255 95.495 27.255 95.495 52 96 C51.9375 119.4375 51.9375 119.4375 51.90991211 126.84545898 C51.90699309 128.77067001 51.9044445 130.69588165 51.90234375 132.62109375 C51.89722778 133.63079224 51.89211182 134.64049072 51.88684082 135.68078613 C51.88671997 136.6348938 51.88659912 137.58900146 51.88647461 138.57202148 C51.884254 139.40475082 51.88203339 140.23748016 51.87974548 141.09544373 C51.78995168 143.01033274 51.78995168 143.01033274 53 144 C68.18 144 83.36 144 99 144 C99 113.31 99 82.62 99 51 C82.5 51 66 51 49 51 C48.5625 27.0625 48.5625 27.0625 48.43188477 19.49633789 C48.39377975 17.53010312 48.35531216 15.56387533 48.31640625 13.59765625 C48.29993042 12.56636597 48.28345459 11.53507568 48.26647949 10.47253418 C48.24629761 9.49812378 48.22611572 8.52371338 48.20532227 7.51977539 C48.18200584 6.24403404 48.18200584 6.24403404 48.15821838 4.94252014 C48.21055171 2.99476202 48.21055171 2.99476202 47 2 C45.58774954 1.9071274 44.17091066 1.88253228 42.75561523 1.88647461 C41.40432777 1.88658791 41.40432777 1.88658791 40.02574158 1.88670349 C38.5570034 1.89444542 38.5570034 1.89444542 37.05859375 1.90234375 C36.06118668 1.9037587 35.0637796 1.90517365 34.03614807 1.90663147 C30.83656876 1.91224886 27.63705831 1.92480429 24.4375 1.9375 C22.27408955 1.94251276 20.11067801 1.94707605 17.94726562 1.95117188 C12.63148675 1.96222393 7.31574829 1.97897896 2 2 Z " fill="#A3292A" transform="translate(395,143)"/>
<path d="M0 0 C0.66 0 1.32 0 2 0 C2 14.85 2 29.7 2 45 C18.17 45 34.34 45 51 45 C51 30.15 51 15.3 51 0 C51.66 0 52.32 0 53 0 C53.33 14.52 53.66 29.04 54 44 C57.36960937 43.98839844 60.73921875 43.97679687 64.2109375 43.96484375 C67.46419175 43.95705138 70.71744497 43.95097564 73.97070312 43.94506836 C76.23665836 43.94003074 78.50261033 43.93320048 80.76855469 43.92456055 C84.02019047 43.91247004 87.27178339 43.90676608 90.5234375 43.90234375 C92.05005508 43.89460182 92.05005508 43.89460182 93.60751343 43.88670349 C94.54833771 43.88662796 95.48916199 43.88655243 96.45849609 43.88647461 C97.28900482 43.884254 98.11951355 43.88203339 98.97518921 43.87974548 C101 44 101 44 103 45 C103.33 61.17 103.66 77.34 104 94 C103.34 94 102.68 94 102 94 C102 78.16 102 62.32 102 46 C85.5 46 69 46 52 46 C52 61.84 52 77.68 52 94 C51.67 94 51.34 94 51 94 C51 78.16 51 62.32 51 46 C34.83 46 18.66 46 2 46 C2.165 51.94 2.33 57.88 2.5 64 C3.14523825 90.99701063 3.08353043 117.99693291 3.0625 145 C3.06164398 146.10686157 3.06078796 147.21372314 3.05990601 148.35412598 C3.04838453 162.23610715 3.02527058 176.11802967 3 190 C18.51 190 34.02 190 50 190 C50 174.82 50 159.64 50 144 C50.66 143.67 51.32 143.34 52 143 C52 158.84 52 174.68 52 191 C35.5 191 19 191 2 191 C2 223.34 2 255.68 2 289 C1.67 289 1.34 289 1 289 C1 208.81 1 128.62 1 46 C0.34 45.67 -0.32 45.34 -1 45 C-0.67 30.15 -0.34 15.3 0 0 Z " fill="#717A5B" transform="translate(293,0)"/>
<path d="M0 0 C0.33 0 0.66 0 1 0 C1 15.84 1 31.68 1 48 C17.17 48 33.34 48 50 48 C50 32.82 50 17.64 50 2 C50.99 2.495 50.99 2.495 52 3 C52.0505963 9.37203593 52.08568957 15.7440203 52.10986328 22.11621094 C52.11993789 24.28517594 52.13359798 26.45412731 52.15087891 28.62304688 C52.17506323 31.73571126 52.18646832 34.84819651 52.1953125 37.9609375 C52.20563507 38.934935 52.21595764 39.9089325 52.22659302 40.91244507 C52.22674408 41.81322784 52.22689514 42.71401062 52.22705078 43.64208984 C52.231492 44.43706879 52.23593323 45.23204773 52.24050903 46.05111694 C52 48 52 48 50 50 C47.93722534 50.24050903 47.93722534 50.24050903 45.36669922 50.22705078 C44.40585419 50.22689972 43.44500916 50.22674866 42.45504761 50.22659302 C41.41542877 50.21627045 40.37580994 50.20594788 39.3046875 50.1953125 C38.24210724 50.1924826 37.17952698 50.18965271 36.08474731 50.18673706 C32.68138501 50.17551639 29.27828314 50.15040837 25.875 50.125 C23.57161838 50.11497264 21.26823264 50.10584637 18.96484375 50.09765625 C13.30980655 50.07557093 7.65492187 50.04207489 2 50 C2.00444122 50.58215775 2.00888245 51.16431549 2.01345825 51.76411438 C2.0576515 57.81464182 2.08784972 63.86512352 2.10986328 69.91577148 C2.11993058 72.17490501 2.13358538 74.43402547 2.15087891 76.69311523 C2.17509508 79.93736999 2.18647575 83.18145271 2.1953125 86.42578125 C2.20563507 87.43836502 2.21595764 88.45094879 2.22659302 89.49421692 C2.22674408 90.43496567 2.22689514 91.37571442 2.22705078 92.3449707 C2.231492 93.17325882 2.23593323 94.00154694 2.24050903 94.85493469 C2 97 2 97 0 100 C-2.92651367 100.35644531 -2.92651367 100.35644531 -6.66796875 100.328125 C-7.67577141 100.32531525 -7.67577141 100.32531525 -8.70393372 100.32244873 C-10.13559893 100.3157125 -11.56724526 100.30176689 -12.9987793 100.28125 C-15.13413642 100.25076191 -17.26874603 100.24033953 -19.40429688 100.234375 C-27.70922609 100.18566503 -35.93555347 99.80034867 -44.2121582 99.11230469 C-45.132146 99.07524414 -46.05213379 99.03818359 -47 99 C-48.20043058 99.97811061 -48.20043058 99.97811061 -48.10006714 101.80844116 C-48.08879791 102.5965921 -48.07752869 103.38474304 -48.06591797 104.19677734 C-48.05615936 105.08795258 -48.04640076 105.97912781 -48.03634644 106.89730835 C-48.02177399 107.86705597 -48.00720154 108.83680359 -47.9921875 109.8359375 C-47.97466876 111.86978666 -47.95776071 113.90364115 -47.94140625 115.9375 C-47.91042714 119.15932783 -47.87491531 122.38089291 -47.82861328 125.60253906 C-47.78635442 128.7012057 -47.76285233 131.79956186 -47.7421875 134.8984375 C-47.71425613 136.34698624 -47.71425613 136.34698624 -47.6857605 137.82479858 C-47.68057907 139.17101791 -47.68057907 139.17101791 -47.67529297 140.54443359 C-47.66077591 141.72904678 -47.66077591 141.72904678 -47.64596558 142.93759155 C-48 145 -48 145 -49.22361755 146.76292419 C-51.55184146 148.38430334 -52.92388029 148.33028167 -55.74682617 148.2487793 C-57.20807922 148.21778137 -57.20807922 148.21778137 -58.69885254 148.18615723 C-59.71991089 148.14921753 -60.74096924 148.11227783 -61.79296875 148.07421875 C-63.20382751 148.04019958 -63.20382751 148.04019958 -64.64318848 148.00549316 C-68.15842378 147.91622947 -71.67293974 147.80025381 -75.1875 147.6875 C-83.045625 147.460625 -90.90375 147.23375 -99 147 C-99 162.84 -99 178.68 -99 195 C-103.62928655 195.92585731 -107.80893835 196.11242302 -112.484375 196.0625 C-113.29940491 196.05871338 -114.11443481 196.05492676 -114.9541626 196.05102539 C-118.42295629 196.0347754 -121.89162958 196.00674365 -125.36035156 195.97949219 C-127.90168701 195.96125064 -130.44300251 195.94925201 -132.984375 195.9375 C-133.75344177 195.92920166 -134.52250854 195.92090332 -135.31488037 195.91235352 C-140.61782575 195.88880848 -145.7376247 196.336818 -151 197 C-151.9465414 194.16037579 -152.14994224 192.29593471 -152.20532227 189.3449707 C-152.22526749 188.40422195 -152.24521271 187.46347321 -152.26576233 186.49421692 C-152.28247482 185.48163315 -152.29918732 184.46904938 -152.31640625 183.42578125 C-152.3475779 181.86732735 -152.3475779 181.86732735 -152.37937927 180.27738953 C-152.44480656 176.95582747 -152.50372821 173.63418584 -152.5625 170.3125 C-152.60569169 168.0618407 -152.64930619 165.81118948 -152.69335938 163.56054688 C-152.80048098 158.0404489 -152.90226016 152.52027163 -153 147 C-152.34 147 -151.68 147 -151 147 C-149.8239997 149.3520006 -149.87915459 150.73734401 -149.88647461 153.35791016 C-149.88659546 154.2712915 -149.88671631 155.18467285 -149.88684082 156.12573242 C-149.89195679 157.08713135 -149.89707275 158.04853027 -149.90234375 159.0390625 C-149.90335083 159.92166748 -149.90435791 160.80427246 -149.90539551 161.71362305 C-149.91063605 165.01742854 -149.92459727 168.32121555 -149.9375 171.625 C-149.958125 179.00875 -149.97875 186.3925 -150 194 C-133.5 194 -117 194 -100 194 C-100 178.16 -100 162.32 -100 146 C-83.5 146 -67 146 -50 146 C-50.33 129.83 -50.66 113.66 -51 97 C-34.17 97 -17.34 97 0 97 C0 81.16 0 65.32 0 49 C-16.5 49 -33 49 -50 49 C-50.495 49.99 -50.495 49.99 -51 51 C-51 50.34 -51 49.68 -51 49 C-67.17 49 -83.34 49 -100 49 C-100 48.67 -100 48.34 -100 48 C-67 48 -34 48 0 48 C0 32.16 0 16.32 0 0 Z " fill="#747678" transform="translate(445,289)"/>
<path d="M0 0 C16.17 0 32.34 0 49 0 C49 32.01 49 64.02 49 97 C32.83 97 16.66 97 0 97 C0 64.99 0 32.98 0 0 Z M3 4 C3 33.7 3 63.4 3 94 C17.52 94 32.04 94 47 94 C47 63.97 47 33.94 47 3 C24.78098846 1.72094613 24.78098846 1.72094613 3 4 Z " fill="#EEE15B" transform="translate(245,94)"/>
<path d="M0 0 C2.70803877 2.70803877 2.27312659 4.16153594 2.31884766 7.95239258 C2.33871735 9.20582962 2.35858704 10.45926666 2.37905884 11.75068665 C2.39096316 13.13196616 2.40262428 14.51324779 2.4140625 15.89453125 C2.43280584 17.32111186 2.45238153 18.74768175 2.4727478 20.17424011 C2.52425858 23.95221331 2.56370099 27.73022428 2.60089111 31.50836182 C2.63247935 34.52731802 2.67218976 37.54613836 2.71248245 40.56498909 C3.09335688 69.10682451 3.09335688 69.10682451 2.93130493 82.83442688 C2.90468485 86.69045075 3.04767851 90.25286259 4 94 C5.85625 93.690625 5.85625 93.690625 7.75 93.375 C11.11909835 92.93892876 13.12841921 92.96596361 16 95 C16 94.34 16 93.68 16 93 C24.91 93 33.82 93 43 93 C43.79843113 88.20941323 44.13457223 84.12254658 44.125 79.3125 C44.12757813 78.00925781 44.13015625 76.70601563 44.1328125 75.36328125 C44.15660234 72.0055601 44.15660234 72.0055601 43 69 C43.99 67.515 43.99 67.515 45 66 C44.94707451 63.48108467 44.94707451 63.48108467 44.5 60.75 C43.93416535 55.85260357 44.26701096 52.58732393 46 48 C46.66 48 47.32 48 48 48 C48 47.34 48 46.68 48 46 C56.08969171 44.82704125 64.14839319 44.84772836 72.30297852 44.86962891 C74.6922839 44.87501078 77.08140329 44.86964684 79.47070312 44.86328125 C81.00520874 44.86394172 82.53971425 44.86522224 84.07421875 44.8671875 C85.13379036 44.86415115 85.13379036 44.86415115 86.21476746 44.86105347 C90.3341894 44.88039884 93.87808071 45.31301345 98 46 C98 31.15 98 16.3 98 1 C94.37 1 90.74 1 87 1 C87 0.67 87 0.34 87 0 C90.96 0 94.92 0 99 0 C99 16.17 99 32.34 99 49 C73.755 49.495 73.755 49.495 48 50 C47.67 65.18 47.34 80.36 47 96 C31.49 96 15.98 96 0 96 C0 64.32 0 32.64 0 0 Z " fill="#4C6A8C" transform="translate(296,94)"/>
<path d="M0 0 C16.17 0 32.34 0 49 0 C48.34 0.99 47.68 1.98 47 3 C43.98974355 3.32554659 41.17539902 3.46509385 38.16015625 3.4765625 C37.28225937 3.49214203 36.40436249 3.50772156 35.49986267 3.52377319 C32.68741789 3.57140549 29.87522175 3.59908293 27.0625 3.625 C24.25352563 3.66149578 21.4446919 3.70215435 18.635849 3.74765015 C16.88639007 3.77485404 15.13682865 3.79621522 13.38722229 3.81118774 C10.01989994 3.85470098 7.21594413 3.92801862 4 5 C4.00507568 5.82717529 4.01015137 6.65435059 4.01538086 7.5065918 C4.04647592 16.61744548 3.86290524 25.70618591 3.5625 34.8125 C3.52270396 36.18554449 3.48299009 37.55859136 3.44335938 38.93164062 C3.38051758 40.86233398 3.38051758 40.86233398 3.31640625 42.83203125 C3.27974854 43.99452393 3.24309082 45.1570166 3.20532227 46.35473633 C3 49 3 49 2 50 C0.40389018 50.09333705 -1.19633428 50.11745372 -2.79516602 50.11352539 C-3.81614883 50.11344986 -4.83713165 50.11337433 -5.88905334 50.11329651 C-6.9994548 50.10813522 -8.10985626 50.10297394 -9.25390625 50.09765625 C-10.38448959 50.0962413 -11.51507294 50.09482635 -12.67991638 50.09336853 C-16.30747065 50.08775019 -19.93496424 50.07519458 -23.5625 50.0625 C-26.01497307 50.05748736 -28.4674471 50.05292405 -30.91992188 50.04882812 C-36.94665704 50.0386237 -42.97326022 50.01905186 -49 50 C-49 64.85 -49 79.7 -49 95 C-32.83 95 -16.66 95 0 95 C0 95.66 0 96.32 0 97 C-16.5 97 -33 97 -50 97 C-50 80.83 -50 64.66 -50 48 C-33.5 48 -17 48 0 48 C0 32.16 0 16.32 0 0 Z " fill="#E4D95D" transform="translate(345,143)"/>
<path d="M0 0 C0.33 0 0.66 0 1 0 C1 32.01 1 64.02 1 97 C17.5 97 34 97 51 97 C51 113.5 51 130 51 147 C50.67 147 50.34 147 50 147 C49.67 131.16 49.34 115.32 49 99 C45.40222656 99.01160156 41.80445313 99.02320313 38.09765625 99.03515625 C34.62931405 99.04294557 31.16097281 99.04902304 27.69262695 99.05493164 C25.27432828 99.05997349 22.85603267 99.06680678 20.43774414 99.07543945 C16.97020717 99.08751157 13.50271034 99.09322963 10.03515625 99.09765625 C8.94662857 99.10281754 7.85810089 99.10797882 6.73658752 99.11329651 C5.23514442 99.11340981 5.23514442 99.11340981 3.70336914 99.11352539 C2.37433311 99.11685631 2.37433311 99.11685631 1.01844788 99.12025452 C-1 99 -1 99 -2 98 C-2.10594305 95.02775517 -2.14677588 92.07862066 -2.14526367 89.10571289 C-2.14862228 88.17243668 -2.1519809 87.23916046 -2.15544128 86.27760315 C-2.16498212 83.17594084 -2.16689595 80.07433234 -2.16796875 76.97265625 C-2.17117911 74.82653277 -2.17454301 72.68040951 -2.17805481 70.5342865 C-2.1840539 66.02911878 -2.18589391 61.52397026 -2.18530273 57.01879883 C-2.18520106 51.2334779 -2.19885555 45.44827956 -2.21607494 39.66298771 C-2.22716944 35.22874888 -2.22922273 30.79453992 -2.22869301 26.36028862 C-2.2298769 24.22675593 -2.23432138 22.09322256 -2.24202538 19.95970345 C-2.25177412 16.98094108 -2.24896758 14.00244793 -2.24291992 11.02368164 C-2.24853943 10.13477234 -2.25415894 9.24586304 -2.25994873 8.33001709 C-2.2283152 2.2283152 -2.2283152 2.2283152 0 0 Z " fill="#FABD3F" transform="translate(394,143)"/>
<path d="M0 0 C0.99 0.495 0.99 0.495 2 1 C2.33 31.69 2.66 62.38 3 94 C18.37770303 93.96041103 18.37770303 93.96041103 33.75537109 93.90991211 C35.67805933 93.90699249 37.60074819 93.90444404 39.5234375 93.90234375 C40.52802002 93.89722778 41.53260254 93.89211182 42.56762695 93.88684082 C43.99860718 93.88665955 43.99860718 93.88665955 45.45849609 93.88647461 C46.70425919 93.88314369 46.70425919 93.88314369 47.97518921 93.87974548 C50 94 50 94 52 95 C52.33 110.84 52.66 126.68 53 143 C52.34 143 51.68 143 51 143 C50.67 143.66 50.34 144.32 50 145 C50 128.83 50 112.66 50 96 C33.5 96 17 96 0 96 C0 64.32 0 32.64 0 0 Z " fill="#CC350C" transform="translate(395,144)"/>
<path d="M0 0 C0.33 0 0.66 0 1 0 C1 15.84 1 31.68 1 48 C17.17 48 33.34 48 50 48 C50 32.82 50 17.64 50 2 C50.99 2.495 50.99 2.495 52 3 C52.0505963 9.37203593 52.08568957 15.7440203 52.10986328 22.11621094 C52.11993789 24.28517594 52.13359798 26.45412731 52.15087891 28.62304688 C52.17506323 31.73571126 52.18646832 34.84819651 52.1953125 37.9609375 C52.20563507 38.934935 52.21595764 39.9089325 52.22659302 40.91244507 C52.22674408 41.81322784 52.22689514 42.71401062 52.22705078 43.64208984 C52.231492 44.43706879 52.23593323 45.23204773 52.24050903 46.05111694 C52 48 52 48 50 50 C47.93722534 50.24050903 47.93722534 50.24050903 45.36669922 50.22705078 C44.40585419 50.22689972 43.44500916 50.22674866 42.45504761 50.22659302 C41.41542877 50.21627045 40.37580994 50.20594788 39.3046875 50.1953125 C38.24210724 50.1924826 37.17952698 50.18965271 36.08474731 50.18673706 C32.68138501 50.17551639 29.27828314 50.15040837 25.875 50.125 C23.57161838 50.11497264 21.26823264 50.10584637 18.96484375 50.09765625 C13.30971408 50.07727006 7.65514953 50.0381246 2 50 C1.67 63.2 1.34 76.4 1 90 C0.67 90 0.34 90 0 90 C0 76.47 0 62.94 0 49 C-16.5 49 -33 49 -50 49 C-50.495 49.99 -50.495 49.99 -51 51 C-51 50.34 -51 49.68 -51 49 C-67.17 49 -83.34 49 -100 49 C-100 48.67 -100 48.34 -100 48 C-67 48 -34 48 0 48 C0 32.16 0 16.32 0 0 Z " fill="#646254" transform="translate(445,289)"/>
<path d="M0 0 C6.625 -0.125 6.625 -0.125 10 1 C10.94337376 3.83012127 11.12172829 5.54299918 11.11352539 8.47143555 C11.11340454 9.38469604 11.11328369 10.29795654 11.11315918 11.2388916 C11.10804321 12.19517456 11.10292725 13.15145752 11.09765625 14.13671875 C11.09664917 15.01831665 11.09564209 15.89991455 11.09460449 16.80822754 C11.08937263 20.10133159 11.07541136 23.3944171 11.0625 26.6875 C11.041875 34.050625 11.02125 41.41375 11 49 C26.84 48.67 42.68 48.34 59 48 C59 48.66 59 49.32 59 50 C42.83 50 26.66 50 10 50 C10.495 53.96 10.495 53.96 11 58 C11.07358957 59.49476188 11.1184483 60.99171709 11.11352539 62.48828125 C11.11344986 63.26848633 11.11337433 64.04869141 11.11329651 64.85253906 C11.10813522 65.66432617 11.10297394 66.47611328 11.09765625 67.3125 C11.0962413 68.16682617 11.09482635 69.02115234 11.09336853 69.90136719 C11.08781962 72.60094873 11.07527697 75.30044399 11.0625 78 C11.05747839 79.84244671 11.05291664 81.68489473 11.04882812 83.52734375 C11.03786699 88.01826186 11.02063825 92.50911636 11 97 C11.8793924 96.75601219 11.8793924 96.75601219 12.77655029 96.50709534 C16.10662122 95.7476163 19.431419 95.87809778 22.828125 95.90234375 C23.57713074 95.9037587 24.32613647 95.90517365 25.09783936 95.90663147 C27.48193412 95.91221341 29.86593378 95.92476255 32.25 95.9375 C33.86979031 95.94251734 35.48958209 95.94707984 37.109375 95.95117188 C41.07295312 95.96217692 45.03646045 95.97942909 49 96 C49 96.66 49 97.32 49 98 C35.8 98 22.6 98 9 98 C9 82.16 9 66.32 9 50 C-7.5 50 -24 50 -41 50 C-41 49.67 -41 49.34 -41 49 C-35.80817953 48.83050098 -30.61618014 48.67017329 -25.42382812 48.51782227 C-23.66268563 48.46491724 -21.90161259 48.40963847 -20.140625 48.35180664 C-17.58869418 48.2684339 -15.03662369 48.19400759 -12.484375 48.12109375 C-11.71510681 48.09405869 -10.94583862 48.06702362 -10.15325928 48.03916931 C-3.61602465 47.86628183 2.36026764 48.44668897 9 49 C9 33.49 9 17.98 9 2 C6.36 2 3.72 2 1 2 C0.505 1.01 0.505 1.01 0 0 Z " fill="#593B3B" transform="translate(436,93)"/>
<path d="M0 0 C16.5 0 33 0 50 0 C50 0.33 50 0.66 50 1 C33.83 1 17.66 1 1 1 C1 16.84 1 32.68 1 49 C-5.75083691 51.25027897 -5.75083691 51.25027897 -9.45727539 51.24291992 C-10.6936953 51.24753487 -10.6936953 51.24753487 -11.95509338 51.25224304 C-13.263162 51.24146477 -13.263162 51.24146477 -14.59765625 51.23046875 C-15.50954208 51.23001053 -16.42142792 51.22955231 -17.36094666 51.2290802 C-19.28141589 51.22606959 -21.20188294 51.21821914 -23.12231445 51.20581055 C-26.05624066 51.18753898 -28.9898509 51.18530121 -31.92382812 51.18554688 C-33.79427355 51.18063147 -35.66471685 51.17480306 -37.53515625 51.16796875 C-38.84626122 51.16629951 -38.84626122 51.16629951 -40.18385315 51.16459656 C-43.51086135 51.13874696 -46.57256677 51.08619175 -49.84155273 50.42700195 C-52.30656899 49.93935198 -53.60047832 50.34061099 -56 51 C-58.0765269 51.09273334 -60.15577959 51.13068341 -62.234375 51.1328125 C-63.44867188 51.13410156 -64.66296875 51.13539063 -65.9140625 51.13671875 C-67.17992188 51.13285156 -68.44578125 51.12898437 -69.75 51.125 C-71.00039062 51.12886719 -72.25078125 51.13273438 -73.5390625 51.13671875 C-83.80957912 51.12586197 -83.80957912 51.12586197 -88.765625 50.4296875 C-91.88304382 49.70772668 -91.88304382 49.70772668 -94 51 C-94 50.01 -94 49.02 -94 48 C-62.98 48 -31.96 48 0 48 C0 32.16 0 16.32 0 0 Z " fill="#76787A" transform="translate(94,532)"/>
<path d="M0 0 C0.66 0 1.32 0 2 0 C2.33 14.52 2.66 29.04 3 44 C6.36960937 43.98839844 9.73921875 43.97679687 13.2109375 43.96484375 C16.46419175 43.95705138 19.71744497 43.95097564 22.97070312 43.94506836 C25.23665836 43.94003074 27.50261033 43.93320048 29.76855469 43.92456055 C33.02019047 43.91247004 36.27178339 43.90676608 39.5234375 43.90234375 C41.05005508 43.89460182 41.05005508 43.89460182 42.60751343 43.88670349 C43.54833771 43.88662796 44.48916199 43.88655243 45.45849609 43.88647461 C46.28900482 43.884254 47.11951355 43.88203339 47.97518921 43.87974548 C50 44 50 44 52 45 C52.33 61.17 52.66 77.34 53 94 C52.34 94 51.68 94 51 94 C51 78.16 51 62.32 51 46 C34.5 46 18 46 1 46 C1 61.84 1 77.68 1 94 C0.67 94 0.34 94 0 94 C0 78.16 0 62.32 0 46 C-15.84 46 -31.68 46 -48 46 C-48 45.67 -48 45.34 -48 45 C-32.16 45 -16.32 45 0 45 C0 30.15 0 15.3 0 0 Z " fill="#4B505A" transform="translate(344,0)"/>
<path d="M0 0 C2.31 0 4.62 0 7 0 C8.65875797 3.31751593 8.12889303 7.02597054 8.11352539 10.67236328 C8.11367142 11.56998383 8.11381744 12.46760437 8.1139679 13.39242554 C8.11326953 16.36841218 8.10548067 19.34433675 8.09765625 22.3203125 C8.0957918 24.38011643 8.09436802 26.43992081 8.09336853 28.49972534 C8.08954548 33.92817402 8.07971699 39.35659605 8.06866455 44.78503418 C8.05665009 51.29449411 8.05204718 57.80396294 8.04621124 64.31343079 C8.03650514 74.2089724 8.01734708 84.10445553 8 94 C-7.84 94 -23.68 94 -40 94 C-40 78.49 -40 62.98 -40 47 C-39.67 47 -39.34 47 -39 47 C-39 62.18 -39 77.36 -39 93 C-31.925625 92.855625 -24.85125 92.71125 -17.5625 92.5625 C-14.20880249 92.49784546 -14.20880249 92.49784546 -10.78735352 92.43188477 C-9.02619601 92.39377882 -7.26504628 92.35531115 -5.50390625 92.31640625 C-4.1189093 92.2916925 -4.1189093 92.2916925 -2.70593262 92.26647949 C-1.39658752 92.23620667 -1.39658752 92.23620667 -0.06079102 92.20532227 C1.08171364 92.18200584 1.08171364 92.18200584 2.24729919 92.15821838 C4.02735006 92.18620671 4.02735006 92.18620671 5 91 C5.08868359 89.14620304 5.10687764 87.28899957 5.09765625 85.43310547 C5.09435303 84.24030975 5.0910498 83.04751404 5.08764648 81.818573 C5.07934814 80.51461578 5.0710498 79.21065857 5.0625 77.8671875 C5.05809156 76.51449763 5.05427569 75.1618057 5.05102539 73.80911255 C5.03764933 68.77688242 5.01376944 63.74471258 4.98962402 58.71252441 C4.96965398 54.48152108 4.9540975 50.25054347 4.94406128 46.01950455 C4.93770397 44.05521104 4.92513173 42.0909407 4.91235352 40.12667847 C4.89199323 32.50255911 5.18926982 24.97907841 5.77734375 17.38284302 C6.09312114 12.58519943 6.08991057 7.80522053 6 3 C4.02 2.34 2.04 1.68 0 1 C0 0.67 0 0.34 0 0 Z " fill="#F7DF49" transform="translate(436,242)"/>
<path d="M0 0 C0.66 0 1.32 0 2 0 C2 32.34 2 64.68 2 98 C14.21 98 26.42 98 39 98 C39 98.33 39 98.66 39 99 C38.43079834 99.05534912 37.86159668 99.11069824 37.27514648 99.16772461 C34.66243776 99.42270715 32.04997032 99.68008678 29.4375 99.9375 C28.54224609 100.02451172 27.64699219 100.11152344 26.72460938 100.20117188 C21.79438324 100.68877666 16.90424726 101.29140154 12 102 C5.48837209 102.3255814 5.48837209 102.3255814 2 100 C2 100.66 2 101.32 2 102 C1.01 101.67 0.02 101.34 -1 101 C-0.67 67.67 -0.34 34.34 0 0 Z " fill="#636466" transform="translate(93,191)"/>
<path d="M0 0 C16.17 0 32.34 0 49 0 C49 14.52 49 29.04 49 44 C48.67 44 48.34 44 48 44 C47.8284374 39.81268612 47.6637002 35.62512804 47.5 31.4375 C47.45230469 30.27541016 47.40460938 29.11332031 47.35546875 27.91601562 C47.02202418 19.2702743 46.945177 10.65061186 47 2 C41.67978261 1.95046707 36.35970024 1.91421744 31.03930664 1.89013672 C29.23036357 1.88009513 27.42143667 1.8664592 25.61254883 1.84912109 C23.00858565 1.82479168 20.40483758 1.81349839 17.80078125 1.8046875 C16.99538406 1.79436493 16.18998688 1.78404236 15.36018372 1.77340698 C11.15760658 1.77257211 7.77564888 1.91223977 4 4 C2.86980573 6.26038854 2.84731043 7.57118826 2.79467773 10.08251953 C2.77473251 10.92324005 2.75478729 11.76396057 2.73423767 12.63015747 C2.71752518 13.53853363 2.70081268 14.44690979 2.68359375 15.3828125 C2.66281265 16.31221649 2.64203156 17.24162048 2.62062073 18.19918823 C2.55512354 21.1743821 2.49623948 24.14966577 2.4375 27.125 C2.39431494 29.13933228 2.35070066 31.15365541 2.30664062 33.16796875 C2.19944197 38.11188663 2.09817499 43.05589503 2 48 C1.34 48 0.68 48 0 48 C0 32.16 0 16.32 0 0 Z " fill="#576D9A" transform="translate(295,46)"/>
<path d="M0 0 C2.13870239 -0.36076355 2.13870239 -0.36076355 4.81689453 -0.34057617 C5.83178955 -0.34021362 6.84668457 -0.33985107 7.89233398 -0.33947754 C8.96169189 -0.32412964 10.0310498 -0.30878174 11.1328125 -0.29296875 C12.60415649 -0.28843689 12.60415649 -0.28843689 14.10522461 -0.28381348 C17.7785897 -0.26808627 21.45180513 -0.22620246 25.125 -0.1875 C37.438125 -0.0946875 37.438125 -0.0946875 50 0 C49.67 16.5 49.34 33 49 50 C64.84 50 80.68 50 97 50 C97 34.82 97 19.64 97 4 C97.33 4 97.66 4 98 4 C98 19.51 98 35.02 98 51 C81.5 51 65 51 48 51 C48 35.16 48 19.32 48 3 C31.5 3 15 3 -2 3 C-1.34 2.01 -0.68 1.02 0 0 Z " fill="#D5C554" transform="translate(347,286)"/>
<path d="M0 0 C16.5 0 33 0 50 0 C50 16.5 50 33 50 50 C65.84 50 81.68 50 98 50 C98 50.33 98 50.66 98 51 C81.83 51 65.66 51 49 51 C47.82440785 48.6488157 47.84483537 47.17282086 47.79467773 44.55029297 C47.77449585 43.61660889 47.75431396 42.6829248 47.73352051 41.72094727 C47.71704468 40.73795654 47.70056885 39.75496582 47.68359375 38.7421875 C47.66494263 37.83992432 47.6462915 36.93766113 47.6270752 36.00805664 C47.55866234 32.63047281 47.49858723 29.25272426 47.4375 25.875 C47.2209375 14.551875 47.2209375 14.551875 47 3 C31.82 2.67 16.64 2.34 1 2 C0.67 1.34 0.34 0.68 0 0 Z " fill="#BF2D2E" transform="translate(395,143)"/>
<path d="M0 0 C1.32 0 2.64 0 4 0 C4 30.69 4 61.38 4 93 C-11.18 93 -26.36 93 -42 93 C-42 92.67 -42 92.34 -42 92 C-27.48 92 -12.96 92 2 92 C1.85123038 76.05268551 1.85123038 76.05268551 1.69335938 60.10546875 C1.6269814 53.60467838 1.56168677 47.10388939 1.50268555 40.60302734 C1.45507046 35.36401443 1.40272869 30.12506841 1.34705925 24.8861351 C1.32662274 22.88380466 1.30791184 20.88145586 1.29092598 18.87909317 C1.26691065 16.08225088 1.2368522 13.28553575 1.20532227 10.48876953 C1.19668907 9.23720566 1.19668907 9.23720566 1.18788147 7.96035767 C1.23585365 3.84759131 1.23585365 3.84759131 0 0 Z " fill="#DA2A2B" transform="translate(490,194)"/>
<path d="M0 0 C2.4708317 3.70624754 2.34811897 6.65143095 2.4140625 10.94921875 C2.43170654 11.63423462 2.44935059 12.31925049 2.4675293 13.02502441 C2.53049845 15.57894608 2.57675282 18.1332578 2.625 20.6875 C2.74875 26.400625 2.8725 32.11375 3 38 C26.265 38.495 26.265 38.495 50 39 C50 39.33 50 39.66 50 40 C34.16 40.33 18.32 40.66 2 41 C1.67 56.51 1.34 72.02 1 88 C0.67 88 0.34 88 0 88 C-0.62156528 65.2715398 -1.10366928 42.55031819 -1.125 19.8125 C-1.12749756 18.86627777 -1.12999512 17.92005554 -1.13256836 16.94515991 C-1.13838101 14.28241163 -1.13702129 11.61978037 -1.1328125 8.95703125 C-1.13479645 8.16120636 -1.1367804 7.36538147 -1.13882446 6.54544067 C-1.11536695 1.11536695 -1.11536695 1.11536695 0 0 Z " fill="#A7A8A8" transform="translate(93,297)"/>
<path d="M0 0 C0.33 0 0.66 0 1 0 C1 15.84 1 31.68 1 48 C17.5 48 34 48 51 48 C51 48.33 51 48.66 51 49 C34.5 49 18 49 1 49 C1 64.84 1 80.68 1 97 C0.34 97 -0.32 97 -1 97 C-1.01030746 96.42814972 -1.02061493 95.85629944 -1.03123474 95.26712036 C-1.13918315 89.33014214 -1.25379042 83.39331929 -1.37231445 77.45654297 C-1.41570078 75.23912803 -1.45737308 73.02167888 -1.49731445 70.80419922 C-1.55492754 67.62196528 -1.61864764 64.43990416 -1.68359375 61.2578125 C-1.70030624 60.26194122 -1.71701874 59.26606995 -1.73423767 58.24002075 C-1.75418289 57.31921722 -1.77412811 56.3984137 -1.79467773 55.44970703 C-1.81022202 54.6369632 -1.8257663 53.82421936 -1.84178162 52.98684692 C-1.88102414 50.92561733 -1.88102414 50.92561733 -3 49 C-2.01 49 -1.02 49 0 49 C0 32.83 0 16.66 0 0 Z " fill="#505153" transform="translate(144,240)"/>
<path d="M0 0 C0.66 0 1.32 0 2 0 C3.04798568 7.49712829 2.94194559 14.69501188 2.5234375 22.2265625 C2.08532576 31.0806746 1.92724436 39.90499888 1.97265625 48.76953125 C1.97820023 49.92181717 1.9837442 51.07410309 1.98945618 52.26130676 C2.01691814 56.99712265 2.05262236 61.73280857 2.09594727 66.46850586 C2.12591444 69.98551936 2.14380751 73.50243208 2.16015625 77.01953125 C2.17361588 78.09636673 2.1870755 79.17320221 2.20094299 80.28266907 C2.20432175 81.26938095 2.2077005 82.25609283 2.21118164 83.27270508 C2.21863907 84.14043045 2.2260965 85.00815582 2.23377991 85.9021759 C2 88 2 88 0 90 C0 60.3 0 30.6 0 0 Z " fill="#141515" transform="translate(544,195)"/>
<path d="M0 0 C0.33 0 0.66 0 1 0 C1.33 15.18 1.66 30.36 2 46 C9.6107588 45.96119393 9.6107588 45.96119393 17.22143555 45.90991211 C27.8731574 45.88339614 38.30601028 46.49076239 49 47 C49 31.49 49 15.98 49 0 C49.33 0 49.66 0 50 0 C50 15.84 50 31.68 50 48 C33.5 48 17 48 0 48 C0 32.16 0 16.32 0 0 Z " fill="#121724" transform="translate(345,46)"/>
<path d="M0 0 C3.96 0 7.92 0 12 0 C12 16.17 12 32.34 12 49 C-4.5 49 -21 49 -38 49 C-38 48.34 -38 47.68 -38 47 C-21.83 46.67 -5.66 46.34 11 46 C11 31.15 11 16.3 11 1 C7.37 1 3.74 1 0 1 C0 0.67 0 0.34 0 0 Z " fill="#526470" transform="translate(383,94)"/>
<path d="M0 0 C16.5 0 33 0 50 0 C50 9.24 50 18.48 50 28 C49.67 28 49.34 28 49 28 C49 19.42 49 10.84 49 2 C48.01 2.33 47.02 2.66 46 3 C44.60344541 3.08589303 43.20314223 3.11772715 41.80395508 3.11352539 C40.96331009 3.11344986 40.1226651 3.11337433 39.25654602 3.11329651 C38.35333115 3.10813522 37.45011627 3.10297394 36.51953125 3.09765625 C35.59154221 3.0962413 34.66355316 3.09482635 33.70744324 3.09336853 C30.74242942 3.08776937 27.77749101 3.07521704 24.8125 3.0625 C22.80273547 3.05748489 20.79296975 3.052922 18.78320312 3.04882812 C13.85543968 3.03780021 8.92773263 3.02053617 4 3 C3.01 6.3 2.02 9.6 1 13 C0.67 13 0.34 13 0 13 C0 8.71 0 4.42 0 0 Z " fill="#C0C3C5" transform="translate(145,192)"/>
<path d="M0 0 C0.70072128 -0.00095673 1.40144257 -0.00191345 2.12339783 -0.00289917 C3.60692433 -0.00357862 5.09045384 -0.0017407 6.57397461 0.00244141 C8.80785094 0.00773666 11.04152099 0.00251789 13.27539062 -0.00390625 C14.72526085 -0.00324433 16.17513095 -0.00196083 17.625 0 C18.92445557 0.00112793 20.22391113 0.00225586 21.56274414 0.00341797 C26.64583577 0.15947651 31.71274211 0.67239417 36.77734375 1.1328125 C36.77734375 15.9828125 36.77734375 30.8328125 36.77734375 46.1328125 C35.45734375 45.8028125 34.13734375 45.4728125 32.77734375 45.1328125 C33.10331543 44.48481689 33.42928711 43.83682129 33.76513672 43.16918945 C35.06562996 39.26802341 35.02616292 35.61214657 34.97265625 31.55078125 C34.96841141 30.32951286 34.96841141 30.32951286 34.96408081 29.08357239 C34.95292959 26.4956665 34.92783458 23.90811292 34.90234375 21.3203125 C34.8923074 19.56055189 34.88318269 17.80078583 34.875 16.04101562 C34.85300685 11.73814652 34.81851211 7.43553914 34.77734375 3.1328125 C30.36069087 3.10379082 25.94406252 3.08600642 21.52734375 3.0703125 C20.27308594 3.06193359 19.01882813 3.05355469 17.7265625 3.04492188 C16.52128906 3.04169922 15.31601562 3.03847656 14.07421875 3.03515625 C12.96401367 3.02991943 11.85380859 3.02468262 10.70996094 3.01928711 C8.20576996 3.11622757 6.15922815 3.40050974 3.77734375 4.1328125 C3.77734375 3.4728125 3.77734375 2.8128125 3.77734375 2.1328125 C3.13796875 2.2978125 2.49859375 2.4628125 1.83984375 2.6328125 C-2.19852277 3.29213765 -6.14072883 3.21285029 -10.22265625 3.1328125 C-10.55265625 2.4728125 -10.88265625 1.8128125 -11.22265625 1.1328125 C-7.47805163 -0.05615703 -3.90872855 0.00341352 0 0 Z " fill="#4F6893" transform="translate(357.22265625,93.8671875)"/>
<path d="M0 0 C16.17 0 32.34 0 49 0 C48.67 0.66 48.34 1.32 48 2 C32.82 2.33 17.64 2.66 2 3 C1.67 17.85 1.34 32.7 1 48 C0.67 48 0.34 48 0 48 C0 32.16 0 16.32 0 0 Z " fill="#E4E175" transform="translate(345,143)"/>
<path d="M0 0 C0.66 0 1.32 0 2 0 C2.97607081 31.37591784 2.91893069 62.62299706 2 94 C1.67 94 1.34 94 1 94 C1 78.16 1 62.32 1 46 C0.34 45.67 -0.32 45.34 -1 45 C-0.67 30.15 -0.34 15.3 0 0 Z " fill="#5E626C" transform="translate(293,0)"/>
<path d="M0 0 C16.17 0 32.34 0 49 0 C49 15.51 49 31.02 49 47 C48.67 47 48.34 47 48 47 C48 31.82 48 16.64 48 1 C44.37 1.66 40.74 2.32 37 3 C36.01 2.67 35.02 2.34 34 2 C31.5589224 1.9154613 29.14740787 1.88394214 26.70703125 1.90234375 C26.00100266 1.9037587 25.29497406 1.90517365 24.56755066 1.90663147 C22.31582374 1.91222236 20.06419679 1.92477312 17.8125 1.9375 C16.28450665 1.94251618 14.75651173 1.94707888 13.22851562 1.95117188 C9.48560772 1.9613373 5.74291557 1.98091431 2 2 C2 7.28 2 12.56 2 18 C1.34 18.33 0.68 18.66 0 19 C0 12.73 0 6.46 0 0 Z " fill="#120705" transform="translate(446,290)"/>
<path d="M0 0 C0.33 0 0.66 0 1 0 C1 11.88 1 23.76 1 36 C1.66 36 2.32 36 3 36 C3.33 35.34 3.66 34.68 4 34 C4 34.66 4 35.32 4 36 C5.485 35.505 5.485 35.505 7 35 C7.99 35.33 8.98 35.66 10 36 C10 35.34 10 34.68 10 34 C13.96 34 17.92 34 22 34 C22.33 33.34 22.66 32.68 23 32 C23.33 33.32 23.66 34.64 24 36 C28.455 35.505 28.455 35.505 33 35 C33.33 35.66 33.66 36.32 34 37 C22.78 37 11.56 37 0 37 C0 24.79 0 12.58 0 0 Z " fill="#080B15" transform="translate(295,8)"/>
<path d="M0 0 C16.17 0 32.34 0 49 0 C49 0.33 49 0.66 49 1 C43.90807713 2.03485633 39.05052659 2.13009967 33.8828125 2.09765625 C33.02565643 2.0962413 32.16850037 2.09482635 31.28536987 2.09336853 C28.5652101 2.08780022 25.84513462 2.07525364 23.125 2.0625 C21.27343869 2.0574809 19.42187609 2.05291871 17.5703125 2.04882812 C13.04684285 2.03784117 8.52343568 2.02059852 4 2 C4 2.66 4 3.32 4 4 C3.34 4.66 2.68 5.32 2 6 C2.165 6.5775 2.33 7.155 2.5 7.75 C3.20341348 10.91536066 2.1462235 13.03330387 1 16 C0.67 16 0.34 16 0 16 C0 10.72 0 5.44 0 0 Z " fill="#6F7172" transform="translate(95,387)"/>
<path d="M0 0 C5.83495783 -0.02483449 11.66988446 -0.04292349 17.50488281 -0.05493164 C19.48731014 -0.05994103 21.46973382 -0.0667504 23.45214844 -0.07543945 C26.31185818 -0.08765429 29.1715188 -0.09326239 32.03125 -0.09765625 C32.90865845 -0.10281754 33.78606689 -0.10797882 34.69006348 -0.11329651 C35.53033081 -0.11337204 36.37059814 -0.11344757 37.23632812 -0.11352539 C37.96468872 -0.115746 38.69304932 -0.11796661 39.44348145 -0.12025452 C42.97817072 0.04601158 46.48872793 0.56109099 50 1 C50 9.91 50 18.82 50 28 C49.67 28 49.34 28 49 28 C49 19.42 49 10.84 49 2 C45.94010417 2.29296875 42.88020833 2.5859375 39.8203125 2.87890625 C36.05281595 2.99832587 32.56703901 2.69276118 28.83251953 2.27368164 C23.36140076 1.74505518 17.86653523 1.62422444 12.375 1.4375 C10.58255859 1.37272461 10.58255859 1.37272461 8.75390625 1.30664062 C5.83602594 1.20159693 2.91807562 1.09944352 0 1 C0 0.67 0 0.34 0 0 Z " fill="#131414" transform="translate(395,94)"/>
<path d="M0 0 C0.33 0 0.66 0 1 0 C1.33 7.26 1.66 14.52 2 22 C17.51 22 33.02 22 49 22 C43.91535825 25.38976117 37.78925397 24.58516093 31.8125 24.75 C31.12469452 24.77190399 30.43688904 24.79380798 29.72824097 24.81637573 C16.72048814 25.21436582 3.93145922 24.50734801 -9 23 C-9 22.34 -9 21.68 -9 21 C-6.03 21.33 -3.06 21.66 0 22 C0 14.74 0 7.48 0 0 Z " fill="#282122" transform="translate(494,168)"/>
<path d="M0 0 C14.02981156 -0.14733758 27.98842972 0.28930926 42 1 C42 1.66 42 2.32 42 3 C28.14 3 14.28 3 0 3 C0 2.01 0 1.02 0 0 Z " fill="#A8A8A9" transform="translate(47,580)"/>
<path d="M0 0 C0.33 0 0.66 0 1 0 C1 9.57 1 19.14 1 29 C-8.9 29 -18.8 29 -29 29 C-29 28.34 -29 27.68 -29 27 C-20.09 27 -11.18 27 -2 27 C-1.20156887 22.20941323 -0.86542777 18.12254658 -0.875 13.3125 C-0.87242187 12.00925781 -0.86984375 10.70601562 -0.8671875 9.36328125 C-0.84339766 6.0055601 -0.84339766 6.0055601 -2 3 C-1.34 2.01 -0.68 1.02 0 0 Z " fill="#496A99" transform="translate(341,160)"/>
<path d="M0 0 C1.51815699 0.00015911 3.0363194 0.00585313 4.55444336 0.01586914 C5.35208603 0.01728409 6.1497287 0.01869904 6.97154236 0.02015686 C9.52916146 0.02577223 12.08669429 0.03832727 14.64428711 0.05102539 C16.37410356 0.05603841 18.10392137 0.06060166 19.83374023 0.06469727 C24.08312264 0.07574664 28.33244023 0.09302153 32.58178711 0.11352539 C32.58178711 0.44352539 32.58178711 0.77352539 32.58178711 1.11352539 C32.01258545 1.16887451 31.44338379 1.22422363 30.85693359 1.28125 C28.24422487 1.53623254 25.63175743 1.79361217 23.01928711 2.05102539 C21.67640625 2.18154297 21.67640625 2.18154297 20.30639648 2.31469727 C15.37632073 2.80228718 10.48513481 3.39884227 5.58178711 4.11352539 C-0.86322568 4.54319291 -0.86322568 4.54319291 -3.35571289 2.61352539 C-3.88165039 1.87102539 -3.88165039 1.87102539 -4.41821289 1.11352539 C-3.41821289 0.11352539 -3.41821289 0.11352539 0 0 Z " fill="#8E9091" transform="translate(99.418212890625,288.886474609375)"/>
<path d="M0 0 C0.66 0 1.32 0 2 0 C3.48449564 11.03094451 2.68580531 21.93380813 2 33 C1.34 32.67 0.68 32.34 0 32 C0 21.44 0 10.88 0 0 Z " fill="#4A4A4A" transform="translate(544,195)"/>
<path d="M0 0 C10.56 0 21.12 0 32 0 C32 0.33 32 0.66 32 1 C23.75 1 15.5 1 7 1 C6.67 1.66 6.34 2.32 6 3 C6 2.34 6 1.68 6 1 C3.77123226 2.29898394 3.77123226 2.29898394 2 5 C1.63910552 8.68855385 1.77066541 12.3051649 2 16 C1.67 16 1.34 16 1 16 C-0.17566272 10.4156021 0 6.01330943 0 0 Z " fill="#6F7173" transform="translate(295,386)"/>
<path d="M0 0 C1.98 0 3.96 0 6 0 C6 14.85 6 29.7 6 45 C4.68 44.67 3.36 44.34 2 44 C2.32597168 43.35200439 2.65194336 42.70400879 2.98779297 42.03637695 C4.28828621 38.13521091 4.24881917 34.47933407 4.1953125 30.41796875 C4.1924826 29.60378983 4.18965271 28.7896109 4.18673706 27.95075989 C4.17558584 25.362854 4.15049083 22.77530042 4.125 20.1875 C4.11496365 18.42773939 4.10583894 16.66797333 4.09765625 14.90820312 C4.0756631 10.60533402 4.04116836 6.30272664 4 2 C2.68 1.34 1.36 0.68 0 0 Z " fill="#586E9A" transform="translate(388,95)"/>
<path d="M0 0 C0.33 0 0.66 0 1 0 C1 8.58 1 17.16 1 26 C-0.32 25.67 -1.64 25.34 -3 25 C-2.34 25 -1.68 25 -1 25 C-1.144375 23.72125 -1.28875 22.4425 -1.4375 21.125 C-1.55931641 20.04605469 -1.55931641 20.04605469 -1.68359375 18.9453125 C-1.91292961 16.92595684 -1.91292961 16.92595684 -3 15 C-2.34 14.01 -1.68 13.02 -1 12 C-1.33 11.67 -1.66 11.34 -2 11 C-1.93621032 9.32987017 -1.79971885 7.66219015 -1.625 6 C-1.53476562 5.0925 -1.44453125 4.185 -1.3515625 3.25 C-1 1 -1 1 0 0 Z " fill="#0E0B02" transform="translate(293,214)"/>
<path d="M0 0 C2.31 0 4.62 0 7 0 C6.38125 0.268125 5.7625 0.53625 5.125 0.8125 C2.7004767 1.95556848 2.7004767 1.95556848 1 5 C0.67478946 6.99593196 0.67478946 6.99593196 0.68115234 9.19604492 C0.66128265 10.03668991 0.64141296 10.8773349 0.62094116 11.74345398 C0.60938995 12.64666885 0.59783875 13.54988373 0.5859375 14.48046875 C0.56657135 15.40845779 0.5472052 16.33644684 0.5272522 17.29255676 C0.46745756 20.25744425 0.42107145 23.22237057 0.375 26.1875 C0.33682012 28.19728259 0.29776838 30.20704881 0.2578125 32.21679688 C0.16175607 37.14439842 0.07772451 42.07207658 0 47 C-0.33 47 -0.66 47 -1 47 C-1.02529825 40.62793828 -1.04284496 34.25588946 -1.05493164 27.88378906 C-1.05996891 25.71483883 -1.06679891 23.545892 -1.07543945 21.37695312 C-1.08753151 18.26431437 -1.09323428 15.1517204 -1.09765625 12.0390625 C-1.10281754 11.065065 -1.10797882 10.0910675 -1.11329651 9.08755493 C-1.11337204 8.18677216 -1.11344757 7.28598938 -1.11352539 6.35791016 C-1.115746 5.56293121 -1.11796661 4.76795227 -1.12025452 3.94888306 C-1 2 -1 2 0 0 Z " fill="#5672A5" transform="translate(297,47)"/>
<path d="M0 0 C13.2 0 26.4 0 40 0 C40 0.33 40 0.66 40 1 C32.13593905 1.87465226 24.40741484 2.09810688 16.5 2 C14.38546751 1.9745237 12.27087558 1.95347954 10.15625 1.9375 C9.23650391 1.92589844 8.31675781 1.91429687 7.36914062 1.90234375 C4.84831303 1.89673577 4.84831303 1.89673577 2 3 C2 2.34 2 1.68 2 1 C1.34 0.67 0.68 0.34 0 0 Z " fill="#FBDC39" transform="translate(395,242)"/>
<path d="M0 0 C0.33 0 0.66 0 1 0 C1 7.92 1 15.84 1 24 C0.34 24.33 -0.32 24.66 -1 25 C-2.9093357 16.78221914 -2.95564344 7.94329175 0 0 Z " fill="#0D0900" transform="translate(243,136)"/>
<path d="M0 0 C5.61 0 11.22 0 17 0 C16.67 1.32 16.34 2.64 16 4 C15.21882813 3.76990234 15.21882813 3.76990234 14.421875 3.53515625 C11.36721485 2.86017489 8.36984029 2.65588882 5.25 2.4375 C4.07953125 2.35371094 2.9090625 2.26992188 1.703125 2.18359375 C0.81109375 2.12300781 -0.0809375 2.06242187 -1 2 C-0.67 1.34 -0.34 0.68 0 0 Z " fill="#0E0F0E" transform="translate(377,46)"/>
<path d="M0 0 C7.26 0 14.52 0 22 0 C22 0.33 22 0.66 22 1 C19.03 1 16.06 1 13 1 C12.67 1.99 12.34 2.98 12 4 C12 3.01 12 2.02 12 1 C11.01 1 10.02 1 9 1 C9 1.66 9 2.32 9 3 C8.01 3.33 7.02 3.66 6 4 C5.34 3.34 4.68 2.68 4 2 C2.68 1.34 1.36 0.68 0 0 Z " fill="#EBEBE9" transform="translate(345,338)"/>
<path d="M0 0 C3.96 0 7.92 0 12 0 C12 1.32 12 2.64 12 4 C7.71 3.34 3.42 2.68 -1 2 C-0.67 1.34 -0.34 0.68 0 0 Z " fill="#121000" transform="translate(282,192)"/>
<path d="M0 0 C3.63 0 7.26 0 11 0 C11 0.66 11 1.32 11 2 C6.98195309 2.84098656 3.98196457 3.05404945 0 2 C0 1.34 0 0.68 0 0 Z " fill="#0D0802" transform="translate(319,241)"/>
<path d="M0 0 C0.33 0 0.66 0 1 0 C1 3.96 1 7.92 1 12 C0.34 12 -0.32 12 -1 12 C-2.11658501 7.31034294 -1.80619523 4.46236469 0 0 Z " fill="#0E0B00" transform="translate(243,171)"/>
<path d="M0 0 C0.33 0 0.66 0 1 0 C1.19493195 2.27020744 1.38070418 4.54120289 1.5625 6.8125 C1.66691406 8.07707031 1.77132812 9.34164063 1.87890625 10.64453125 C2 14 2 14 1 17 C0.01 16.67 -0.98 16.34 -2 16 C-1.67 15.34 -1.34 14.68 -1 14 C-0.76970044 11.62876754 -0.58880058 9.25258057 -0.4375 6.875 C-0.35371094 5.59367187 -0.26992187 4.31234375 -0.18359375 2.9921875 C-0.09271484 1.51105469 -0.09271484 1.51105469 0 0 Z " fill="#4B4B4C" transform="translate(94,276)"/>
<path d="M0 0 C2.97 0 5.94 0 9 0 C9 0.66 9 1.32 9 2 C4.545 2.495 4.545 2.495 0 3 C0 2.01 0 1.02 0 0 Z " fill="#919196" transform="translate(47,580)"/>
<path d="M0 0 C2 2 2 2 2 4 C-0.64 4 -3.28 4 -6 4 C-5.67 3.01 -5.34 2.02 -5 1 C-2.625 0.375 -2.625 0.375 0 0 Z " fill="#0E0D0F" transform="translate(281,236)"/>
</svg>
