<?xml version="1.0" encoding="UTF-8"?>
<svg version="1.1" xmlns="http://www.w3.org/2000/svg" width="521" height="479">
<path d="M0 0 C1.41315491 -0.00639748 1.41315491 -0.00639748 2.8548584 -0.01292419 C3.88147583 -0.01247101 4.90809326 -0.01201782 5.96582031 -0.0115509 C7.59565857 -0.01658882 7.59565857 -0.01658882 9.25842285 -0.02172852 C12.8536086 -0.03123523 16.44874778 -0.03318135 20.04394531 -0.03425598 C22.53971374 -0.03746823 25.03548197 -0.04083228 27.53125 -0.04434204 C32.76334943 -0.05033224 37.99543702 -0.05222479 43.22753906 -0.05158997 C49.27376845 -0.05098878 55.31990874 -0.0615506 61.36611557 -0.07733363 C67.18601851 -0.09198409 73.00588614 -0.0955781 78.82580566 -0.09498024 C81.30098841 -0.09616236 83.77617177 -0.10059705 86.25134277 -0.10831261 C89.70832784 -0.11808137 93.16508173 -0.11524692 96.62207031 -0.10920715 C97.64868774 -0.11482666 98.67530518 -0.12044617 99.73303223 -0.12623596 C101.14618713 -0.11994423 101.14618713 -0.11994423 102.58789062 -0.11352539 C103.40493469 -0.11407016 104.22197876 -0.11461493 105.06378174 -0.1151762 C107.29394531 0.13371277 107.29394531 0.13371277 111.29394531 2.13371277 C111.29394531 14.34371277 111.29394531 26.55371277 111.29394531 39.13371277 C114.02546875 39.12211121 116.75699219 39.11050964 119.57128906 39.09855652 C122.2056466 39.09076635 124.84000288 39.08468936 127.47436523 39.07878113 C129.31063406 39.07374045 131.14689885 39.066908 132.9831543 39.05827332 C135.61670933 39.04619605 138.25021148 39.04048196 140.88378906 39.03605652 C141.70983139 39.03089523 142.53587372 39.02573395 143.38694763 39.02041626 C145.35630899 39.02022072 147.32556145 39.07167125 149.29394531 39.13371277 C150.29394531 40.13371277 150.29394531 40.13371277 150.4074707 43.64372253 C150.40731158 45.20419699 150.40161674 46.7646767 150.39160156 48.32511902 C150.38947914 49.55487709 150.38947914 49.55487709 150.38731384 50.80947876 C150.3816982 53.43842659 150.36914311 56.0672905 150.35644531 58.69621277 C150.35143232 60.47420633 150.34686907 62.25220123 150.34277344 64.03019714 C150.3317237 68.39806822 150.31444863 72.76587625 150.29394531 77.13371277 C151.9516394 77.11014709 151.9516394 77.11014709 153.64282227 77.08610535 C157.74089273 77.0318272 161.83893138 76.99737053 165.93725586 76.96891785 C167.71139874 76.95382635 169.4855043 76.93335086 171.25952148 76.90739441 C173.80885018 76.87102636 176.3576859 76.85399039 178.90722656 76.84074402 C179.70107254 76.82526016 180.49491852 76.80977631 181.31282043 76.79382324 C184.22710365 76.79293152 186.66389401 76.8171534 189.29980469 78.14152527 C190.92487352 81.39804826 190.65820811 84.74720377 190.58691406 88.30168152 C190.58266922 89.09649429 190.57842438 89.89130707 190.5740509 90.71020508 C190.55726462 93.24755298 190.51961355 95.78410515 190.48144531 98.32121277 C190.46639836 100.04190442 190.45270997 101.76260852 190.44042969 103.48332214 C190.40736139 107.70042539 190.35558026 111.91693419 190.29394531 116.13371277 C191.34799561 115.89032166 191.34799561 115.89032166 192.42333984 115.64201355 C195.4185828 115.11164309 198.18324544 115.00426725 201.22363281 115.00090027 C202.34898437 114.99961121 203.47433594 114.99832214 204.63378906 114.99699402 C205.80039062 115.00086121 206.96699219 115.00472839 208.16894531 115.00871277 C209.3278125 115.00484558 210.48667969 115.00097839 211.68066406 114.99699402 C227.1749343 115.01470176 227.1749343 115.01470176 229.29394531 117.13371277 C229.39420226 119.50132852 229.43013467 121.8397835 229.42333984 124.20793152 C229.42596832 125.31764816 229.42596832 125.31764816 229.4286499 126.44978333 C229.43306841 128.90695 229.43013044 131.3640453 229.42675781 133.82121277 C229.42743085 135.52132684 229.42840088 137.22144082 229.42965698 138.92155457 C229.43113395 142.48935357 229.42897943 146.05712759 229.42431641 149.62492371 C229.41861912 154.20859771 229.42189812 158.79221316 229.42788887 163.37588501 C229.43149451 166.88790837 229.43035589 170.39991775 229.42776108 173.91194153 C229.42709182 175.6025137 229.42792021 177.29308712 229.43024063 178.98365784 C229.4327672 181.34230434 229.42892653 183.70085472 229.42333984 186.05949402 C229.42536407 186.76498383 229.42738831 187.47047363 229.42947388 188.19734192 C229.40820802 193.01945006 229.40820802 193.01945006 228.29394531 194.13371277 C220.28745792 195.36880198 212.31629732 195.2480132 204.23144531 195.19621277 C202.87532718 195.1911859 201.51920724 195.1866251 200.16308594 195.18254089 C196.87332537 195.17083356 193.58365938 195.15443487 190.29394531 195.13371277 C190.30441895 196.17825623 190.31489258 197.22279968 190.32568359 198.29899597 C190.36187704 202.17347284 190.38484336 206.04793476 190.40380859 209.92253113 C190.41386768 211.59964002 190.42751653 213.27673138 190.44482422 214.95378113 C190.46907683 217.36406279 190.48042921 219.77411262 190.48925781 222.18449402 C190.49958038 222.93459244 190.50990295 223.68469086 190.52053833 224.45751953 C190.52135331 228.23672056 190.44451599 229.90785676 188.29394531 233.13371277 C185.38559647 233.4003146 182.69256263 233.48150401 179.78613281 233.42668152 C178.945513 233.42243668 178.10489319 233.41819183 177.23880005 233.41381836 C174.54852538 233.39699809 171.85899432 233.35934058 169.16894531 233.32121277 C167.34734153 233.30617022 165.52572603 233.29248107 163.70410156 233.28019714 C159.23353112 233.24963262 154.76457247 233.19091985 150.29394531 233.13371277 C150.29394531 245.34371277 150.29394531 257.55371277 150.29394531 270.13371277 C147.06748073 271.74694506 143.54732582 271.2543484 140.00488281 271.23136902 C139.27954346 271.23036194 138.5542041 271.22935486 137.80688477 271.22831726 C135.09422223 271.22308046 132.3815822 271.20911921 129.66894531 271.19621277 C120.57332031 271.16527527 120.57332031 271.16527527 111.29394531 271.13371277 C111.29394531 283.34371277 111.29394531 295.55371277 111.29394531 308.13371277 C106.30101786 309.79802192 102.59280376 310.46244463 97.48925781 310.54777527 C96.40328812 310.57682449 96.40328812 310.57682449 95.29537964 310.60646057 C93.00335133 310.66581163 90.71127157 310.71246155 88.41894531 310.75871277 C86.8564245 310.79693363 85.29392383 310.83598771 83.73144531 310.87590027 C79.91911066 310.97147584 76.10667751 311.05566882 72.29394531 311.13371277 C72.27936279 312.18349304 72.26478027 313.23327332 72.24975586 314.31486511 C72.19186539 318.20274751 72.11463325 322.09004503 72.03149414 325.97746277 C71.99820096 327.66128562 71.97018275 329.34522125 71.94750977 331.02922058 C71.91404326 333.44735363 71.86173495 335.86444901 71.80566406 338.28215027 C71.79927414 339.03740997 71.79288422 339.79266968 71.78630066 340.57081604 C71.72631836 342.69377136 71.72631836 342.69377136 71.29394531 346.13371277 C67.50552059 348.65932925 64.50861202 348.3876285 60.12597656 348.32902527 C58.9337574 348.32478043 58.9337574 348.32478043 57.717453 348.32044983 C55.18029693 348.30925982 52.64349459 348.28415768 50.10644531 348.25871277 C48.38574729 348.24868143 46.66504373 348.23955585 44.94433594 348.23136902 C40.72740288 348.20932437 36.51073406 348.17480283 32.29394531 348.13371277 C32.30965576 349.21378601 32.32536621 350.29385925 32.34155273 351.40666199 C32.39576765 355.40593537 32.43026435 359.40517615 32.45874023 363.40470886 C32.47384622 365.13718626 32.49433225 366.86962531 32.52026367 368.60197449 C32.55656852 371.08921255 32.57365297 373.57594603 32.58691406 376.06340027 C32.60239792 376.84053375 32.61788177 377.61766724 32.63383484 378.41835022 C32.63452148 380.60197449 32.63452148 380.60197449 32.29394531 384.13371277 C28.59011477 386.60293313 25.78277899 386.41020447 21.49899292 386.38095093 C20.69675895 386.38336534 19.89452498 386.38577976 19.06798089 386.38826734 C16.37092221 386.39391806 13.67409894 386.38523095 10.97705078 386.37663269 C9.04722021 386.37770522 7.11738996 386.37964346 5.18756104 386.38238525 C-0.06012667 386.38724081 -5.3077296 386.37956952 -10.55540705 386.36943221 C-16.03757796 386.36066549 -21.51974611 386.36240887 -27.00192261 386.36279297 C-36.20718815 386.36185584 -45.41242076 386.3531645 -54.61767578 386.33952332 C-65.27580949 386.32378797 -75.93390714 386.3185255 -86.59205163 386.31925887 C-96.82814609 386.31986819 -107.06422875 386.31477216 -117.30031967 386.30646706 C-121.6647539 386.30292728 -126.02918395 386.30110282 -130.39361954 386.30057335 C-135.52680797 386.29957235 -140.65996586 386.29349576 -145.79314423 386.28340721 C-147.68264199 386.28047464 -149.57214327 386.27925836 -151.46164322 386.27983475 C-154.02948498 386.28032184 -156.59723986 386.27470555 -159.16506958 386.26742554 C-159.92273625 386.26897414 -160.68040291 386.27052274 -161.46102917 386.27211827 C-166.59187596 386.24789149 -166.59187596 386.24789149 -167.70605469 385.13371277 C-167.79464114 382.39477192 -167.82128948 379.68118007 -167.80371094 376.94230652 C-167.80229599 376.1224678 -167.80088104 375.30262909 -167.79942322 374.45794678 C-167.79380758 371.82899895 -167.78125248 369.20013503 -167.76855469 366.57121277 C-167.7635417 364.7932192 -167.75897844 363.01522431 -167.75488281 361.23722839 C-167.74383307 356.86935732 -167.726558 352.50154929 -167.70605469 348.13371277 C-169.47033813 348.14156799 -169.47033813 348.14156799 -171.27026367 348.14958191 C-175.618075 348.1676294 -179.96588299 348.17914385 -184.3137207 348.18864441 C-186.19849198 348.19368521 -188.08325933 348.20051775 -189.96801758 348.20915222 C-192.67107105 348.22122894 -195.374073 348.22694345 -198.07714844 348.23136902 C-198.92506454 348.2365303 -199.77298065 348.24169159 -200.64659119 348.24700928 C-202.66676537 348.24720472 -204.68683403 348.19577487 -206.70605469 348.13371277 C-207.70605469 347.13371277 -207.70605469 347.13371277 -207.81958008 343.53190613 C-207.81942094 341.9291142 -207.81372532 340.32631716 -207.80371094 338.72355652 C-207.80229599 337.88152176 -207.80088104 337.039487 -207.79942322 336.17193604 C-207.79380732 333.47165942 -207.78125217 330.77146449 -207.76855469 328.07121277 C-207.76354173 326.24504209 -207.75897847 324.41887011 -207.75488281 322.59269714 C-207.74383273 318.10633735 -207.72655748 313.62003893 -207.70605469 309.13371277 C-208.30966324 309.16667953 -208.91327179 309.1996463 -209.53517151 309.23361206 C-227.34484805 310.20210908 -227.34484805 310.20210908 -234.51855469 310.32121277 C-235.370625 310.33539246 -236.22269531 310.34957214 -237.10058594 310.36418152 C-240.45302394 310.06763903 -243.48497705 309.08502526 -246.70605469 308.13371277 C-247.71682312 296.47418811 -247.8609855 284.87075634 -247.83642578 273.17277527 C-247.8310638 270.13887029 -247.83640381 267.10511329 -247.84277344 264.07121277 C-247.8543789 239.33845492 -247.8543789 239.33845492 -246.70605469 232.13371277 C-243.48001924 230.52069504 -239.95895431 231.01317678 -236.41699219 231.03605652 C-235.18935654 231.03817894 -235.18935654 231.03817894 -233.93692017 231.04034424 C-231.31826144 231.04594987 -228.69968765 231.05850329 -226.08105469 231.07121277 C-224.30761842 231.07622704 -222.53418082 231.08079008 -220.76074219 231.08488464 C-216.40914687 231.09592113 -212.05761519 231.11318952 -207.70605469 231.13371277 C-207.7112915 229.98781677 -207.71652832 228.84192078 -207.72192383 227.66130066 C-207.73997186 223.42530595 -207.75148597 219.18931465 -207.76098633 214.95329285 C-207.766027 213.11702402 -207.77285946 211.28075923 -207.78149414 209.44450378 C-207.79357141 206.81094876 -207.7992855 204.1774466 -207.80371094 201.54386902 C-207.80887222 200.71782669 -207.81403351 199.89178436 -207.8193512 199.04071045 C-207.81954673 197.07134909 -207.7680962 195.10209663 -207.70605469 193.13371277 C-206.70605469 192.13371277 -206.70605469 192.13371277 -203.01245117 192.02018738 C-201.36734176 192.02034653 -199.72222738 192.02604288 -198.07714844 192.03605652 C-196.78080223 192.03817894 -196.78080223 192.03817894 -195.45826721 192.04034424 C-192.68666177 192.04596038 -189.91513589 192.05851558 -187.14355469 192.07121277 C-185.26920689 192.07622569 -183.39485784 192.08078896 -181.52050781 192.08488464 C-176.91565925 192.09593505 -172.31087048 192.11321047 -167.70605469 192.13371277 C-167.7112915 191.01810974 -167.71652832 189.90250671 -167.72192383 188.75309753 C-167.73997244 184.62891944 -167.75148618 180.50474486 -167.76098633 176.38053894 C-167.76602687 174.59277256 -167.77285923 172.80501032 -167.78149414 171.01725769 C-167.79357199 168.45320109 -167.79928563 165.88919879 -167.80371094 163.32511902 C-167.80887222 162.52095047 -167.81403351 161.71678192 -167.8193512 160.88824463 C-167.81954684 158.96969562 -167.76807451 157.05125909 -167.70605469 155.13371277 C-166.70605469 154.13371277 -166.70605469 154.13371277 -163.10424805 154.02018738 C-161.50145612 154.02034652 -159.89865908 154.02604213 -158.29589844 154.03605652 C-157.45386368 154.03747147 -156.61182892 154.03888641 -155.74427795 154.04034424 C-153.04400134 154.04596014 -150.34380641 154.05851528 -147.64355469 154.07121277 C-145.81738401 154.07622572 -143.99121203 154.08078898 -142.16503906 154.08488464 C-137.67867927 154.09593473 -133.19238084 154.11320998 -128.70605469 154.13371277 C-128.7112915 153.01810974 -128.71652832 151.90250671 -128.72192383 150.75309753 C-128.73997244 146.62891944 -128.75148618 142.50474486 -128.76098633 138.38053894 C-128.76602687 136.59277256 -128.77285923 134.80501032 -128.78149414 133.01725769 C-128.79357199 130.45320109 -128.79928563 127.88919879 -128.80371094 125.32511902 C-128.80887222 124.52095047 -128.81403351 123.71678192 -128.8193512 122.88824463 C-128.81954684 120.96969562 -128.76807451 119.05125909 -128.70605469 117.13371277 C-126.6240111 115.05166919 -122.17219909 115.87549985 -119.29589844 115.81730652 C-118.0328463 115.78613487 -118.0328463 115.78613487 -116.74427795 115.7543335 C-114.0441229 115.68874465 -111.34386752 115.62991001 -108.64355469 115.57121277 C-106.81737227 115.5280364 -104.99120015 115.48442241 -103.16503906 115.44035339 C-98.67881477 115.33305383 -94.19248919 115.23181311 -89.70605469 115.13371277 C-89.66847046 113.46030823 -89.66847046 113.46030823 -89.63012695 111.75309753 C-89.53622047 107.62878687 -89.43595955 103.50465127 -89.33374023 99.38053894 C-89.29032769 97.59282007 -89.2486574 95.80505803 -89.20874023 94.01725769 C-89.15119009 91.45307886 -89.08745265 88.88911865 -89.02246094 86.32511902 C-89.00574844 85.52095047 -88.98903595 84.71678192 -88.97181702 83.88824463 C-88.81992639 78.24758448 -88.81992639 78.24758448 -87.70605469 77.13371277 C-84.89442089 77.04509285 -82.10747213 77.01848922 -79.29589844 77.03605652 C-78.45386368 77.03747147 -77.61182892 77.03888641 -76.74427795 77.04034424 C-74.04400134 77.04596014 -71.34380641 77.05851528 -68.64355469 77.07121277 C-66.81738401 77.07622572 -64.99121203 77.08078898 -63.16503906 77.08488464 C-58.67867927 77.09593473 -54.19238084 77.11320998 -49.70605469 77.13371277 C-49.7112915 76.01810974 -49.71652832 74.90250671 -49.72192383 73.75309753 C-49.73997244 69.62891944 -49.75148618 65.50474486 -49.76098633 61.38053894 C-49.76602687 59.59277256 -49.77285923 57.80501032 -49.78149414 56.01725769 C-49.79357199 53.45320109 -49.79928563 50.88919879 -49.80371094 48.32511902 C-49.80887222 47.52095047 -49.81403351 46.71678192 -49.8193512 45.88824463 C-49.81954684 43.96969562 -49.76807451 42.05125909 -49.70605469 40.13371277 C-47.95843913 38.38609721 -45.50356445 38.90041784 -43.12402344 38.81730652 C-41.96322266 38.77541199 -40.80242187 38.73351746 -39.60644531 38.69035339 C-38.38119141 38.65103699 -37.1559375 38.61172058 -35.89355469 38.57121277 C-34.71083984 38.52802917 -33.528125 38.48484558 -32.30957031 38.44035339 C-24.77214468 38.17987187 -17.24768315 38.07915741 -9.70605469 38.13371277 C-9.7112915 37.0839325 -9.71652832 36.03415222 -9.72192383 34.95256042 C-9.73999707 31.06503651 -9.75149523 27.17751633 -9.76098633 23.28996277 C-9.76602121 21.60603715 -9.7728495 19.92211591 -9.78149414 18.23820496 C-9.79359665 15.82055073 -9.79929137 13.40295421 -9.80371094 10.98527527 C-9.80887222 10.23001556 -9.81403351 9.47475586 -9.8193512 8.6966095 C-9.81992639 3.36145618 -9.81992639 3.36145618 -8.70605469 1.13371277 C-5.79567402 0.11884364 -3.06299772 0.00628253 0 0 Z " fill="#304B82" transform="translate(267.7060546875,32.86628723144531)"/>
<path d="M0 0 C26.07 0 52.14 0 79 0 C79 12.87 79 25.74 79 39 C91.87 39 104.74 39 118 39 C118 51.54 118 64.08 118 77 C131.2 77 144.4 77 158 77 C158 89.54 158 102.08 158 115 C145.13 115 132.26 115 119 115 C119 127.87 119 140.74 119 154 C105.8 154 92.6 154 79 154 C79 166.21 79 178.42 79 191 C40.06 191 1.12 191 -39 191 C-39 178.46 -39 165.92 -39 153 C-52.2 153 -65.4 153 -79 153 C-79 127.92 -79 102.84 -79 77 C-65.8 77 -52.6 77 -39 77 C-39 64.46 -39 51.92 -39 39 C-26.13 39 -13.26 39 0 39 C0 26.13 0 13.26 0 0 Z " fill="#FCFCFC" transform="translate(140,188)"/>
<path d="M0 0 C1.41315491 -0.00639748 1.41315491 -0.00639748 2.8548584 -0.01292419 C3.88147583 -0.01247101 4.90809326 -0.01201782 5.96582031 -0.0115509 C7.59565857 -0.01658882 7.59565857 -0.01658882 9.25842285 -0.02172852 C12.8536086 -0.03123523 16.44874778 -0.03318135 20.04394531 -0.03425598 C22.53971374 -0.03746823 25.03548197 -0.04083228 27.53125 -0.04434204 C32.76334943 -0.05033224 37.99543702 -0.05222479 43.22753906 -0.05158997 C49.27376845 -0.05098878 55.31990874 -0.0615506 61.36611557 -0.07733363 C67.18601851 -0.09198409 73.00588614 -0.0955781 78.82580566 -0.09498024 C81.30098841 -0.09616236 83.77617177 -0.10059705 86.25134277 -0.10831261 C89.70832784 -0.11808137 93.16508173 -0.11524692 96.62207031 -0.10920715 C97.64868774 -0.11482666 98.67530518 -0.12044617 99.73303223 -0.12623596 C101.14618713 -0.11994423 101.14618713 -0.11994423 102.58789062 -0.11352539 C103.40493469 -0.11407016 104.22197876 -0.11461493 105.06378174 -0.1151762 C107.29394531 0.13371277 107.29394531 0.13371277 111.29394531 2.13371277 C111.29394531 14.34371277 111.29394531 26.55371277 111.29394531 39.13371277 C114.02546875 39.12211121 116.75699219 39.11050964 119.57128906 39.09855652 C122.2056466 39.09076635 124.84000288 39.08468936 127.47436523 39.07878113 C129.31063406 39.07374045 131.14689885 39.066908 132.9831543 39.05827332 C135.61670933 39.04619605 138.25021148 39.04048196 140.88378906 39.03605652 C141.70983139 39.03089523 142.53587372 39.02573395 143.38694763 39.02041626 C145.35630899 39.02022072 147.32556145 39.07167125 149.29394531 39.13371277 C150.29394531 40.13371277 150.29394531 40.13371277 150.4074707 43.64372253 C150.40731158 45.20419699 150.40161674 46.7646767 150.39160156 48.32511902 C150.38947914 49.55487709 150.38947914 49.55487709 150.38731384 50.80947876 C150.3816982 53.43842659 150.36914311 56.0672905 150.35644531 58.69621277 C150.35143232 60.47420633 150.34686907 62.25220123 150.34277344 64.03019714 C150.3317237 68.39806822 150.31444863 72.76587625 150.29394531 77.13371277 C151.40954834 77.12847595 152.52515137 77.12323914 153.67456055 77.11784363 C157.79873864 77.09979502 161.92291322 77.08828128 166.04711914 77.07878113 C167.83488552 77.07374059 169.62264776 77.06690823 171.41040039 77.05827332 C173.974457 77.04619546 176.53845929 77.04048183 179.10253906 77.03605652 C179.90670761 77.03089523 180.71087616 77.02573395 181.53941345 77.02041626 C183.45796246 77.02022062 185.376399 77.07169294 187.29394531 77.13371277 C188.29394531 78.13371277 188.29394531 78.13371277 188.4074707 81.82731628 C188.40721958 83.47242568 188.40165715 85.11754034 188.39160156 86.76261902 C188.39059448 87.52828186 188.3895874 88.2939447 188.3885498 89.08280945 C188.38330194 91.95395904 188.36934078 94.82508734 188.35644531 97.69621277 C188.33582031 104.11058777 188.31519531 110.52496277 188.29394531 117.13371277 C175.42394531 117.13371277 162.55394531 117.13371277 149.29394531 117.13371277 C149.29394531 104.26371277 149.29394531 91.39371277 149.29394531 78.13371277 C135.76394531 78.13371277 122.23394531 78.13371277 108.29394531 78.13371277 C107.96394531 66.25371277 107.63394531 54.37371277 107.29394531 42.13371277 C103.82894531 42.62871277 103.82894531 42.62871277 100.29394531 43.13371277 C98.66074225 43.21306935 97.02515865 43.25589323 95.39002991 43.25396729 C94.48009277 43.25534195 93.57015564 43.25671661 92.63264465 43.25813293 C91.16960152 43.25274002 91.16960152 43.25274002 89.67700195 43.24723816 C88.1100206 43.2474572 88.1100206 43.2474572 86.51138306 43.24768066 C83.07560107 43.24698677 79.63987402 43.23921893 76.20410156 43.23136902 C73.81514007 43.22950298 71.4261782 43.22807995 69.03721619 43.2270813 C62.76218603 43.22327077 56.48717918 43.213453 50.2121582 43.20237732 C43.8038769 43.1921317 37.39559182 43.18757693 30.98730469 43.18254089 C18.42284165 43.1718294 5.85839472 43.15496394 -6.70605469 43.13371277 C-6.70081787 44.21902283 -6.69558105 45.30433289 -6.69018555 46.42253113 C-6.67213633 50.43489259 -6.66062298 54.44725043 -6.65112305 58.4596405 C-6.64608264 60.19890445 -6.63925039 61.93816413 -6.63061523 63.67741394 C-6.61853677 66.17197214 -6.61282361 68.6664745 -6.60839844 71.16105652 C-6.60323715 71.94335129 -6.59807587 72.72564606 -6.59275818 73.53164673 C-6.59256243 75.39938391 -6.64405774 77.26700481 -6.70605469 79.13371277 C-8.87886465 81.30652273 -13.74551704 80.56173895 -16.76855469 80.69621277 C-17.66219727 80.73867126 -18.55583984 80.78112976 -19.4765625 80.82487488 C-27.55763575 81.18156168 -35.61836953 81.23537362 -43.70605469 81.13371277 C-45.12695228 86.14694576 -45.08333608 91.2032966 -45.26855469 96.38371277 C-45.31101318 97.53073669 -45.35347168 98.67776062 -45.3972168 99.85954285 C-45.9612557 117.27665554 -45.79130398 134.71006976 -45.70605469 152.13371277 C-44.60092529 152.1127655 -43.4957959 152.09181824 -42.35717773 152.07023621 C-38.25916488 151.99786636 -34.16120854 151.95192441 -30.06274414 151.91398621 C-28.288559 151.89386374 -26.51444023 151.86656247 -24.74047852 151.83195496 C-22.19107702 151.78346284 -19.64255174 151.76075124 -17.09277344 151.74308777 C-16.29892746 151.72244263 -15.50508148 151.70179749 -14.68717957 151.68052673 C-11.48211476 151.67921914 -9.29646621 151.68184962 -6.70019531 153.66886902 C-5.31510087 157.10303246 -5.33477964 160.32069777 -5.41308594 163.96183777 C-5.41610718 164.62618835 -5.41912842 165.29053894 -5.42224121 165.97502136 C-5.43787772 168.44474434 -5.47976184 170.91424497 -5.51855469 173.38371277 C-5.58042969 178.91121277 -5.64230469 184.43871277 -5.70605469 190.13371277 C12.11394531 190.62871277 12.11394531 190.62871277 30.29394531 191.13371277 C31.93366354 194.41314922 31.41434606 198.039299 31.39160156 201.64152527 C31.39059448 202.38652283 31.3895874 203.13152039 31.3885498 203.89909363 C31.38331245 206.68564897 31.3693512 209.47218239 31.35644531 212.25871277 C31.33582031 218.48746277 31.31519531 224.71621277 31.29394531 231.13371277 C44.16394531 231.13371277 57.03394531 231.13371277 70.29394531 231.13371277 C70.32488281 240.50777527 70.32488281 240.50777527 70.35644531 250.07121277 C70.36554932 252.04597595 70.37465332 254.02073914 70.3840332 256.05534363 C70.38695236 257.6114139 70.38950092 259.16748493 70.39160156 260.72355652 C70.39671753 261.53892883 70.4018335 262.35430115 70.40710449 263.19438171 C70.40741471 265.174518 70.35632628 267.1545593 70.29394531 269.13371277 C69.29394531 270.13371277 69.29394531 270.13371277 65.69213867 270.24723816 C64.08934676 270.24698706 62.48654945 270.24142537 60.88378906 270.23136902 C60.13778442 270.23036194 59.39177979 270.22935486 58.62316895 270.22831726 C55.82591219 270.22306966 53.02867727 270.2091085 50.23144531 270.19621277 C43.98207031 270.17558777 37.73269531 270.15496277 31.29394531 270.13371277 C31.29394531 257.59371277 31.29394531 245.05371277 31.29394531 232.13371277 C17.76394531 232.13371277 4.23394531 232.13371277 -9.70605469 232.13371277 C-9.70605469 219.59371277 -9.70605469 207.05371277 -9.70605469 194.13371277 C-22.57605469 194.13371277 -35.44605469 194.13371277 -48.70605469 194.13371277 C-48.70605469 181.26371277 -48.70605469 168.39371277 -48.70605469 155.13371277 C-74.77605469 155.13371277 -100.84605469 155.13371277 -127.70605469 155.13371277 C-127.70605469 168.00371277 -127.70605469 180.87371277 -127.70605469 194.13371277 C-140.57605469 194.13371277 -153.44605469 194.13371277 -166.70605469 194.13371277 C-166.70605469 206.67371277 -166.70605469 219.21371277 -166.70605469 232.13371277 C-179.90605469 232.13371277 -193.10605469 232.13371277 -206.70605469 232.13371277 C-206.70605469 257.21371277 -206.70605469 282.29371277 -206.70605469 308.13371277 C-219.90605469 308.13371277 -233.10605469 308.13371277 -246.70605469 308.13371277 C-247.85885869 290.84165275 -247.85885869 290.84165275 -247.83886719 282.13371277 C-247.84030228 280.68738464 -247.84030228 280.68738464 -247.84176636 279.21183777 C-247.84243861 277.19881626 -247.84065208 275.18579245 -247.83642578 273.17277527 C-247.8310638 270.13887029 -247.83640381 267.10511329 -247.84277344 264.07121277 C-247.8543789 239.33845492 -247.8543789 239.33845492 -246.70605469 232.13371277 C-243.48001924 230.52069504 -239.95895431 231.01317678 -236.41699219 231.03605652 C-235.18935654 231.03817894 -235.18935654 231.03817894 -233.93692017 231.04034424 C-231.31826144 231.04594987 -228.69968765 231.05850329 -226.08105469 231.07121277 C-224.30761842 231.07622704 -222.53418082 231.08079008 -220.76074219 231.08488464 C-216.40914687 231.09592113 -212.05761519 231.11318952 -207.70605469 231.13371277 C-207.7112915 229.98781677 -207.71652832 228.84192078 -207.72192383 227.66130066 C-207.73997186 223.42530595 -207.75148597 219.18931465 -207.76098633 214.95329285 C-207.766027 213.11702402 -207.77285946 211.28075923 -207.78149414 209.44450378 C-207.79357141 206.81094876 -207.7992855 204.1774466 -207.80371094 201.54386902 C-207.80887222 200.71782669 -207.81403351 199.89178436 -207.8193512 199.04071045 C-207.81954673 197.07134909 -207.7680962 195.10209663 -207.70605469 193.13371277 C-206.70605469 192.13371277 -206.70605469 192.13371277 -203.01245117 192.02018738 C-201.36734176 192.02034653 -199.72222738 192.02604288 -198.07714844 192.03605652 C-196.78080223 192.03817894 -196.78080223 192.03817894 -195.45826721 192.04034424 C-192.68666177 192.04596038 -189.91513589 192.05851558 -187.14355469 192.07121277 C-185.26920689 192.07622569 -183.39485784 192.08078896 -181.52050781 192.08488464 C-176.91565925 192.09593505 -172.31087048 192.11321047 -167.70605469 192.13371277 C-167.7112915 191.01810974 -167.71652832 189.90250671 -167.72192383 188.75309753 C-167.73997244 184.62891944 -167.75148618 180.50474486 -167.76098633 176.38053894 C-167.76602687 174.59277256 -167.77285923 172.80501032 -167.78149414 171.01725769 C-167.79357199 168.45320109 -167.79928563 165.88919879 -167.80371094 163.32511902 C-167.80887222 162.52095047 -167.81403351 161.71678192 -167.8193512 160.88824463 C-167.81954684 158.96969562 -167.76807451 157.05125909 -167.70605469 155.13371277 C-166.70605469 154.13371277 -166.70605469 154.13371277 -163.10424805 154.02018738 C-161.50145612 154.02034652 -159.89865908 154.02604213 -158.29589844 154.03605652 C-157.45386368 154.03747147 -156.61182892 154.03888641 -155.74427795 154.04034424 C-153.04400134 154.04596014 -150.34380641 154.05851528 -147.64355469 154.07121277 C-145.81738401 154.07622572 -143.99121203 154.08078898 -142.16503906 154.08488464 C-137.67867927 154.09593473 -133.19238084 154.11320998 -128.70605469 154.13371277 C-128.7112915 153.01810974 -128.71652832 151.90250671 -128.72192383 150.75309753 C-128.73997244 146.62891944 -128.75148618 142.50474486 -128.76098633 138.38053894 C-128.76602687 136.59277256 -128.77285923 134.80501032 -128.78149414 133.01725769 C-128.79357199 130.45320109 -128.79928563 127.88919879 -128.80371094 125.32511902 C-128.80887222 124.52095047 -128.81403351 123.71678192 -128.8193512 122.88824463 C-128.81954684 120.96969562 -128.76807451 119.05125909 -128.70605469 117.13371277 C-126.6240111 115.05166919 -122.17219909 115.87549985 -119.29589844 115.81730652 C-118.0328463 115.78613487 -118.0328463 115.78613487 -116.74427795 115.7543335 C-114.0441229 115.68874465 -111.34386752 115.62991001 -108.64355469 115.57121277 C-106.81737227 115.5280364 -104.99120015 115.48442241 -103.16503906 115.44035339 C-98.67881477 115.33305383 -94.19248919 115.23181311 -89.70605469 115.13371277 C-89.66847046 113.46030823 -89.66847046 113.46030823 -89.63012695 111.75309753 C-89.53622047 107.62878687 -89.43595955 103.50465127 -89.33374023 99.38053894 C-89.29032769 97.59282007 -89.2486574 95.80505803 -89.20874023 94.01725769 C-89.15119009 91.45307886 -89.08745265 88.88911865 -89.02246094 86.32511902 C-89.00574844 85.52095047 -88.98903595 84.71678192 -88.97181702 83.88824463 C-88.81992639 78.24758448 -88.81992639 78.24758448 -87.70605469 77.13371277 C-84.89442089 77.04509285 -82.10747213 77.01848922 -79.29589844 77.03605652 C-78.45386368 77.03747147 -77.61182892 77.03888641 -76.74427795 77.04034424 C-74.04400134 77.04596014 -71.34380641 77.05851528 -68.64355469 77.07121277 C-66.81738401 77.07622572 -64.99121203 77.08078898 -63.16503906 77.08488464 C-58.67867927 77.09593473 -54.19238084 77.11320998 -49.70605469 77.13371277 C-49.7112915 76.01810974 -49.71652832 74.90250671 -49.72192383 73.75309753 C-49.73997244 69.62891944 -49.75148618 65.50474486 -49.76098633 61.38053894 C-49.76602687 59.59277256 -49.77285923 57.80501032 -49.78149414 56.01725769 C-49.79357199 53.45320109 -49.79928563 50.88919879 -49.80371094 48.32511902 C-49.80887222 47.52095047 -49.81403351 46.71678192 -49.8193512 45.88824463 C-49.81954684 43.96969562 -49.76807451 42.05125909 -49.70605469 40.13371277 C-47.95843913 38.38609721 -45.50356445 38.90041784 -43.12402344 38.81730652 C-41.96322266 38.77541199 -40.80242187 38.73351746 -39.60644531 38.69035339 C-38.38119141 38.65103699 -37.1559375 38.61172058 -35.89355469 38.57121277 C-34.71083984 38.52802917 -33.528125 38.48484558 -32.30957031 38.44035339 C-24.77214468 38.17987187 -17.24768315 38.07915741 -9.70605469 38.13371277 C-9.7112915 37.0839325 -9.71652832 36.03415222 -9.72192383 34.95256042 C-9.73999707 31.06503651 -9.75149523 27.17751633 -9.76098633 23.28996277 C-9.76602121 21.60603715 -9.7728495 19.92211591 -9.78149414 18.23820496 C-9.79359665 15.82055073 -9.79929137 13.40295421 -9.80371094 10.98527527 C-9.80887222 10.23001556 -9.81403351 9.47475586 -9.8193512 8.6966095 C-9.81992639 3.36145618 -9.81992639 3.36145618 -8.70605469 1.13371277 C-5.79567402 0.11884364 -3.06299772 0.00628253 0 0 Z " fill="#64738D" transform="translate(267.7060546875,32.86628723144531)"/>
<path d="M0 0 C0.94513458 -0.00137466 1.89026917 -0.00274933 2.86404419 -0.00416565 C4.42418243 0.00122726 4.42418243 0.00122726 6.01583862 0.00672913 C7.10853058 0.0065831 8.20122253 0.00643707 9.32702637 0.00628662 C12.95232096 0.00698538 16.57756468 0.01477609 20.20285034 0.02259827 C22.71105928 0.02446258 25.21926859 0.02588642 27.72747803 0.02688599 C33.66313583 0.03031891 39.59877721 0.03820688 45.53442657 0.04823548 C52.95384581 0.06049947 60.37326731 0.06587822 67.79269409 0.07142639 C81.03098468 0.08216192 94.2692601 0.0990458 107.50753784 0.12025452 C108.57349696 3.98704983 108.62115043 7.48988256 108.60519409 11.51087952 C108.60269653 12.80026428 108.60019897 14.08964905 108.59762573 15.41810608 C108.58852173 17.05231506 108.57941772 18.68652405 108.57003784 20.37025452 C108.54941284 25.56775452 108.52878784 30.76525452 108.50753784 36.12025452 C122.03753784 36.12025452 135.56753784 36.12025452 149.50753784 36.12025452 C149.50753784 61.53025452 149.50753784 86.94025452 149.50753784 113.12025452 C136.30753784 113.12025452 123.10753784 113.12025452 109.50753784 113.12025452 C109.50753784 125.66025452 109.50753784 138.20025452 109.50753784 151.12025452 C96.63753784 151.12025452 83.76753784 151.12025452 70.50753784 151.12025452 C70.50753784 163.66025452 70.50753784 176.20025452 70.50753784 189.12025452 C57.63753784 189.12025452 44.76753784 189.12025452 31.50753784 189.12025452 C31.50753784 176.58025452 31.50753784 164.04025452 31.50753784 151.12025452 C18.30753784 151.12025452 5.10753784 151.12025452 -8.49246216 151.12025452 C-8.49246216 150.79025452 -8.49246216 150.46025452 -8.49246216 150.12025452 C-5.52246216 149.79025452 -2.55246216 149.46025452 0.50753784 149.12025452 C-0.94652466 149.15119202 -0.94652466 149.15119202 -2.42996216 149.18275452 C-5.49246216 149.12025452 -5.49246216 149.12025452 -6.49246216 148.12025452 C-6.55625826 145.63430121 -6.55877829 143.17549814 -6.51980591 140.69056702 C-6.50715688 139.15801721 -6.49479612 137.62546501 -6.48269653 136.09291077 C-6.457881 133.66786805 -6.42993038 131.24294848 -6.39651489 128.81800842 C-6.3663216 126.48385322 -6.34853741 124.14985518 -6.33230591 121.81556702 C-6.31884628 121.09047943 -6.30538666 120.36539185 -6.29151917 119.61833191 C-6.27287893 115.88200593 -6.36240703 114.31533721 -8.49246216 111.12025452 C-11.36993892 110.71864764 -11.36993892 110.71864764 -14.75027466 110.86244202 C-16.01613403 110.8766217 -17.28199341 110.89080139 -18.58621216 110.90541077 C-19.92998112 110.93449526 -21.27373152 110.96444988 -22.61746216 110.99525452 C-38.58365631 111.26293233 -38.58365631 111.26293233 -45.49246216 110.12025452 C-46.45467828 100.05753422 -46.65238103 90.09115714 -46.61746216 79.99525452 C-46.61624359 79.22833282 -46.61502502 78.46141113 -46.61376953 77.67124939 C-46.54571135 41.17350371 -46.54571135 41.17350371 -43.49246216 38.12025452 C-41.0265594 38.07130359 -38.58230278 38.07876899 -36.11746216 38.12025452 C-26.54008434 38.21139859 -17.05329527 37.6868224 -7.49246216 37.12025452 C-7.16246216 25.24025452 -6.83246216 13.36025452 -6.49246216 1.12025452 C-4.10782436 -0.07206438 -2.66125383 -0.00297679 0 0 Z " fill="#446BB0" transform="translate(267.4924621582031,74.87974548339844)"/>
<path d="M0 0 C0.33 0 0.66 0 1 0 C1 12.54 1 25.08 1 38 C13.87 38 26.74 38 40 38 C40 50.54 40 63.08 40 76 C27.13 76 14.26 76 1 76 C1 88.54 1 101.08 1 114 C13.87 114 26.74 114 40 114 C38 116 38 116 34.46826172 116.22705078 C32.95536669 116.22673363 31.44244912 116.21540633 29.9296875 116.1953125 C29.13345978 116.1924826 28.33723206 116.18965271 27.51687622 116.18673706 C24.96943237 116.1755264 22.42233789 116.15042062 19.875 116.125 C18.14974465 116.11497133 16.42448381 116.10584528 14.69921875 116.09765625 C10.46601086 116.07558422 6.2330647 116.04104867 2 116 C2.01571045 117.08007324 2.0314209 118.16014648 2.04760742 119.27294922 C2.10182234 123.2722226 2.13631904 127.27146338 2.16479492 131.27099609 C2.1799009 133.00347349 2.20038694 134.73591254 2.22631836 136.46826172 C2.26262321 138.95549978 2.27970765 141.44223326 2.29296875 143.9296875 C2.31619453 145.09538773 2.31619453 145.09538773 2.33988953 146.28463745 C2.34057617 148.46826172 2.34057617 148.46826172 2 152 C-1.70383054 154.46922036 -4.51116632 154.27649171 -8.79495239 154.24723816 C-9.59718636 154.24965257 -10.39942034 154.25206699 -11.22596443 154.25455457 C-13.9230231 154.26020529 -16.61984637 154.25151818 -19.31689453 154.24291992 C-21.2467251 154.24399245 -23.17655536 154.24593069 -25.10638428 154.24867249 C-30.35407198 154.25352804 -35.60167491 154.24585676 -40.84935236 154.23571944 C-46.33152327 154.22695272 -51.81369142 154.2286961 -57.29586792 154.2290802 C-66.50113346 154.22814307 -75.70636608 154.21945173 -84.91162109 154.20581055 C-95.5697548 154.1900752 -106.22785245 154.18481273 -116.88599694 154.1855461 C-127.1220914 154.18615542 -137.35817406 154.18105939 -147.59426498 154.17275429 C-151.95869921 154.16921451 -156.32312926 154.16739005 -160.68756485 154.16686058 C-165.82075328 154.16585958 -170.95391117 154.15978299 -176.08708954 154.14969444 C-177.9765873 154.14676187 -179.86608858 154.14554559 -181.75558853 154.14612198 C-184.32343029 154.14660907 -186.89118518 154.14099279 -189.45901489 154.13371277 C-190.59551489 154.13603567 -190.59551489 154.13603567 -191.75497448 154.1384055 C-196.88582128 154.11417872 -196.88582128 154.11417872 -198 153 C-198.08858646 150.26105915 -198.11523479 147.5474673 -198.09765625 144.80859375 C-198.0962413 143.98875504 -198.09482635 143.16891632 -198.09336853 142.32423401 C-198.08775289 139.69528618 -198.07519779 137.06642227 -198.0625 134.4375 C-198.05748701 132.65950643 -198.05292376 130.88151154 -198.04882812 129.10351562 C-198.03777839 124.73564455 -198.02050331 120.36783652 -198 116 C-199.76428345 116.00785522 -199.76428345 116.00785522 -201.56420898 116.01586914 C-205.91202031 116.03391663 -210.2598283 116.04543108 -214.60766602 116.05493164 C-216.4924373 116.05997244 -218.37720465 116.06680498 -220.26196289 116.07543945 C-222.96501636 116.08751617 -225.66801831 116.09323068 -228.37109375 116.09765625 C-229.21900986 116.10281754 -230.06692596 116.10797882 -230.9405365 116.11329651 C-232.96071068 116.11349195 -234.98077934 116.06206211 -237 116 C-238 115 -238 115 -238.11352539 111.39819336 C-238.11336625 109.79540144 -238.10767063 108.1926044 -238.09765625 106.58984375 C-238.0962413 105.74780899 -238.09482635 104.90577423 -238.09336853 104.03822327 C-238.08775263 101.33794665 -238.07519748 98.63775172 -238.0625 95.9375 C-238.05748705 94.11132932 -238.05292379 92.28515734 -238.04882812 90.45898438 C-238.03777804 85.97262458 -238.02050279 81.48632616 -238 77 C-238.60365387 77.03292145 -239.20730774 77.0658429 -239.82925415 77.09976196 C-268.53289095 78.65935757 -268.53289095 78.65935757 -276 77 C-276 76.67 -276 76.34 -276 76 C-249.93 76 -223.86 76 -197 76 C-197 88.54 -197 101.08 -197 114 C-158.06 114 -119.12 114 -79 114 C-79 101.79 -79 89.58 -79 77 C-65.8 77 -52.6 77 -39 77 C-39 64.13 -39 51.26 -39 38 C-26.13 38 -13.26 38 0 38 C0 25.46 0 12.92 0 0 Z " fill="#B5B9BB" transform="translate(298,265)"/>
<path d="M0 0 C65.01 0 130.02 0 197 0 C197 12.21 197 24.42 197 37 C192.94651599 38.013371 189.32535425 38.13654007 185.19195557 38.12025452 C184.00464061 38.12153615 184.00464061 38.12153615 182.79333949 38.12284368 C180.13857056 38.12449201 177.48386468 38.11898767 174.82910156 38.11352539 C172.92705792 38.11324335 171.02501416 38.11340158 169.12297058 38.1139679 C163.95600735 38.11425522 158.78906726 38.10836886 153.62210941 38.10139394 C148.22355834 38.09514972 142.82500676 38.09455575 137.42645264 38.09336853 C127.20199096 38.09025838 116.97753996 38.08204922 106.75308299 38.07201904 C95.1135517 38.06084813 83.4740199 38.05534498 71.83448458 38.05032361 C47.8896491 38.03986636 23.94482826 38.02152478 0 38 C0 25.46 0 12.92 0 0 Z " fill="#020202" transform="translate(101,380)"/>
<path d="M0 0 C38.94 0 77.88 0 118 0 C118 12.21 118 24.42 118 37 C88.95441878 37.74339696 59.92884319 38.09501689 30.875 38.0625 C30.10466934 38.06164398 29.33433868 38.06078796 28.54066467 38.05990601 C19.0270744 38.0485459 9.5135742 38.02549797 0 38 C0 50.54 0 63.08 0 76 C-12.87 76 -25.74 76 -39 76 C-39 63.46 -39 50.92 -39 38 C-26.46 37.67 -13.92 37.34 -1 37 C-0.67 24.79 -0.34 12.58 0 0 Z " fill="#020304" transform="translate(259,35)"/>
<path d="M0 0 C12.87 0 25.74 0 39 0 C39 25.08 39 50.16 39 76 C13.26 76 -12.48 76 -39 76 C-39 63.79 -39 51.58 -39 39 C-26.46 38.67 -13.92 38.34 -1 38 C-0.67 25.46 -0.34 12.92 0 0 Z " fill="#020304" transform="translate(180,111)"/>
<path d="M0 0 C13.2 0 26.4 0 40 0 C40 25.08 40 50.16 40 76 C26.8 76 13.6 76 0 76 C-1.152804 58.70793998 -1.152804 58.70793998 -1.1328125 50 C-1.13424759 48.55367188 -1.13424759 48.55367188 -1.13571167 47.078125 C-1.13638393 45.06510349 -1.13459739 43.05207968 -1.13037109 41.0390625 C-1.12500912 38.00515752 -1.13034913 34.97140053 -1.13671875 31.9375 C-1.1360578 29.95833302 -1.13477629 27.97916612 -1.1328125 26 C-1.13483673 25.11828125 -1.13686096 24.2365625 -1.13894653 23.328125 C-1.11057246 15.48418917 -0.52543046 7.88145685 0 0 Z " fill="#060606" transform="translate(21,265)"/>
<path d="M0 0 C12.54 0 25.08 0 38 0 C38 25.08 38 50.16 38 76 C25.46 76 12.92 76 0 76 C0 50.92 0 25.84 0 0 Z " fill="#020203" transform="translate(457,150)"/>
<path d="M0 0 C12.87 0 25.74 0 39 0 C39 12.87 39 25.74 39 39 C26.13 39 13.26 39 0 39 C0 26.13 0 13.26 0 0 Z " fill="#030406" transform="translate(417,111)"/>
<path d="M0 0 C12.87 0 25.74 0 39 0 C39 12.54 39 25.08 39 38 C26.13 38 13.26 38 0 38 C0 25.46 0 12.92 0 0 Z " fill="#030404" transform="translate(339,303)"/>
<path d="M0 0 C12.87 0 25.74 0 39 0 C39 12.54 39 25.08 39 38 C26.13 38 13.26 38 0 38 C0 25.46 0 12.92 0 0 Z " fill="#020203" transform="translate(259,226)"/>
<path d="M0 0 C12.87 0 25.74 0 39 0 C39 12.54 39 25.08 39 38 C26.13 38 13.26 38 0 38 C0 25.46 0 12.92 0 0 Z " fill="#040404" transform="translate(61,226)"/>
<path d="M0 0 C12.87 0 25.74 0 39 0 C39 12.54 39 25.08 39 38 C26.13 38 13.26 38 0 38 C0 25.46 0 12.92 0 0 Z " fill="#020203" transform="translate(220,188)"/>
<path d="M0 0 C12.87 0 25.74 0 39 0 C39.020625 6.084375 39.04125 12.16875 39.0625 18.4375 C39.071604 20.36005615 39.08070801 22.2826123 39.09008789 24.26342773 C39.09300707 25.77848236 39.09555562 27.29353777 39.09765625 28.80859375 C39.10277222 29.60237427 39.10788818 30.39615479 39.11315918 31.21398926 C39.11346956 33.14302829 39.06235893 35.07196912 39 37 C38 38 38 38 34.39819336 38.11352539 C32.79540145 38.11327429 31.19260413 38.1077126 29.58984375 38.09765625 C28.84383911 38.09664917 28.09783447 38.09564209 27.32922363 38.09460449 C24.53196687 38.08935689 21.73473196 38.07539573 18.9375 38.0625 C12.688125 38.041875 6.43875 38.02125 0 38 C0 25.46 0 12.92 0 0 Z " fill="#010102" transform="translate(299,265)"/>
<path d="M0 0 C12.87 0 25.74 0 39 0 C39 12.21 39 24.42 39 37 C26.13 37.33 13.26 37.66 0 38 C0 25.46 0 12.92 0 0 Z " fill="#030303" transform="translate(61,342)"/>
<path d="M0 0 C12.54 0 25.08 0 38 0 C38 12.54 38 25.08 38 38 C25.46 38 12.92 38 0 38 C0 25.46 0 12.92 0 0 Z " fill="#030303" transform="translate(101,188)"/>
<path d="M0 0 C12.54 0 25.08 0 38 0 C38 12.54 38 25.08 38 38 C25.46 38 12.92 38 0 38 C0 25.46 0 12.92 0 0 Z " fill="#020305" transform="translate(378,73)"/>
<path d="M0 0 C12.87 0 25.74 0 39 0 C39 12.21 39 24.42 39 37 C26.13 37 13.26 37 0 37 C0 24.79 0 12.58 0 0 Z " fill="#020202" transform="translate(299,342)"/>
<path d="M0 0 C12.54 0 25.08 0 38 0 C38 12.21 38 24.42 38 37 C25.46 37 12.92 37 0 37 C0 24.79 0 12.58 0 0 Z " fill="#020203" transform="translate(418,227)"/>
<path d="M0 0 C1.56047444 0.00025108 3.12095443 0.00581199 4.68139648 0.01586914 C5.40774292 0.01687622 6.13408936 0.0178833 6.88244629 0.0189209 C9.60581024 0.02416823 12.32915176 0.03812939 15.05249023 0.05102539 C21.13686523 0.07165039 27.22124023 0.09227539 33.48999023 0.11352539 C33.48999023 12.32352539 33.48999023 24.53352539 33.48999023 37.11352539 C20.94999023 37.11352539 8.40999023 37.11352539 -4.51000977 37.11352539 C-4.53063477 31.19415039 -4.55125977 25.27477539 -4.57250977 19.17602539 C-4.58161377 17.30567627 -4.59071777 15.43532715 -4.60009766 13.50830078 C-4.60301686 12.0342618 -4.60556541 10.56022202 -4.60766602 9.08618164 C-4.61278198 8.31399292 -4.61789795 7.5418042 -4.62316895 6.74621582 C-4.6234795 4.86827352 -4.57234545 2.99043286 -4.51000977 1.11352539 C-3.51000977 0.11352539 -3.51000977 0.11352539 0 0 Z " fill="#020304" transform="translate(383.510009765625,264.886474609375)"/>
<path d="M0 0 C2 2 2 2 2.22705078 5.53173828 C2.22673363 7.04463331 2.21540633 8.55755088 2.1953125 10.0703125 C2.1924826 10.86654022 2.18965271 11.66276794 2.18673706 12.48312378 C2.1755264 15.03056763 2.15042062 17.57766211 2.125 20.125 C2.11497133 21.85025535 2.10584528 23.57551619 2.09765625 25.30078125 C2.07558422 29.53398914 2.04104867 33.7669353 2 38 C3.05405029 37.75660889 3.05405029 37.75660889 4.12939453 37.50830078 C7.12463748 36.97793032 9.88930013 36.87055448 12.9296875 36.8671875 C14.05503906 36.86589844 15.18039062 36.86460937 16.33984375 36.86328125 C17.50644531 36.86714844 18.67304688 36.87101562 19.875 36.875 C21.03386719 36.87113281 22.19273437 36.86726563 23.38671875 36.86328125 C38.88098899 36.88098899 38.88098899 36.88098899 41 39 C41.10025695 41.36761575 41.13618935 43.70607073 41.12939453 46.07421875 C41.13202301 47.18393539 41.13202301 47.18393539 41.13470459 48.31607056 C41.1391231 50.77323723 41.13618513 53.23033253 41.1328125 55.6875 C41.13348554 57.38761407 41.13445557 59.08772805 41.13571167 60.7878418 C41.13718864 64.35564081 41.13503411 67.92341483 41.13037109 71.49121094 C41.1246738 76.07488494 41.12795281 80.65850039 41.13394356 85.24217224 C41.13754919 88.75419561 41.13641057 92.26620498 41.13381577 95.77822876 C41.1331465 97.46880093 41.13397489 99.15937436 41.13629532 100.84994507 C41.13882189 103.20859157 41.13498121 105.56714195 41.12939453 107.92578125 C41.13141876 108.63127106 41.13344299 109.33676086 41.13552856 110.06362915 C41.11426271 114.88573729 41.11426271 114.88573729 40 116 C31.99351261 117.23508921 24.02235201 117.11430043 15.9375 117.0625 C14.58138187 117.05747314 13.22526192 117.05291234 11.86914062 117.04882812 C8.57938006 117.03712079 5.28971406 117.02072211 2 117 C2.01047363 118.04454346 2.02094727 119.08908691 2.03173828 120.1652832 C2.06793172 124.03976007 2.09089805 127.91422199 2.10986328 131.78881836 C2.11992237 133.46592725 2.13357122 135.14301861 2.15087891 136.82006836 C2.17513152 139.23035002 2.1864839 141.64039986 2.1953125 144.05078125 C2.20563507 144.80087967 2.21595764 145.55097809 2.22659302 146.32380676 C2.227408 150.10300779 2.15057067 151.77414399 0 155 C-2.90834885 155.26660183 -5.60138268 155.34779124 -8.5078125 155.29296875 C-9.34843231 155.28872391 -10.18905212 155.28447906 -11.05514526 155.28010559 C-13.74541993 155.26328532 -16.43495099 155.22562781 -19.125 155.1875 C-20.94660378 155.17245745 -22.76821928 155.1587683 -24.58984375 155.14648438 C-29.06041419 155.11591986 -33.52937284 155.05720708 -38 155 C-38 167.21 -38 179.42 -38 192 C-41.22646459 193.61323229 -44.7466195 193.12063563 -48.2890625 193.09765625 C-49.01440186 193.09664917 -49.73974121 193.09564209 -50.48706055 193.09460449 C-53.19972309 193.08936769 -55.91236311 193.07540644 -58.625 193.0625 C-67.720625 193.0315625 -67.720625 193.0315625 -77 193 C-77 205.21 -77 217.42 -77 230 C-81.99296768 231.66432256 -85.70028138 232.32901922 -90.8046875 232.4140625 C-91.44736572 232.43170654 -92.09004395 232.44935059 -92.75219727 232.4675293 C-95.12622214 232.53004052 -97.50064533 232.57660931 -99.875 232.625 C-105.19625 232.74875 -110.5175 232.8725 -116 233 C-116.33 244.55 -116.66 256.1 -117 268 C-117.33 268 -117.66 268 -118 268 C-118 255.79 -118 243.58 -118 231 C-130.87 231 -143.74 231 -157 231 C-157 230.67 -157 230.34 -157 230 C-144.13 230 -131.26 230 -118 230 C-118.185625 224.328125 -118.37125 218.65625 -118.5625 212.8125 C-119.13306162 193.17511154 -118.76077675 173.62665997 -118 154 C-117.67 154 -117.34 154 -117 154 C-117 166.21 -117 178.42 -117 191 C-104.46 191 -91.92 191 -79 191 C-79.03960283 178.86826403 -79.03960283 178.86826403 -79.09008789 166.73657227 C-79.09300707 165.22151764 -79.09555562 163.70646223 -79.09765625 162.19140625 C-79.10277222 161.39762573 -79.10788818 160.60384521 -79.11315918 159.78601074 C-79.11346956 157.85697171 -79.06235893 155.92803088 -79 154 C-78 153 -78 153 -74.30639648 152.88647461 C-72.66128708 152.88663376 -71.01617269 152.89233012 -69.37109375 152.90234375 C-68.07474754 152.90446617 -68.07474754 152.90446617 -66.75221252 152.90663147 C-63.98060708 152.91224761 -61.2090812 152.92480281 -58.4375 152.9375 C-56.5631522 152.94251292 -54.68880315 152.94707619 -52.81445312 152.95117188 C-48.20957979 152.96137319 -43.6048794 152.98094533 -39 153 C-39 140.46 -39 127.92 -39 115 C-26.13 115 -13.26 115 0 115 C0 77.05 0 39.1 0 0 Z M1 39 C1 64.08 1 89.16 1 115 C13.54 115 26.08 115 39 115 C39 89.92 39 64.84 39 39 C26.46 39 13.92 39 1 39 Z M-38 116 C-38 128.21 -38 140.42 -38 153 C-25.46 153 -12.92 153 0 153 C0 140.79 0 128.58 0 116 C-12.54 116 -25.08 116 -38 116 Z M-77 155 C-77.08854347 157.6660154 -77.115319 160.30669399 -77.09765625 162.97265625 C-77.09664917 163.67934448 -77.09564209 164.38603271 -77.09460449 165.11413574 C-77.08935745 167.76360691 -77.07539629 170.41305502 -77.0625 173.0625 C-77.041875 178.981875 -77.02125 184.90125 -77 191 C-64.46 191 -51.92 191 -39 191 C-39 178.79 -39 166.58 -39 154 C-45.084375 153.979375 -51.16875 153.95875 -57.4375 153.9375 C-59.36005615 153.928396 -61.2826123 153.91929199 -63.26342773 153.90991211 C-64.77848236 153.90699293 -66.29353777 153.90444438 -67.80859375 153.90234375 C-68.60237427 153.89722778 -69.39615479 153.89211182 -70.21398926 153.88684082 C-73.90830092 153.53049235 -73.90830092 153.53049235 -77 155 Z M-117 192 C-117 204.54 -117 217.08 -117 230 C-104.13 230 -91.26 230 -78 230 C-78 217.46 -78 204.92 -78 192 C-90.87 192 -103.74 192 -117 192 Z " fill="#474A51" transform="translate(456,111)"/>
<path d="M0 0 C0.33 0 0.66 0 1 0 C1.02464849 5.39346988 1.04283531 10.78690725 1.05493164 16.18041992 C1.05997231 18.01668875 1.06680477 19.85295354 1.07543945 21.68920898 C1.08751672 24.32276401 1.09323081 26.95626616 1.09765625 29.58984375 C1.10281754 30.41588608 1.10797882 31.24192841 1.11329651 32.09300232 C1.11349205 34.06236368 1.06204152 36.03161614 1 38 C0 39 0 39 -3.60180664 39.11352539 C-5.20459856 39.11336625 -6.8073956 39.10767063 -8.41015625 39.09765625 C-9.25219101 39.0962413 -10.09422577 39.09482635 -10.96177673 39.09336853 C-13.66205335 39.08775263 -16.36224828 39.07519748 -19.0625 39.0625 C-20.88867068 39.05748705 -22.71484266 39.05292379 -24.54101562 39.04882812 C-29.02740085 39.03862716 -33.51360855 39.01905499 -38 39 C-38 51.21 -38 63.42 -38 76 C0.94 76 39.88 76 80 76 C80 76.33 80 76.66 80 77 C67.13 77 54.26 77 41 77 C41 89.54 41 102.08 41 115 C53.87 115 66.74 115 80 115 C80 127.54 80 140.08 80 153 C92.87 153 105.74 153 119 153 C119 140.46 119 127.92 119 115 C119.33 115 119.66 115 120 115 C120 127.54 120 140.08 120 153 C132.87 153 145.74 153 159 153 C159 153.33 159 153.66 159 154 C132.6 154 106.2 154 79 154 C79 141.46 79 128.92 79 116 C66.13 116 53.26 116 40 116 C40 103.13 40 90.26 40 77 C13.93 77 -12.14 77 -39 77 C-39 89.87 -39 102.74 -39 116 C-51.87 116 -64.74 116 -78 116 C-78 128.54 -78 141.08 -78 154 C-103.74 154 -129.48 154 -156 154 C-156 153.67 -156 153.34 -156 153 C-143.79 153 -131.58 153 -119 153 C-119.01160156 150.26847656 -119.02320313 147.53695312 -119.03515625 144.72265625 C-119.04294642 142.08829871 -119.04902341 139.45394243 -119.05493164 136.81958008 C-119.05997231 134.98331125 -119.06680477 133.14704646 -119.07543945 131.31079102 C-119.08751672 128.67723599 -119.09323081 126.04373384 -119.09765625 123.41015625 C-119.10281754 122.58411392 -119.10797882 121.75807159 -119.11329651 120.90699768 C-119.11349205 118.93763632 -119.06204152 116.96838386 -119 115 C-118 114 -118 114 -114.30639648 113.88647461 C-112.66128708 113.88663376 -111.01617269 113.89233012 -109.37109375 113.90234375 C-108.07474754 113.90446617 -108.07474754 113.90446617 -106.75221252 113.90663147 C-103.98060708 113.91224761 -101.2090812 113.92480281 -98.4375 113.9375 C-96.5631522 113.94251292 -94.68880315 113.94707619 -92.81445312 113.95117188 C-88.20960456 113.96222228 -83.60481579 113.9794977 -79 114 C-79.00523682 112.88439697 -79.01047363 111.76879395 -79.01586914 110.61938477 C-79.03391775 106.49520667 -79.04543149 102.37103209 -79.05493164 98.24682617 C-79.05997218 96.45905979 -79.06680454 94.67129755 -79.07543945 92.88354492 C-79.0875173 90.31948832 -79.09323094 87.75548603 -79.09765625 85.19140625 C-79.10281754 84.3872377 -79.10797882 83.58306915 -79.11329651 82.75453186 C-79.11349215 80.83598285 -79.06201983 78.91754632 -79 77 C-78 76 -78 76 -74.39819336 75.88647461 C-72.79540144 75.88663375 -71.1926044 75.89232937 -69.58984375 75.90234375 C-68.74780899 75.9037587 -67.90577423 75.90517365 -67.03822327 75.90663147 C-64.33794665 75.91224737 -61.63775172 75.92480252 -58.9375 75.9375 C-57.11132932 75.94251295 -55.28515734 75.94707621 -53.45898438 75.95117188 C-48.97262458 75.96222196 -44.48632616 75.97949721 -40 76 C-40.00523682 74.88439697 -40.01047363 73.76879395 -40.01586914 72.61938477 C-40.03391775 68.49520667 -40.04543149 64.37103209 -40.05493164 60.24682617 C-40.05997218 58.45905979 -40.06680454 56.67129755 -40.07543945 54.88354492 C-40.0875173 52.31948832 -40.09323094 49.75548603 -40.09765625 47.19140625 C-40.10281754 46.3872377 -40.10797882 45.58306915 -40.11329651 44.75453186 C-40.11349215 42.83598285 -40.06201983 40.91754632 -40 39 C-37.91795642 36.91795642 -33.4661444 37.74178708 -30.58984375 37.68359375 C-29.32679161 37.6524221 -29.32679161 37.6524221 -28.03822327 37.62062073 C-25.33806821 37.55503188 -22.63781283 37.49619724 -19.9375 37.4375 C-18.11131759 37.39432363 -16.28514546 37.35070964 -14.45898438 37.30664062 C-9.97275774 37.1985142 -5.48645926 37.09951089 -1 37 C-0.67 24.79 -0.34 12.58 0 0 Z M-78 77 C-78 89.54 -78 102.08 -78 115 C-65.46 115 -52.92 115 -40 115 C-40 102.46 -40 89.92 -40 77 C-52.54 77 -65.08 77 -78 77 Z M-118 115 C-118 127.54 -118 140.08 -118 153 C-105.13 153 -92.26 153 -79 153 C-79 140.46 -79 127.92 -79 115 C-91.87 115 -104.74 115 -118 115 Z " fill="#565A5E" transform="translate(179,111)"/>
<path d="M0 0 C26.07 0 52.14 0 79 0 C79 12.54 79 25.08 79 38 C157.21 38 235.42 38 316 38 C314 40 314 40 310.46826172 40.22705078 C308.95536669 40.22673363 307.44244912 40.21540633 305.9296875 40.1953125 C305.13345978 40.1924826 304.33723206 40.18965271 303.51687622 40.18673706 C300.96943237 40.1755264 298.42233789 40.15042062 295.875 40.125 C294.14974465 40.11497133 292.42448381 40.10584528 290.69921875 40.09765625 C286.46601086 40.07558422 282.2330647 40.04104867 278 40 C278.01571045 41.08007324 278.0314209 42.16014648 278.04760742 43.27294922 C278.10182234 47.2722226 278.13631904 51.27146338 278.16479492 55.27099609 C278.1799009 57.00347349 278.20038694 58.73591254 278.22631836 60.46826172 C278.26262321 62.95549978 278.27970765 65.44223326 278.29296875 67.9296875 C278.30845261 68.70682098 278.32393646 69.48395447 278.33988953 70.28463745 C278.34057617 72.46826172 278.34057617 72.46826172 278 76 C274.29616946 78.46922036 271.48883368 78.27649171 267.20504761 78.24723816 C266.40281364 78.24965257 265.60057966 78.25206699 264.77403557 78.25455457 C262.0769769 78.26020529 259.38015363 78.25151818 256.68310547 78.24291992 C254.7532749 78.24399245 252.82344464 78.24593069 250.89361572 78.24867249 C245.64592802 78.25352804 240.39832509 78.24585676 235.15064764 78.23571944 C229.66847673 78.22695272 224.18630858 78.2286961 218.70413208 78.2290802 C209.49886654 78.22814307 200.29363392 78.21945173 191.08837891 78.20581055 C180.4302452 78.1900752 169.77214755 78.18481273 159.11400306 78.1855461 C148.8779086 78.18615542 138.64182594 78.18105939 128.40573502 78.17275429 C124.04130079 78.16921451 119.67687074 78.16739005 115.31243515 78.16686058 C110.17924672 78.16585958 105.04608883 78.15978299 99.91291046 78.14969444 C98.0234127 78.14676187 96.13391142 78.14554559 94.24441147 78.14612198 C91.67656971 78.14660907 89.10881482 78.14099279 86.54098511 78.13371277 C85.40448511 78.13603567 85.40448511 78.13603567 84.24502552 78.1384055 C79.11417872 78.11417872 79.11417872 78.11417872 78 77 C77.91141354 74.26105915 77.88476521 71.5474673 77.90234375 68.80859375 C77.9037587 67.98875504 77.90517365 67.16891632 77.90663147 66.32423401 C77.91224711 63.69528618 77.92480221 61.06642227 77.9375 58.4375 C77.94251299 56.65950643 77.94707624 54.88151154 77.95117188 53.10351562 C77.96222161 48.73564455 77.97949669 44.36783652 78 40 C76.23571655 40.00785522 76.23571655 40.00785522 74.43579102 40.01586914 C70.08797969 40.03391663 65.7401717 40.04543108 61.39233398 40.05493164 C59.5075627 40.05997244 57.62279535 40.06680498 55.73803711 40.07543945 C53.03498364 40.08751617 50.33198169 40.09323068 47.62890625 40.09765625 C46.78099014 40.10281754 45.93307404 40.10797882 45.0594635 40.11329651 C43.03928932 40.11349195 41.01922066 40.06206211 39 40 C38 39 38 39 37.88647461 35.39819336 C37.88663375 33.79540144 37.89232937 32.1926044 37.90234375 30.58984375 C37.9037587 29.74780899 37.90517365 28.90577423 37.90663147 28.03822327 C37.91224737 25.33794665 37.92480252 22.63775172 37.9375 19.9375 C37.94251295 18.11132932 37.94707621 16.28515734 37.95117188 14.45898438 C37.96222196 9.97262458 37.97949721 5.48632616 38 1 C37.39634613 1.03292145 36.79269226 1.0658429 36.17074585 1.09976196 C7.46710905 2.65935757 7.46710905 2.65935757 0 1 C0 0.67 0 0.34 0 0 Z M39 1 C39 13.54 39 26.08 39 39 C51.87 38.67 64.74 38.34 78 38 C78 25.79 78 13.58 78 1 C65.13 1 52.26 1 39 1 Z M79 39 C79 51.54 79 64.08 79 77 C104.09499253 77.0225587 129.18997687 77.04098601 154.28497696 77.05181217 C165.93657036 77.05697217 177.58815702 77.06400926 189.23974609 77.07543945 C199.39325933 77.0853953 209.54676769 77.09185559 219.70028567 77.09408849 C225.07828548 77.09539406 230.45627132 77.09847025 235.83426666 77.10573006 C240.89354655 77.11250446 245.95280669 77.11461405 251.01209068 77.11310768 C252.87130274 77.11338337 254.73051544 77.11538008 256.58972359 77.11920547 C259.12382537 77.12416484 261.65785213 77.12298993 264.19195557 77.12025452 C264.93125722 77.12316736 265.67055888 77.1260802 266.43226361 77.12908131 C269.8725351 77.11901199 272.6287393 76.84281517 276 76 C276 63.79 276 51.58 276 39 C210.99 39 145.98 39 79 39 Z " fill="#616363" transform="translate(22,341)"/>
<path d="M0 0 C0.94210327 -0.00563965 1.88420654 -0.0112793 2.8548584 -0.01708984 C3.88147583 -0.01304138 4.90809326 -0.00899292 5.96582031 -0.00482178 C7.59565857 -0.01007874 7.59565857 -0.01007874 9.25842285 -0.01544189 C12.8536618 -0.02425158 16.44870432 -0.01841263 20.04394531 -0.01165771 C22.53971393 -0.01300458 25.03548229 -0.01494529 27.53125 -0.01745605 C32.76336678 -0.02040629 37.99543238 -0.01630339 43.22753906 -0.0067749 C49.27377728 0.00410919 55.31988062 0.00058343 61.36611557 -0.01042771 C67.18602794 -0.02060187 73.0058891 -0.01951913 78.82580566 -0.01366425 C81.30098489 -0.01232849 83.77616755 -0.01397287 86.25134277 -0.01862335 C89.7083452 -0.02369285 93.16508731 -0.0159721 96.62207031 -0.00482178 C97.64868774 -0.00887024 98.67530518 -0.0129187 99.73303223 -0.01708984 C100.6751355 -0.0114502 101.61723877 -0.00581055 102.58789062 0 C103.40493469 0.00075405 104.22197876 0.0015081 105.06378174 0.002285 C107.29394531 0.25396729 107.29394531 0.25396729 111.29394531 2.25396729 C111.29394531 14.46396729 111.29394531 26.67396729 111.29394531 39.25396729 C114.02546875 39.24236572 116.75699219 39.23076416 119.57128906 39.21881104 C122.2056466 39.21102086 124.84000288 39.20494388 127.47436523 39.19903564 C129.31063406 39.19399497 131.14689885 39.18716252 132.9831543 39.17852783 C135.61670933 39.16645056 138.25021148 39.16073647 140.88378906 39.15631104 C141.70983139 39.15114975 142.53587372 39.14598846 143.38694763 39.14067078 C145.35630899 39.14047524 147.32556145 39.19192577 149.29394531 39.25396729 C150.29394531 40.25396729 150.29394531 40.25396729 150.4074707 43.76397705 C150.40721962 45.32445149 150.40165871 46.88493148 150.39160156 48.44537354 C150.39059448 49.17171997 150.3895874 49.89806641 150.3885498 50.64642334 C150.38330248 53.36978729 150.36934131 56.09312881 150.35644531 58.81646729 C150.33582031 64.90084229 150.31519531 70.98521729 150.29394531 77.25396729 C162.50394531 77.25396729 174.71394531 77.25396729 187.29394531 77.25396729 C187.29394531 77.58396729 187.29394531 77.91396729 187.29394531 78.25396729 C174.42394531 78.25396729 161.55394531 78.25396729 148.29394531 78.25396729 C148.29394531 65.71396729 148.29394531 53.17396729 148.29394531 40.25396729 C135.75394531 40.25396729 123.21394531 40.25396729 110.29394531 40.25396729 C110.29394531 52.79396729 110.29394531 65.33396729 110.29394531 78.25396729 C109.96394531 78.25396729 109.63394531 78.25396729 109.29394531 78.25396729 C109.29394531 65.71396729 109.29394531 53.17396729 109.29394531 40.25396729 C92.79394531 40.25396729 76.29394531 40.25396729 59.29394531 40.25396729 C59.29394531 39.92396729 59.29394531 39.59396729 59.29394531 39.25396729 C75.79394531 39.25396729 92.29394531 39.25396729 109.29394531 39.25396729 C109.29394531 27.04396729 109.29394531 14.83396729 109.29394531 2.25396729 C70.35394531 2.25396729 31.41394531 2.25396729 -8.70605469 2.25396729 C-4.99267929 0.39727959 -3.87929752 0.00358021 0 0 Z " fill="#777B80" transform="translate(267.7060546875,32.74603271484375)"/>
<path d="M0 0 C4.29 0 8.58 0 13 0 C13 0.33 13 0.66 13 1 C10.36 1.33 7.72 1.66 5 2 C3.57910241 7.01323299 3.62271861 12.06958383 3.4375 17.25 C3.3950415 18.39702393 3.35258301 19.54404785 3.30883789 20.72583008 C2.74479899 38.14294277 2.91475071 55.57635699 3 73 C4.65769409 72.9685791 4.65769409 72.9685791 6.34887695 72.93652344 C10.44688981 72.8641536 14.54484614 72.81821164 18.64331055 72.78027344 C20.41749569 72.76015097 22.19161446 72.7328497 23.96557617 72.69824219 C26.51497767 72.64975008 29.06350295 72.62703847 31.61328125 72.609375 C32.40712723 72.58872986 33.20097321 72.56808472 34.01887512 72.54681396 C37.22393993 72.54550637 39.40958848 72.54813685 42.00585938 74.53515625 C43.39095382 77.96931969 43.37127505 81.186985 43.29296875 84.828125 C43.28994751 85.49247559 43.28692627 86.15682617 43.28381348 86.84130859 C43.26817697 89.31103157 43.22629284 91.78053221 43.1875 94.25 C43.125625 99.7775 43.06375 105.305 43 111 C54.88 111.33 66.76 111.66 79 112 C79 112.33 79 112.66 79 113 C66.13 113 53.26 113 40 113 C40 100.46 40 87.92 40 75 C26.8 75 13.6 75 0 75 C0 50.25 0 25.5 0 0 Z " fill="#516B9A" transform="translate(219,112)"/>
<path d="M0 0 C26.07 0 52.14 0 79 0 C79 12.54 79 25.08 79 38 C93.19 38 107.38 38 122 38 C122 38.33 122 38.66 122 39 C107.81 39 93.62 39 79 39 C79 51.54 79 64.08 79 77 C78.67 77 78.34 77 78 77 C78 64.79 78 52.58 78 40 C73.79443359 40.01740234 73.79443359 40.01740234 69.50390625 40.03515625 C66.80004998 40.04294633 64.09619494 40.04902337 61.39233398 40.05493164 C59.5075627 40.05997244 57.62279535 40.06680498 55.73803711 40.07543945 C53.03498364 40.08751617 50.33198169 40.09323068 47.62890625 40.09765625 C46.78099014 40.10281754 45.93307404 40.10797882 45.0594635 40.11329651 C43.03928932 40.11349195 41.01922066 40.06206211 39 40 C38 39 38 39 37.88647461 35.39819336 C37.88663375 33.79540144 37.89232937 32.1926044 37.90234375 30.58984375 C37.9037587 29.74780899 37.90517365 28.90577423 37.90663147 28.03822327 C37.91224737 25.33794665 37.92480252 22.63775172 37.9375 19.9375 C37.94251295 18.11132932 37.94707621 16.28515734 37.95117188 14.45898438 C37.96222196 9.97262458 37.97949721 5.48632616 38 1 C37.39634613 1.03292145 36.79269226 1.0658429 36.17074585 1.09976196 C7.46710905 2.65935757 7.46710905 2.65935757 0 1 C0 0.67 0 0.34 0 0 Z M39 1 C39 13.54 39 26.08 39 39 C51.87 38.67 64.74 38.34 78 38 C78 25.79 78 13.58 78 1 C65.13 1 52.26 1 39 1 Z " fill="#5B5C5C" transform="translate(22,341)"/>
<path d="M0 0 C12.87 0 25.74 0 39 0 C39 12.54 39 25.08 39 38 C26.13 38 13.26 38 0 38 C0 37.67 0 37.34 0 37 C11.88 37 23.76 37 36 37 C36 31.06 36 25.12 36 19 C36.33 13.72 36.66 8.44 37 3 C24.79 3 12.58 3 0 3 C0 2.01 0 1.02 0 0 Z " fill="#070E1D" transform="translate(220,188)"/>
<path d="M0 0 C12.87 0 25.74 0 39 0 C39.020625 6.084375 39.04125 12.16875 39.0625 18.4375 C39.071604 20.36005615 39.08070801 22.2826123 39.09008789 24.26342773 C39.09300707 25.77848236 39.09555562 27.29353777 39.09765625 28.80859375 C39.10277222 29.60237427 39.10788818 30.39615479 39.11315918 31.21398926 C39.11346956 33.14302829 39.06235893 35.07196912 39 37 C38 38 38 38 34.39819336 38.11352539 C32.79540145 38.11327429 31.19260413 38.1077126 29.58984375 38.09765625 C28.84383911 38.09664917 28.09783447 38.09564209 27.32922363 38.09460449 C24.53196687 38.08935689 21.73473196 38.07539573 18.9375 38.0625 C12.688125 38.041875 6.43875 38.02125 0 38 C0 25.46 0 12.92 0 0 Z M1 3 C1 14.22 1 25.44 1 37 C13.21 37 25.42 37 38 37 C38.0309375 28.646875 38.0309375 28.646875 38.0625 20.125 C38.071604 18.36816895 38.08070801 16.61133789 38.09008789 14.80126953 C38.09300797 13.41178463 38.09555631 12.02229888 38.09765625 10.6328125 C38.10277222 9.90892334 38.10788818 9.18503418 38.11315918 8.43920898 C38.18529326 4.59278756 38.18529326 4.59278756 37 1 C18.86354638 0.48296888 18.86354638 0.48296888 1 3 Z " fill="#0C1019" transform="translate(299,265)"/>
<path d="M0 0 C35.64 0 71.28 0 108 0 C108 12.54 108 25.08 108 38 C107.67 38 107.34 38 107 38 C106.67 26.12 106.34 14.24 106 2 C104.35 2.33 102.7 2.66 101 3 C100.505 2.505 100.505 2.505 100 2 C96.89564263 1.874595 93.81247504 1.8138673 90.70678711 1.79467773 C89.24353249 1.77982834 89.24353249 1.77982834 87.75071716 1.76467896 C84.50961782 1.73296052 81.26850378 1.70826581 78.02734375 1.68359375 C75.78674426 1.66303314 73.54614873 1.64203692 71.30555725 1.62062073 C65.39544877 1.56530775 59.48530475 1.5159393 53.57513428 1.46777344 C47.54940614 1.4176256 41.52372988 1.36190455 35.49804688 1.30664062 C23.66540886 1.19894628 11.83272588 1.09752652 0 1 C0 0.67 0 0.34 0 0 Z " fill="#526B96" transform="translate(269,73)"/>
<path d="M0 0 C0 0.33 0 0.66 0 1 C-4.22988588 2.00643347 -8.37960577 2.21261706 -12.70703125 2.31640625 C-13.35071655 2.33505737 -13.99440186 2.3537085 -14.65759277 2.3729248 C-17.04243366 2.44078213 -19.42748128 2.50121055 -21.8125 2.5625 C-27.154375 2.706875 -32.49625 2.85125 -38 3 C-38.33 14.55 -38.66 26.1 -39 38 C-39.33 38 -39.66 38 -40 38 C-40 25.79 -40 13.58 -40 1 C-52.87 1 -65.74 1 -79 1 C-79 0.67 -79 0.34 -79 0 C-52.61573467 -0.96447787 -26.38503328 -0.93049178 0 0 Z " fill="#595B5B" transform="translate(378,341)"/>
<path d="M0 0 C0.33 0 0.66 0 1 0 C1 12.21 1 24.42 1 37 C13.54 37 26.08 37 39 37 C39 24.79 39 12.58 39 0 C39.33 0 39.66 0 40 0 C40 12.54 40 25.08 40 38 C27.13 38 14.26 38 1 38 C1 50.21 1 62.42 1 75 C0.67 75 0.34 75 0 75 C-0.92984963 49.94466402 -0.96567008 25.05486856 0 0 Z " fill="#2E384F" transform="translate(338,265)"/>
<path d="M0 0 C12.87 0 25.74 0 39 0 C39 12.87 39 25.74 39 39 C37 37 37 37 36.77294922 33.56005859 C36.77344959 32.08948026 36.7845053 30.61887742 36.8046875 29.1484375 C36.80670166 28.46241455 36.80871582 27.7763916 36.81079102 27.06958008 C36.82126242 24.50465213 36.84918504 21.93981941 36.875 19.375 C36.91625 13.64125 36.9575 7.9075 37 2 C24.46 2 11.92 2 -1 2 C-0.67 1.34 -0.34 0.68 0 0 Z " fill="#4C6392" transform="translate(378,111)"/>
<path d="M0 0 C3.11969792 6.23939583 3.11913676 11.52993194 2.4375 18.375 C1.95460212 24.45347703 2.26307713 29.1761998 4 35 C14.00565923 36.13885552 23.96114664 36.1016603 34.01391602 36.01586914 C35.67589938 36.00258962 37.33796359 36 39 36 C39 36.66 39 37.32 39 38 C26.13 38 13.26 38 0 38 C0 25.46 0 12.92 0 0 Z " fill="#526FA0" transform="translate(299,226)"/>
<path d="M0 0 C11.88 0 23.76 0 36 0 C36 24.75 36 49.5 36 75 C33.69 75 31.38 75 29 75 C29.64465714 74.74677475 30.28931427 74.4935495 30.95350647 74.23265076 C31.62884933 73.82587601 32.3041922 73.41910126 33 73 C34.53565955 65.31565435 34.12842955 57.36759725 34.09765625 49.55859375 C34.09578728 48.1814021 34.09436564 46.80420977 34.09336853 45.42701721 C34.08958103 41.83171702 34.07978368 38.23645831 34.06866455 34.64117432 C34.05836869 30.96065837 34.05385353 27.28013562 34.04882812 23.59960938 C34.03815739 16.39972083 34.02112718 9.19986627 34 2 C30.06731133 1.97526132 26.13465287 1.95712165 22.2019043 1.94506836 C20.20685232 1.93757271 18.21182214 1.92486655 16.21679688 1.91210938 C14.96318359 1.90888672 13.70957031 1.90566406 12.41796875 1.90234375 C11.26063232 1.89710693 10.1032959 1.89187012 8.91088867 1.88647461 C5.93395589 1.86700539 5.93395589 1.86700539 3 3 C2.01 2.01 1.02 1.02 0 0 Z " fill="#404F76" transform="translate(420,150)"/>
<path d="M0 0 C0.66 0 1.32 0 2 0 C3.71737752 4.74804373 4.10445298 8.030785 3.359375 13.11328125 C2.86465161 17.08720065 2.65746279 21.0652025 2.4375 25.0625 C2.39391357 25.83770996 2.35032715 26.61291992 2.30541992 27.41162109 C2.20161395 29.27430372 2.10052187 31.13713726 2 33 C3.32 33.66 4.64 34.32 6 35 C5.505 35.495 5.505 35.495 5 36 C5.96808594 35.82597656 6.93617188 35.65195312 7.93359375 35.47265625 C12.35975963 34.84130127 16.61859294 35.11504803 21.0625 35.4375 C22.61578221 35.5419115 24.1691671 35.64480784 25.72265625 35.74609375 C26.4511377 35.79362793 27.17961914 35.84116211 27.93017578 35.89013672 C30.62211196 36.0330208 33.30508354 36.0388068 36 36 C35.505 36.99 35.505 36.99 35 38 C23.78 38 12.56 38 1 38 C0.67 25.46 0.34 12.92 0 0 Z " fill="#3D4E7D" transform="translate(338,264)"/>
<path d="M0 0 C0.99 0.495 0.99 0.495 2 1 C2 12.55 2 24.1 2 36 C12.7265286 35.22406028 12.7265286 35.22406028 23.45043945 34.41333008 C24.79630216 34.32246915 26.14224533 34.23278902 27.48828125 34.14453125 C28.53405334 34.05673401 28.53405334 34.05673401 29.60095215 33.96716309 C31.63012695 33.84301758 31.63012695 33.84301758 35 34 C35.99 34.99 36.98 35.98 38 37 C25.46 37 12.92 37 0 37 C0 24.79 0 12.58 0 0 Z " fill="#000410" transform="translate(418,112)"/>
<path d="M0 0 C12.87 0 25.74 0 39 0 C39 12.54 39 25.08 39 38 C38.01 37.67 37.02 37.34 36 37 C36.15847412 36.15743652 36.31694824 35.31487305 36.48022461 34.44677734 C37.01715901 30.88621379 37.20876079 27.44999656 37.31640625 23.8515625 C37.35451416 22.64838379 37.39262207 21.44520508 37.43188477 20.20556641 C37.47498779 18.69397949 37.51809082 17.18239258 37.5625 15.625 C37.706875 10.79875 37.85125 5.9725 38 1 C25.46 1 12.92 1 0 1 C0 0.67 0 0.34 0 0 Z " fill="#060F24" transform="translate(259,226)"/>
<path d="M0 0 C2.97 0 5.94 0 9 0 C9 0.66 9 1.32 9 2 C6.69 2.33 4.38 2.66 2 3 C1.67 14.55 1.34 26.1 1 38 C0.67 38 0.34 38 0 38 C0 25.46 0 12.92 0 0 Z " fill="#546B90" transform="translate(259,73)"/>
<path d="M0 0 C0.33 0 0.66 0 1 0 C1 2.64 1 5.28 1 8 C-10.22 8 -21.44 8 -33 8 C-33 7.67 -33 7.34 -33 7 C-32.10692139 6.97494385 -31.21384277 6.9498877 -30.29370117 6.92407227 C-26.97814546 6.82889814 -23.66276271 6.72966717 -20.34741211 6.62768555 C-18.91288997 6.58439207 -17.47831816 6.54271301 -16.04370117 6.50268555 C-13.9808048 6.44484733 -11.91815717 6.38119247 -9.85546875 6.31640625 C-8.61434326 6.27974854 -7.37321777 6.24309082 -6.09448242 6.20532227 C-2.96446653 6.12855879 -2.96446653 6.12855879 0 5 C0 3.35 0 1.7 0 0 Z " fill="#00061A" transform="translate(257,103)"/>
<path d="M0 0 C3.31933802 6.63867604 3.1101912 12.32491317 2.0625 19.4375 C1.96259766 20.16904297 1.86269531 20.90058594 1.75976562 21.65429688 C1.51502767 23.43738769 1.25872147 25.21888442 1 27 C0.67 27 0.34 27 0 27 C0 18.09 0 9.18 0 0 Z " fill="#4C6A99" transform="translate(299,226)"/>
<path d="M0 0 C0.66 0 1.32 0 2 0 C3.7694725 4.89207103 4.10376086 8.38077333 3.359375 13.51171875 C2.94847542 16.35675171 2.68745625 19.19903058 2.4375 22.0625 C2.31181641 23.47208984 2.31181641 23.47208984 2.18359375 24.91015625 C2.12300781 25.59980469 2.06242187 26.28945313 2 27 C1.67 27 1.34 27 1 27 C0.67 18.09 0.34 9.18 0 0 Z " fill="#394975" transform="translate(338,264)"/>
</svg>
