<?xml version="1.0" encoding="UTF-8"?>
<svg version="1.1" xmlns="http://www.w3.org/2000/svg" width="524" height="476">
<path d="M0 0 C0.89038467 -0.00281982 1.78076935 -0.00563965 2.69813538 -0.00854492 C4.17479675 -0.00550858 4.17479675 -0.00550858 5.68128967 -0.00241089 C6.71210159 -0.00416321 7.74291351 -0.00591553 8.80496216 -0.00772095 C12.23128414 -0.01214209 15.657555 -0.00920033 19.08387756 -0.00582886 C21.45420339 -0.00650187 23.82452915 -0.00747188 26.19485474 -0.00872803 C31.17080846 -0.0102054 36.14674427 -0.00804938 41.12269592 -0.00338745 C47.51332241 0.00230675 53.90390688 -0.00096698 60.29453182 -0.00695992 C65.1919995 -0.01056711 70.08945715 -0.00942615 74.98692513 -0.00683212 C77.34374051 -0.00616313 79.7005568 -0.0069903 82.05737114 -0.00931168 C85.34739987 -0.01184044 88.63735983 -0.00799424 91.92738342 -0.00241089 C92.90980011 -0.00443512 93.8922168 -0.00645935 94.90440369 -0.00854492 C95.79760818 -0.0057251 96.69081268 -0.00290527 97.61108398 0 C98.38962203 0.00037703 99.16816008 0.00075405 99.97029018 0.0011425 C101.86903381 0.12698364 101.86903381 0.12698364 103.86903381 1.12698364 C105.31266924 5.75854315 105.00953774 10.65742613 104.99842834 15.45950317 C105.00105682 16.85788422 105.00105682 16.85788422 105.0037384 18.28451538 C105.00813237 21.35962801 105.00522803 24.43468294 105.00184631 27.50979614 C105.00251994 29.64780692 105.00349046 31.78581761 105.00474548 33.92382812 C105.00621903 38.40089651 105.00407846 42.87794492 104.99940491 47.35501099 C104.99370093 53.09972785 104.99699303 58.84439807 105.00297737 64.58911324 C105.00658633 69.00193637 105.00544297 73.4147484 105.00284958 77.82757187 C105.0021816 79.94631836 105.00300425 82.06506586 105.00532913 84.18381119 C105.00786186 87.14031916 105.00400653 90.0967509 104.99842834 93.05325317 C105.00045258 93.93228302 105.00247681 94.81131287 105.00456238 95.71697998 C104.99270126 99.10163387 104.94682329 101.89361522 103.86903381 105.12698364 C100.85690352 106.63304879 97.7562076 106.24858695 94.45497131 106.22463989 C93.72533173 106.22322495 92.99569214 106.22181 92.24394226 106.22035217 C89.91059796 106.21474895 87.57734917 106.20219599 85.24403381 106.18948364 C83.66330603 106.18446905 82.08257675 106.17990608 80.50184631 106.17581177 C76.62420528 106.16477848 72.74663574 106.14751175 68.86903381 106.12698364 C68.87950745 107.08588501 68.88998108 108.04478638 68.90077209 109.03274536 C68.9369271 112.58479083 68.95991774 116.13681999 68.97889709 119.68899536 C68.98896499 121.22743463 69.00262028 122.76585471 69.01991272 124.30422974 C69.04412698 126.51342497 69.05550872 128.72236759 69.06434631 130.93167114 C69.07466888 131.62130951 69.08499146 132.31094788 69.09562683 133.02148438 C69.0960286 134.72499271 68.99094407 136.42784307 68.86903381 138.12698364 C66.86903381 140.12698364 66.86903381 140.12698364 63.52088928 140.35403442 C62.09262748 140.35371739 60.6643417 140.34239726 59.23622131 140.32229614 C58.48438568 140.31946625 57.73255005 140.31663635 56.95793152 140.3137207 C54.55313804 140.30251238 52.148715 140.27740716 49.74403381 140.25198364 C48.11513294 140.24195466 46.48622623 140.23282867 44.85731506 140.22463989 C40.86107826 140.20257099 36.86511887 140.16803715 32.86903381 140.12698364 C32.87902657 141.37606255 32.87902657 141.37606255 32.88922119 142.65037537 C32.94930075 150.49311453 32.99499209 158.33577655 33.02447033 166.17869282 C33.04013483 170.21095397 33.06138712 174.24302518 33.09535217 178.275177 C33.12791811 182.16552284 33.14588092 186.05568584 33.15366554 189.94615746 C33.15921407 191.43135647 33.17004892 192.91654534 33.18622398 194.40166664 C33.20796232 196.48000437 33.21100237 198.55758396 33.20960999 200.63601685 C33.21960274 202.4113958 33.21960274 202.4113958 33.22979736 204.22264099 C32.86903381 207.12698364 32.86903381 207.12698364 31.53300476 209.00564575 C28.88584613 210.78954666 26.440549 210.56954101 23.28700256 210.63870239 C22.63637344 210.65665359 21.98574432 210.6746048 21.31539917 210.69309998 C19.22917911 210.74716728 17.14317406 210.78093327 15.05653381 210.81448364 C13.69517352 210.84769546 12.33384385 210.88218864 10.97254944 210.91799927 C-1.86694955 211.235417 -14.67598275 211.25160126 -27.50596619 210.62698364 C-28.53979431 210.57928833 -29.57362244 210.53159302 -30.63877869 210.48245239 C-33.13632362 210.36682531 -35.63369375 210.24832952 -38.13096619 210.12698364 C-38.12049255 211.01482544 -38.11001892 211.90266724 -38.09922791 212.81741333 C-38.06508862 216.11984872 -38.04003951 219.42209582 -38.02110291 222.72463989 C-38.01106191 224.15240442 -37.99742638 225.58014847 -37.98008728 227.00784302 C-37.95575467 229.06323305 -37.94446417 231.11835056 -37.93565369 233.17385864 C-37.92518005 234.40974731 -37.91470642 235.64563599 -37.90391541 236.91897583 C-38.2471462 241.76849478 -38.2471462 241.76849478 -40.13096619 244.12698364 C-43.92109775 245.40179663 -47.77436796 245.2427672 -51.74424744 245.22463989 C-52.99141541 245.22141724 -54.23858337 245.21819458 -55.52354431 245.21487427 C-56.81711853 245.20649536 -58.11069275 245.19811646 -59.44346619 245.18948364 C-61.41283142 245.18271606 -61.41283142 245.18271606 -63.42198181 245.17581177 C-66.65835629 245.16404313 -69.89463796 245.14760124 -73.13096619 245.12698364 C-74.15038833 252.11730694 -74.44696542 259.07140419 -74.69346619 266.12698364 C-74.73664978 267.28327271 -74.77983337 268.43956177 -74.82432556 269.63088989 C-74.92964536 272.46282218 -75.03177706 275.29483112 -75.13096619 278.12698364 C-78.14309648 279.63304879 -81.2437924 279.24858695 -84.54502869 279.22463989 C-85.27466827 279.22322495 -86.00430786 279.22181 -86.75605774 279.22035217 C-89.08940204 279.21474895 -91.42265083 279.20219599 -93.75596619 279.18948364 C-95.33669397 279.18446905 -96.91742325 279.17990608 -98.49815369 279.17581177 C-102.37579472 279.16477848 -106.25336426 279.14751175 -110.13096619 279.12698364 C-110.10740051 280.61077515 -110.10740051 280.61077515 -110.08335876 282.12454224 C-110.02913159 285.78835941 -109.99464283 289.45214101 -109.96617126 293.11624146 C-109.95106805 294.70321616 -109.93058396 296.29014902 -109.90464783 297.87698364 C-109.86833024 300.15573437 -109.85125596 302.43393423 -109.83799744 304.71292114 C-109.82251358 305.42443329 -109.80702972 306.13594543 -109.79107666 306.86901855 C-109.79039001 308.87063599 -109.79039001 308.87063599 -110.13096619 312.12698364 C-113.77401482 314.55568273 -116.43818958 314.3837404 -120.64268494 314.32229614 C-121.37090958 314.31946625 -122.09913422 314.31663635 -122.84942627 314.3137207 C-125.17260756 314.30253621 -127.49540165 314.27743531 -129.81846619 314.25198364 C-131.39463249 314.24195158 -132.97080484 314.23282612 -134.54698181 314.22463989 C-138.40845885 314.20260261 -142.2696469 314.16808505 -146.13096619 314.12698364 C-146.12049255 315.08588501 -146.11001892 316.04478638 -146.09922791 317.03274536 C-146.0630729 320.58479083 -146.04008226 324.13681999 -146.02110291 327.68899536 C-146.01103501 329.22743463 -145.99737972 330.76585471 -145.98008728 332.30422974 C-145.95587302 334.51342497 -145.94449128 336.72236759 -145.93565369 338.93167114 C-145.92016983 339.96612869 -145.92016983 339.96612869 -145.90437317 341.02148438 C-145.9039714 342.72499271 -146.00905593 344.42784307 -146.13096619 346.12698364 C-148.13096619 348.12698364 -148.13096619 348.12698364 -150.99098206 348.36749268 C-152.21231842 348.36305145 -153.43365479 348.35861023 -154.69200134 348.35403442 C-155.36528976 348.35432648 -156.03857819 348.35461853 -156.73226929 348.35491943 C-158.96165272 348.35352412 -161.19070351 348.33795381 -163.42002869 348.32229614 C-164.96416542 348.31856672 -166.50830452 348.31571941 -168.05244446 348.3137207 C-172.11972062 348.30607864 -176.18685429 348.28642532 -180.2540741 348.26431274 C-184.40312268 348.2438666 -188.55219426 348.23472163 -192.70127869 348.22463989 C-200.84457329 348.20317989 -208.98775202 348.16903713 -217.13096619 348.12698364 C-217.12572937 349.08588501 -217.12049255 350.04478638 -217.11509705 351.03274536 C-217.0970194 354.58481923 -217.08552404 358.13688902 -217.07603455 361.68899536 C-217.07100067 363.22741377 -217.06417311 364.76582739 -217.05552673 366.30422974 C-217.0434198 368.5133889 -217.0377285 370.7224849 -217.03330994 372.93167114 C-217.02814865 373.62130951 -217.02298737 374.31094788 -217.01766968 375.02148438 C-217.01709448 379.89924023 -217.01709448 379.89924023 -218.13096619 382.12698364 C-225.01979764 383.62219244 -232.42912421 383.2807506 -239.44346619 383.25198364 C-240.40575134 383.25585083 -241.3680365 383.25971802 -242.35948181 383.26370239 C-243.29082947 383.26241333 -244.22217712 383.26112427 -245.18174744 383.25979614 C-246.01359558 383.25866821 -246.84544373 383.25754028 -247.70249939 383.25637817 C-250.28833691 383.11859855 -252.63174757 382.81102592 -255.13096619 382.12698364 C-256.61004889 379.16881823 -256.25297944 376.17249452 -256.22862244 372.93167114 C-256.22612488 371.63729126 -256.22362732 370.34291138 -256.22105408 369.00930786 C-256.21195007 367.35689087 -256.20284607 365.70447388 -256.19346619 364.00198364 C-256.16252869 356.14385864 -256.16252869 356.14385864 -256.13096619 348.12698364 C-267.35096619 348.12698364 -278.57096619 348.12698364 -290.13096619 348.12698364 C-291.62546817 345.13797967 -291.31433037 342.06240545 -291.33409119 338.78323364 C-291.33979126 338.0583374 -291.34549133 337.33344116 -291.35136414 336.58657837 C-291.36081221 335.05334941 -291.36734736 333.52010015 -291.37120056 331.98684692 C-291.3809286 329.63606687 -291.41196109 327.28615299 -291.44346619 324.93557739 C-291.44999406 323.44730135 -291.45524538 321.95901904 -291.45909119 320.47073364 C-291.47143799 319.76549561 -291.48378479 319.06025757 -291.49650574 318.33364868 C-291.4874115 316.35159302 -291.4874115 316.35159302 -291.13096619 313.12698364 C-287.53652436 310.73068909 -284.98234966 310.86917034 -280.83799744 310.93167114 C-279.77895454 310.93591599 -279.77895454 310.93591599 -278.69851685 310.94024658 C-276.44665986 310.95142901 -274.19520267 310.97652944 -271.94346619 311.00198364 C-270.41547714 311.01201598 -268.88748186 311.02114139 -267.35948181 311.02932739 C-263.61648956 311.05136192 -259.87379563 311.08587797 -256.13096619 311.12698364 C-256.1331868 310.31932053 -256.13540741 309.51165741 -256.13769531 308.67951965 C-256.15772309 301.07220778 -256.17295304 293.46490867 -256.18277836 285.85757732 C-256.18799943 281.94647282 -256.19508304 278.03539008 -256.20640564 274.1242981 C-256.21726203 270.35067849 -256.22324888 266.57707983 -256.22584343 262.80344582 C-256.2276927 261.36293012 -256.23130381 259.92241559 -256.23669624 258.4819088 C-256.24394304 256.46606945 -256.24437456 254.45020906 -256.24449158 252.43435669 C-256.24671219 251.28630051 -256.2489328 250.13824432 -256.2512207 248.95539856 C-256.13096619 246.12698364 -256.13096619 246.12698364 -255.13096619 243.12698364 C-252.11034944 242.95525315 -249.08957865 242.78957442 -246.06846619 242.62698364 C-244.8261322 242.55544067 -244.8261322 242.55544067 -243.55870056 242.48245239 C-235.74532199 242.06967013 -227.95309036 242.0795169 -220.13096619 242.12698364 C-220.14143982 241.16808228 -220.15191345 240.20918091 -220.16270447 239.22122192 C-220.19885947 235.66917645 -220.22185012 232.1171473 -220.24082947 228.56497192 C-220.25089736 227.02653266 -220.26455265 225.48811257 -220.28184509 223.94973755 C-220.30605935 221.74054232 -220.31744109 219.53159969 -220.32627869 217.32229614 C-220.33660126 216.63265778 -220.34692383 215.94301941 -220.3575592 215.23248291 C-220.35796097 213.52897458 -220.25287644 211.82612422 -220.13096619 210.12698364 C-218.13096619 208.12698364 -218.13096619 208.12698364 -214.78282166 207.89993286 C-213.35455985 207.90024989 -211.92627407 207.91157003 -210.49815369 207.93167114 C-209.37040024 207.93591599 -209.37040024 207.93591599 -208.21986389 207.94024658 C-205.81507041 207.9514549 -203.41064738 207.97656012 -201.00596619 208.00198364 C-199.37706531 208.01201263 -197.7481586 208.02113862 -196.11924744 208.02932739 C-192.12301063 208.05139629 -188.12705125 208.08593014 -184.13096619 208.12698364 C-184.14667664 207.13778931 -184.16238708 206.14859497 -184.17857361 205.12942505 C-184.23280079 201.46560788 -184.26728954 197.80182628 -184.29576111 194.13772583 C-184.31086433 192.55075113 -184.33134841 190.96381827 -184.35728455 189.37698364 C-184.39360214 187.09823291 -184.41067642 184.82003306 -184.42393494 182.54104614 C-184.44716072 181.47377792 -184.44716072 181.47377792 -184.47085571 180.38494873 C-184.47154236 178.3833313 -184.47154236 178.3833313 -184.13096619 175.12698364 C-180.48838325 172.69859502 -177.82436416 172.86995625 -173.61924744 172.93167114 C-172.97354797 172.9336853 -172.32784851 172.93569946 -171.6625824 172.93777466 C-169.25613781 172.94821966 -166.84979469 172.97614234 -164.44346619 173.00198364 C-156.36877869 173.06385864 -156.36877869 173.06385864 -148.13096619 173.12698364 C-148.13096619 162.23698364 -148.13096619 151.34698364 -148.13096619 140.12698364 C-143.31165794 138.19926034 -140.90969062 137.89012171 -135.86143494 137.93167114 C-135.18043228 137.93450104 -134.49942963 137.93733093 -133.79779053 137.94024658 C-131.63783164 137.95137839 -129.47829825 137.97646908 -127.31846619 138.00198364 C-125.84776908 138.01202253 -124.37706543 138.02114679 -122.90635681 138.02932739 C-119.31442333 138.05129451 -115.72273634 138.08577544 -112.13096619 138.12698364 C-112.13540741 137.29204376 -112.13984863 136.45710388 -112.14442444 135.59686279 C-112.18445211 127.73907739 -112.21492556 119.8813261 -112.23459053 112.0234623 C-112.24504025 107.983381 -112.25922099 103.94338375 -112.28184509 99.90335083 C-112.3035313 96.00653631 -112.31552585 92.10980278 -112.32072067 88.21293259 C-112.32442405 86.72413228 -112.33165557 85.23533654 -112.3424263 83.74657059 C-112.35688538 81.66575698 -112.35894651 79.58528058 -112.35801697 77.50442505 C-112.36245819 76.31861847 -112.36689941 75.13281189 -112.37147522 73.91107178 C-112.13096619 71.12698364 -112.13096619 71.12698364 -110.13096619 69.12698364 C-107.27095032 68.84851074 -107.27095032 68.84851074 -103.56993103 68.80813599 C-102.89664261 68.79809036 -102.22335419 68.78804474 -101.52966309 68.7776947 C-99.30041878 68.74676182 -97.07129509 68.72979996 -94.84190369 68.71292114 C-93.29775446 68.69421757 -91.75361554 68.67464477 -90.20948792 68.65423584 C-86.14233973 68.60282274 -82.07515838 68.56324637 -78.00785828 68.52609253 C-73.85870599 68.48611021 -69.70969277 68.43499163 -65.56065369 68.38479614 C-57.41751938 68.28792828 -49.27431647 68.2035585 -41.13096619 68.12698364 C-41.136203 67.51290649 -41.14143982 66.89882935 -41.14683533 66.2661438 C-41.16788747 63.42810123 -41.18071481 60.59007518 -41.19346619 57.75198364 C-41.20184509 56.78647583 -41.210224 55.82096802 -41.21885681 54.82620239 C-41.23998923 48.52874075 -40.89203816 42.37858501 -40.13096619 36.12698364 C-35.72921834 34.44207619 -32.12324444 33.88852237 -27.42002869 33.93167114 C-26.17608337 33.93811646 -24.93213806 33.94456177 -23.65049744 33.95120239 C-22.36530212 33.96796021 -21.08010681 33.98471802 -19.75596619 34.00198364 C-18.44756775 34.01100708 -17.13916931 34.02003052 -15.79112244 34.02932739 C-12.57088249 34.05283279 -9.35101911 34.08569277 -6.13096619 34.12698364 C-6.14836853 32.69032349 -6.14836853 32.69032349 -6.16612244 31.22463989 C-6.2281522 23.69804333 -6.11741921 16.20559966 -5.69346619 8.68948364 C-5.65423035 7.95028687 -5.61499451 7.21109009 -5.5745697 6.44949341 C-5.17814825 0.00250886 -5.17814825 0.00250886 0 0 Z " fill="#707378" transform="translate(310.13096618652344,45.873016357421875)"/>
<path d="M0 0 C0.89038467 -0.00281982 1.78076935 -0.00563965 2.69813538 -0.00854492 C4.17479675 -0.00550858 4.17479675 -0.00550858 5.68128967 -0.00241089 C6.71210159 -0.00416321 7.74291351 -0.00591553 8.80496216 -0.00772095 C12.23128414 -0.01214209 15.657555 -0.00920033 19.08387756 -0.00582886 C21.45420339 -0.00650187 23.82452915 -0.00747188 26.19485474 -0.00872803 C31.17080846 -0.0102054 36.14674427 -0.00804938 41.12269592 -0.00338745 C47.51332241 0.00230675 53.90390688 -0.00096698 60.29453182 -0.00695992 C65.1919995 -0.01056711 70.08945715 -0.00942615 74.98692513 -0.00683212 C77.34374051 -0.00616313 79.7005568 -0.0069903 82.05737114 -0.00931168 C85.34739987 -0.01184044 88.63735983 -0.00799424 91.92738342 -0.00241089 C92.90980011 -0.00443512 93.8922168 -0.00645935 94.90440369 -0.00854492 C95.79760818 -0.0057251 96.69081268 -0.00290527 97.61108398 0 C98.38962203 0.00037703 99.16816008 0.00075405 99.97029018 0.0011425 C101.86903381 0.12698364 101.86903381 0.12698364 103.86903381 1.12698364 C105.31266924 5.75854315 105.00953774 10.65742613 104.99842834 15.45950317 C105.00105682 16.85788422 105.00105682 16.85788422 105.0037384 18.28451538 C105.00813237 21.35962801 105.00522803 24.43468294 105.00184631 27.50979614 C105.00251994 29.64780692 105.00349046 31.78581761 105.00474548 33.92382812 C105.00621903 38.40089651 105.00407846 42.87794492 104.99940491 47.35501099 C104.99370093 53.09972785 104.99699303 58.84439807 105.00297737 64.58911324 C105.00658633 69.00193637 105.00544297 73.4147484 105.00284958 77.82757187 C105.0021816 79.94631836 105.00300425 82.06506586 105.00532913 84.18381119 C105.00786186 87.14031916 105.00400653 90.0967509 104.99842834 93.05325317 C105.00045258 93.93228302 105.00247681 94.81131287 105.00456238 95.71697998 C104.99270126 99.10163387 104.94682329 101.89361522 103.86903381 105.12698364 C100.85690352 106.63304879 97.7562076 106.24858695 94.45497131 106.22463989 C93.72533173 106.22322495 92.99569214 106.22181 92.24394226 106.22035217 C89.91059796 106.21474895 87.57734917 106.20219599 85.24403381 106.18948364 C83.66330603 106.18446905 82.08257675 106.17990608 80.50184631 106.17581177 C76.62420528 106.16477848 72.74663574 106.14751175 68.86903381 106.12698364 C68.87950745 107.08588501 68.88998108 108.04478638 68.90077209 109.03274536 C68.9369271 112.58479083 68.95991774 116.13681999 68.97889709 119.68899536 C68.98896499 121.22743463 69.00262028 122.76585471 69.01991272 124.30422974 C69.04412698 126.51342497 69.05550872 128.72236759 69.06434631 130.93167114 C69.07466888 131.62130951 69.08499146 132.31094788 69.09562683 133.02148438 C69.0960286 134.72499271 68.99094407 136.42784307 68.86903381 138.12698364 C66.86903381 140.12698364 66.86903381 140.12698364 63.33729553 140.35403442 C61.82440055 140.35353396 60.3114818 140.34247476 58.79872131 140.32229614 C57.74019958 140.3192749 57.74019958 140.3192749 56.66029358 140.31619263 C54.02147431 140.30572 51.38274761 140.2777974 48.74403381 140.25198364 C39.89590881 140.19010864 39.89590881 140.19010864 30.86903381 140.12698364 C30.86903381 162.56698364 30.86903381 185.00698364 30.86903381 208.12698364 C7.76903381 208.12698364 -15.33096619 208.12698364 -39.13096619 208.12698364 C-39.13096619 196.90698364 -39.13096619 185.68698364 -39.13096619 174.12698364 C-27.58096619 174.12698364 -16.03096619 174.12698364 -4.13096619 174.12698364 C-4.13096619 162.57698364 -4.13096619 151.02698364 -4.13096619 139.12698364 C-15.68096619 139.12698364 -27.23096619 139.12698364 -39.13096619 139.12698364 C-39.13096619 127.57698364 -39.13096619 116.02698364 -39.13096619 104.12698364 C-51.34096619 104.12698364 -63.55096619 104.12698364 -76.13096619 104.12698364 C-76.13096619 115.67698364 -76.13096619 127.22698364 -76.13096619 139.12698364 C-87.68096619 139.12698364 -99.23096619 139.12698364 -111.13096619 139.12698364 C-111.171075 121.94704364 -111.171075 121.94704364 -111.17979431 114.64846802 C-111.18578224 109.65976911 -111.19288122 104.67108848 -111.20640564 99.68240356 C-111.21723627 95.66240679 -111.22324339 91.64242959 -111.22584343 87.62241936 C-111.22769736 86.08535389 -111.23131737 84.54828955 -111.23669624 83.01123238 C-111.24390903 80.86562878 -111.24495703 78.72010709 -111.24449158 76.57449341 C-111.24671219 75.35093643 -111.2489328 74.12737946 -111.2512207 72.866745 C-111.13096619 70.12698364 -111.13096619 70.12698364 -110.13096619 69.12698364 C-107.98428334 69.00301493 -105.83354232 68.94897644 -103.68345642 68.92166138 C-103.01031403 68.91176178 -102.33717163 68.90186218 -101.64363098 68.8916626 C-99.40897694 68.85996526 -97.17430161 68.8352579 -94.93955994 68.81057739 C-93.39398634 68.79001495 -91.84841847 68.76901868 -90.30285645 68.74760437 C-86.22745887 68.69231027 -82.15200993 68.64293351 -78.07652283 68.59475708 C-73.92079578 68.54459548 -69.76514367 68.4888816 -65.60948181 68.43362427 C-57.45003988 68.32595301 -49.29053543 68.22452812 -41.13096619 68.12698364 C-41.136203 67.51290649 -41.14143982 66.89882935 -41.14683533 66.2661438 C-41.16788747 63.42810123 -41.18071481 60.59007518 -41.19346619 57.75198364 C-41.20184509 56.78647583 -41.210224 55.82096802 -41.21885681 54.82620239 C-41.23998923 48.52874075 -40.89203816 42.37858501 -40.13096619 36.12698364 C-35.72921834 34.44207619 -32.12324444 33.88852237 -27.42002869 33.93167114 C-26.17608337 33.93811646 -24.93213806 33.94456177 -23.65049744 33.95120239 C-21.72270447 33.97633911 -21.72270447 33.97633911 -19.75596619 34.00198364 C-18.44756775 34.01100708 -17.13916931 34.02003052 -15.79112244 34.02932739 C-12.57088249 34.05283279 -9.35101911 34.08569277 -6.13096619 34.12698364 C-6.14256775 33.16921021 -6.15416931 32.21143677 -6.16612244 31.22463989 C-6.2281522 23.69804333 -6.11741921 16.20559966 -5.69346619 8.68948364 C-5.65423035 7.95028687 -5.61499451 7.21109009 -5.5745697 6.44949341 C-5.17814825 0.00250886 -5.17814825 0.00250886 0 0 Z " fill="#040404" transform="translate(310.13096618652344,45.873016357421875)"/>
<path d="M0 0 C11.88 0 23.76 0 36 0 C36 11.22 36 22.44 36 34 C47.55 34 59.1 34 71 34 C71 45.22 71 56.44 71 68 C59.45 68 47.9 68 36 68 C36 79.55 36 91.1 36 103 C47.55 103 59.1 103 71 103 C71 103.33 71 103.66 71 104 C67.06711636 104.93087909 63.42345837 105.11608885 59.38671875 105.09765625 C57.5159668 105.09282227 57.5159668 105.09282227 55.60742188 105.08789062 C54.31384766 105.07951172 53.02027344 105.07113281 51.6875 105.0625 C49.71813477 105.05573242 49.71813477 105.05573242 47.70898438 105.04882812 C44.4726099 105.03705949 41.23632822 105.0206176 38 105 C36.98057785 111.9903233 36.68400077 118.94442055 36.4375 126 C36.37272461 127.73443359 36.37272461 127.73443359 36.30664062 129.50390625 C36.20132083 132.33583854 36.09918913 135.16784747 36 138 C35.67 138 35.34 138 35 138 C35 126.45 35 114.9 35 103 C0.02 103 -34.96 103 -71 103 C-71 91.78 -71 80.56 -71 69 C-59.45 69 -47.9 69 -36 69 C-36 57.45 -36 45.9 -36 34 C-24.12 34 -12.24 34 0 34 C0 22.78 0 11.56 0 0 Z " fill="#DFE1E0" transform="translate(199,186)"/>
<path d="M0 0 C0.33 0 0.66 0 1 0 C1 22.44 1 44.88 1 68 C12.55 68 24.1 68 36 68 C36 56.45 36 44.9 36 33 C48.21 33 60.42 33 73 33 C73 44.55 73 56.1 73 68 C84.55 68 96.1 68 108 68 C108 79.55 108 91.1 108 103 C96.45 103 84.9 103 73 103 C73 114.22 73 125.44 73 137 C96.1 137 119.2 137 143 137 C143 114.56 143 92.12 143 69 C143.66 69 144.32 69 145 69 C145.06947174 77.6838625 145.1227967 86.36762954 145.15543652 95.05170918 C145.17110102 99.08397033 145.1923533 103.11604153 145.22631836 107.14819336 C145.25888429 111.0385392 145.27684711 114.9287022 145.28463173 118.81917381 C145.29018026 120.30437283 145.30101511 121.7895617 145.31719017 123.274683 C145.33892851 125.35302072 145.34196856 127.43060032 145.34057617 129.5090332 C145.35056892 131.28441216 145.35056892 131.28441216 145.36076355 133.09565735 C145 136 145 136 143.66397095 137.87866211 C141.01681231 139.66256302 138.57151519 139.44255736 135.41796875 139.51171875 C134.76733963 139.52966995 134.11671051 139.54762115 133.44636536 139.56611633 C131.36014529 139.62018364 129.27414024 139.65394962 127.1875 139.6875 C125.82613971 139.72071181 124.46481004 139.755205 123.10351562 139.79101562 C110.26401664 140.10843336 97.45498344 140.12461761 84.625 139.5 C83.59117187 139.45230469 82.55734375 139.40460938 81.4921875 139.35546875 C78.99464257 139.23984167 76.49727243 139.12134588 74 139 C74.00523682 139.89307861 74.01047363 140.78615723 74.01586914 141.70629883 C74.03291786 145.02173508 74.04545347 148.3371247 74.05493164 151.65258789 C74.05995842 153.08716568 74.06678079 154.52173836 74.07543945 155.95629883 C74.08757752 158.01905582 74.09324486 160.08174504 74.09765625 162.14453125 C74.10289307 163.38565674 74.10812988 164.62678223 74.11352539 165.90551758 C74 169 74 169 73 172 C61.12 172 49.24 172 37 172 C37 160.45 37 148.9 37 137 C48.55 137 60.1 137 72 137 C72 125.78 72 114.56 72 103 C60.45 103 48.9 103 37 103 C37 91.78 37 80.56 37 69 C25.12 69 13.24 69 1 69 C1 80.22 1 91.44 1 103 C-10.88 103 -22.76 103 -35 103 C-35 91.45 -35 79.9 -35 68 C-23.67705205 65.16926301 -11.6714276 67 0 67 C0 44.89 0 22.78 0 0 Z " fill="#4D4E50" transform="translate(198,117)"/>
<path d="M0 0 C0.33 0 0.66 0 1 0 C1 11.22 1 22.44 1 34 C12.55 34 24.1 34 36 34 C36 45.22 36 56.44 36 68 C24.45 68 12.9 68 1 68 C1 79.55 1 91.1 1 103 C12.55 103 24.1 103 36 103 C36 103.33 36 103.66 36 104 C32.06711636 104.93087909 28.42345837 105.11608885 24.38671875 105.09765625 C22.5159668 105.09282227 22.5159668 105.09282227 20.60742188 105.08789062 C19.31384766 105.07951172 18.02027344 105.07113281 16.6875 105.0625 C14.71813477 105.05573242 14.71813477 105.05573242 12.70898438 105.04882812 C9.4726099 105.03705949 6.23632822 105.0206176 3 105 C1.98057785 111.9903233 1.68400077 118.94442055 1.4375 126 C1.37272461 127.73443359 1.37272461 127.73443359 1.30664062 129.50390625 C1.20132083 132.33583854 1.09918913 135.16784747 1 138 C0.67 138 0.34 138 0 138 C0 126.45 0 114.9 0 103 C-11.55 103 -23.1 103 -35 103 C-35 91.78 -35 80.56 -35 69 C-23.45 69 -11.9 69 0 69 C0 46.23 0 23.46 0 0 Z " fill="#999E9F" transform="translate(234,186)"/>
<path d="M0 0 C11.55 0 23.1 0 35 0 C35.020625 5.754375 35.04125 11.50875 35.0625 17.4375 C35.071604 19.25564209 35.08070801 21.07378418 35.09008789 22.94702148 C35.09300711 24.38004482 35.09555566 25.81306898 35.09765625 27.24609375 C35.10277222 27.99669067 35.10788818 28.7472876 35.11315918 29.52062988 C35.11346992 31.34747601 35.06231113 33.17421683 35 35 C34 36 34 36 30.85717773 36.11352539 C29.46597304 36.11327441 28.07476209 36.10771709 26.68359375 36.09765625 C26.03588013 36.09664917 25.3881665 36.09564209 24.7208252 36.09460449 C22.29303221 36.08935843 19.86526439 36.07539725 17.4375 36.0625 C9.3009375 36.0315625 9.3009375 36.0315625 1 36 C1 46.89 1 57.78 1 69 C-11.21 69 -23.42 69 -36 69 C-36 57.78 -36 46.56 -36 35 C-24.12 35 -12.24 35 0 35 C0 23.45 0 11.9 0 0 Z " fill="#040506" transform="translate(199,289)"/>
<path d="M0 0 C11.55 0 23.1 0 35 0 C35 22.44 35 44.88 35 68 C23.45 68 11.9 68 0 68 C0 45.56 0 23.12 0 0 Z " fill="#020203" transform="translate(56,290)"/>
<path d="M0 0 C23.1 0 46.2 0 70 0 C70 10.89 70 21.78 70 33 C66.62021442 34.12659519 64.07183864 34.12020983 60.5090332 34.11352539 C59.52814224 34.11374443 59.52814224 34.11374443 58.5274353 34.1139679 C56.36851674 34.11327188 54.20968472 34.10549408 52.05078125 34.09765625 C50.55291287 34.09579096 49.05504389 34.09436758 47.55717468 34.09336853 C43.61654981 34.08955207 39.67596186 34.0797292 35.73535156 34.06866455 C31.00632235 34.05663231 26.2772808 34.05204404 21.54824066 34.04621124 C14.36546811 34.03651699 7.18277653 34.01735436 0 34 C0 22.78 0 11.56 0 0 Z " fill="#020203" transform="translate(92,359)"/>
<path d="M0 0 C0.33 0 0.66 0 1 0 C1 11.22 1 22.44 1 34 C12.88 34 24.76 34 37 34 C37 45.88 37 57.76 37 70 C25.12 70 13.24 70 1 70 C1 58.45 1 46.9 1 35 C-10.55 35 -22.1 35 -34 35 C-34 34.67 -34 34.34 -34 34 C-30.06711636 33.06912091 -26.42345837 32.88391115 -22.38671875 32.90234375 C-21.13955078 32.90556641 -19.89238281 32.90878906 -18.60742188 32.91210938 C-17.31384766 32.92048828 -16.02027344 32.92886719 -14.6875 32.9375 C-12.71813477 32.94426758 -12.71813477 32.94426758 -10.70898438 32.95117188 C-7.4726099 32.96294051 -4.23632822 32.9793824 -1 33 C-1.01160156 32.04222656 -1.02320313 31.08445312 -1.03515625 30.09765625 C-1.11687332 20.02602697 -0.69627964 10.04632047 0 0 Z " fill="#585A5C" transform="translate(305,47)"/>
<path d="M0 0 C11.88 0 23.76 0 36 0 C36 11.55 36 23.1 36 35 C24.12 35 12.24 35 0 35 C0 23.45 0 11.9 0 0 Z " fill="#466AA5" transform="translate(163,289)"/>
<path d="M0 0 C11.88 0 23.76 0 36 0 C36 11.22 36 22.44 36 34 C31.03371566 34.02290956 26.06761337 34.04283643 21.10131836 34.05493164 C19.41055684 34.0599719 17.71979971 34.06680405 16.02905273 34.07543945 C13.60399293 34.08751857 11.17899056 34.09323123 8.75390625 34.09765625 C7.61327477 34.10539818 7.61327477 34.10539818 6.44960022 34.11329651 C4.6326743 34.11349238 2.81586873 34.06197277 1 34 C0 33 0 33 -0.11352539 29.85717773 C-0.11327441 28.46597304 -0.10771709 27.07476209 -0.09765625 25.68359375 C-0.09664917 25.03588013 -0.09564209 24.3881665 -0.09460449 23.7208252 C-0.08935843 21.29303221 -0.07539725 18.86526439 -0.0625 16.4375 C-0.041875 11.013125 -0.02125 5.58875 0 0 Z " fill="#060607" transform="translate(19,359)"/>
<path d="M0 0 C11.55 0 23.1 0 35 0 C35 11.22 35 22.44 35 34 C23.45 34 11.9 34 0 34 C0 22.78 0 11.56 0 0 Z " fill="#020304" transform="translate(56,393)"/>
<path d="M0 0 C11.55 0 23.1 0 35 0 C35 11.22 35 22.44 35 34 C23.45 34 11.9 34 0 34 C0 22.78 0 11.56 0 0 Z " fill="#466BAA" transform="translate(56,359)"/>
<path d="M0 0 C11.55 0 23.1 0 35 0 C35 11.22 35 22.44 35 34 C23.45 34 11.9 34 0 34 C0 22.78 0 11.56 0 0 Z " fill="#CABB70" transform="translate(92,324)"/>
<path d="M0 0 C11.55 0 23.1 0 35 0 C35 11.22 35 22.44 35 34 C23.45 34 11.9 34 0 34 C0 22.78 0 11.56 0 0 Z " fill="#020203" transform="translate(235,255)"/>
<path d="M0 0 C11.55 0 23.1 0 35 0 C35 11.22 35 22.44 35 34 C23.45 34 11.9 34 0 34 C0 22.78 0 11.56 0 0 Z " fill="#B3B7B9" transform="translate(199,255)"/>
<path d="M0 0 C11.55 0 23.1 0 35 0 C35 11.22 35 22.44 35 34 C23.45 34 11.9 34 0 34 C0 22.78 0 11.56 0 0 Z " fill="#020203" transform="translate(92,255)"/>
<path d="M0 0 C11.55 0 23.1 0 35 0 C35 11.22 35 22.44 35 34 C23.45 34 11.9 34 0 34 C0 22.78 0 11.56 0 0 Z " fill="#FCFCFC" transform="translate(164,221)"/>
<path d="M0 0 C11.55 0 23.1 0 35 0 C35 11.22 35 22.44 35 34 C23.45 34 11.9 34 0 34 C0 22.78 0 11.56 0 0 Z " fill="#040404" transform="translate(127,220)"/>
<path d="M0 0 C11.55 0 23.1 0 35 0 C35 11.22 35 22.44 35 34 C23.45 34 11.9 34 0 34 C0 22.78 0 11.56 0 0 Z " fill="#040404" transform="translate(163,186)"/>
<path d="M0 0 C11.55 0 23.1 0 35 0 C35 11.22 35 22.44 35 34 C23.45 34 11.9 34 0 34 C0 22.78 0 11.56 0 0 Z " fill="#5A5D5E" transform="translate(235,151)"/>
<path d="M0 0 C11.22 0 22.44 0 34 0 C34 11.22 34 22.44 34 34 C22.78 34 11.56 34 0 34 C0 22.78 0 11.56 0 0 Z " fill="#FCFCFC" transform="translate(200,186)"/>
<path d="M0 0 C11.55 0 23.1 0 35 0 C35 10.89 35 21.78 35 33 C23.45 33 11.9 33 0 33 C0 22.11 0 11.22 0 0 Z " fill="#FCFCF9" transform="translate(128,256)"/>
<path d="M0 0 C11.55 0 23.1 0 35 0 C35 10.89 35 21.78 35 33 C23.45 33 11.9 33 0 33 C0 22.11 0 11.22 0 0 Z " fill="#020202" transform="translate(235,186)"/>
<path d="M0 0 C11.22 0 22.44 0 34 0 C34.020625 5.07375 34.04125 10.1475 34.0625 15.375 C34.071604 16.97520996 34.08070801 18.57541992 34.09008789 20.22412109 C34.09258545 21.47789551 34.09508301 22.73166992 34.09765625 24.0234375 C34.10289307 25.31169434 34.10812988 26.59995117 34.11352539 27.92724609 C34 31 34 31 33 33 C22.11 33 11.22 33 0 33 C0 22.11 0 11.22 0 0 Z " fill="#456CAC" transform="translate(92,290)"/>
<path d="M0 0 C10.89 0 21.78 0 33 0 C33 10.89 33 21.78 33 33 C21.78 33 10.56 33 -1 33 C-1.020625 29.82375 -1.04125 26.6475 -1.0625 23.375 C-1.071604 22.3854834 -1.08070801 21.3959668 -1.09008789 20.37646484 C-1.10450004 15.77666321 -0.80724512 11.53837022 0 7 C0 4.69 0 2.38 0 0 Z " fill="#030304" transform="translate(165,325)"/>
<path d="M0 0 C10.89 0 21.78 0 33 0 C33 10.23 33 20.46 33 31 C22.11 31 11.22 31 0 31 C0 20.77 0 10.54 0 0 Z " fill="#466BAC" transform="translate(129,326)"/>
<path d="M0 0 C5.094375 -0.020625 10.18875 -0.04125 15.4375 -0.0625 C17.04681396 -0.071604 18.65612793 -0.08070801 20.31420898 -0.09008789 C21.57048096 -0.09258545 22.82675293 -0.09508301 24.12109375 -0.09765625 C26.06133423 -0.10551147 26.06133423 -0.10551147 28.04077148 -0.11352539 C31 0 31 0 32 1 C32.08783542 3.21855264 32.10694609 5.43988496 32.09765625 7.66015625 C32.09515869 8.87582275 32.09266113 10.09148926 32.09008789 11.34399414 C32.08098389 12.90110107 32.07187988 14.45820801 32.0625 16.0625 C32.041875 20.991875 32.02125 25.92125 32 31 C21.44 31 10.88 31 0 31 C0 20.77 0 10.54 0 0 Z " fill="#F0D93A" transform="translate(129,291)"/>
<path d="M0 0 C11.88 0 23.76 0 36 0 C36 11.22 36 22.44 36 34 C47.88 34 59.76 34 72 34 C70 36 70 36 66.74365234 36.22705078 C65.35770705 36.22673382 63.97173699 36.21541759 62.5859375 36.1953125 C61.85629791 36.1924826 61.12665833 36.18965271 60.37490845 36.18673706 C58.04143972 36.17553002 55.70835297 36.1504251 53.375 36.125 C51.79427637 36.11497085 50.21354673 36.10584489 48.6328125 36.09765625 C44.75506086 36.07558905 40.87759522 36.04105615 37 36 C37.01047363 36.95890137 37.02094727 37.91780273 37.03173828 38.90576172 C37.06789328 42.45780719 37.09088393 46.00983634 37.10986328 49.56201172 C37.11993118 51.10045098 37.13358646 52.63887107 37.15087891 54.17724609 C37.17509317 56.38644133 37.18647491 58.59538395 37.1953125 60.8046875 C37.20563507 61.49432587 37.21595764 62.18396423 37.22659302 62.89450073 C37.22699478 64.59800906 37.12191026 66.30085943 37 68 C35 70 35 70 32.13998413 70.24050903 C30.91864777 70.23606781 29.6973114 70.23162659 28.43896484 70.22705078 C27.76567642 70.22734283 27.092388 70.22763489 26.3986969 70.22793579 C24.16931346 70.22654047 21.94026268 70.21097016 19.7109375 70.1953125 C18.16680077 70.19158308 16.62266167 70.18873577 15.07852173 70.18673706 C11.01124557 70.17909499 6.94411189 70.15944168 2.87689209 70.1373291 C-1.2721565 70.11688296 -5.42122807 70.10773799 -9.5703125 70.09765625 C-17.71360711 70.07619625 -25.85678584 70.04205349 -34 70 C-33.99476318 70.95890137 -33.98952637 71.91780273 -33.98413086 72.90576172 C-33.96605321 76.45783559 -33.95455785 80.00990537 -33.94506836 83.56201172 C-33.94003448 85.10043013 -33.93320692 86.63884375 -33.92456055 88.17724609 C-33.91245361 90.38640526 -33.90676231 92.59550126 -33.90234375 94.8046875 C-33.89718246 95.49432587 -33.89202118 96.18396423 -33.88670349 96.89450073 C-33.88612829 101.77225659 -33.88612829 101.77225659 -35 104 C-41.92237839 105.49791904 -49.38738056 105.18272673 -56.4375 105.1875 C-57.41654297 105.19974609 -58.39558594 105.21199219 -59.40429688 105.22460938 C-60.34208984 105.22654297 -61.27988281 105.22847656 -62.24609375 105.23046875 C-63.08841553 105.23457764 -63.9307373 105.23868652 -64.79858398 105.24291992 C-67 105 -67 105 -70 103 C-58.78 103 -47.56 103 -36 103 C-35.67 91.78 -35.34 80.56 -35 69 C-0.35 68.505 -0.35 68.505 35 68 C35 57.11 35 46.22 35 35 C23.45 35 11.9 35 0 35 C0 23.45 0 11.9 0 0 Z M2 2 C2 12.23 2 22.46 2 33 C12.89 33 23.78 33 35 33 C35 22.77 35 12.54 35 2 C24.11 2 13.22 2 2 2 Z " fill="#6E7275" transform="translate(127,324)"/>
<path d="M0 0 C0.33 0 0.66 0 1 0 C1 22.77 1 45.54 1 69 C-10.55 69 -22.1 69 -34 69 C-34 80.22 -34 91.44 -34 103 C-22.45 103 -10.9 103 1 103 C1 114.55 1 126.1 1 138 C-10.88 138 -22.76 138 -35 138 C-35 115.23 -35 92.46 -35 69 C-46.55 69 -58.1 69 -70 69 C-70 68.67 -70 68.34 -70 68 C-58.78 68 -47.56 68 -36 68 C-36 57.11 -36 46.22 -36 35 C-35.67 35 -35.34 35 -35 35 C-35 45.89 -35 56.78 -35 68 C-23.45 68 -11.9 68 0 68 C0 56.78 0 45.56 0 34 C-10.89 34 -21.78 34 -33 34 C-33 33.67 -33 33.34 -33 33 C-22.11 33 -11.22 33 0 33 C0 22.11 0 11.22 0 0 Z M-33 105 C-33 115.23 -33 125.46 -33 136 C-22.44 136 -11.88 136 -1 136 C-0.979375 131.070625 -0.95875 126.14125 -0.9375 121.0625 C-0.928396 119.50539307 -0.91929199 117.94828613 -0.90991211 116.34399414 C-0.90741455 115.12832764 -0.90491699 113.91266113 -0.90234375 112.66015625 C-0.89710693 111.40855713 -0.89187012 110.15695801 -0.88647461 108.86743164 C-0.67112965 106.10267706 -0.67112965 106.10267706 -2 105 C-4.29151417 104.91209025 -6.58572524 104.89305962 -8.87890625 104.90234375 C-10.13517822 104.90484131 -11.3914502 104.90733887 -12.68579102 104.90991211 C-14.29510498 104.91901611 -15.90441895 104.92812012 -17.5625 104.9375 C-22.656875 104.958125 -27.75125 104.97875 -33 105 Z " fill="#A7A678" transform="translate(162,186)"/>
<path d="M0 0 C0.66 0 1.32 0 2 0 C2.06947174 8.6838625 2.1227967 17.36762954 2.15543652 26.05170918 C2.17110102 30.08397033 2.1923533 34.11604153 2.22631836 38.14819336 C2.25888429 42.0385392 2.27684711 45.9287022 2.28463173 49.81917381 C2.29018026 51.30437283 2.30101511 52.7895617 2.31719017 54.274683 C2.33892851 56.35302072 2.34196856 58.43060032 2.34057617 60.5090332 C2.35056892 62.28441216 2.35056892 62.28441216 2.36076355 64.09565735 C2 67 2 67 0.66397095 68.87866211 C-1.98318769 70.66256302 -4.42848481 70.44255736 -7.58203125 70.51171875 C-8.23266037 70.52966995 -8.88328949 70.54762115 -9.55363464 70.56611633 C-11.63985471 70.62018364 -13.72585976 70.65394962 -15.8125 70.6875 C-17.17386029 70.72071181 -18.53518996 70.755205 -19.89648438 70.79101562 C-32.73598336 71.10843336 -45.54501656 71.12461761 -58.375 70.5 C-59.40882813 70.45230469 -60.44265625 70.40460938 -61.5078125 70.35546875 C-64.00535743 70.23984167 -66.50272757 70.12134588 -69 70 C-68.98428955 71.33961792 -68.98428955 71.33961792 -68.96826172 72.70629883 C-68.93416408 76.02175477 -68.90909363 79.33702421 -68.89013672 82.65258789 C-68.880083 84.08718812 -68.86643806 85.52176789 -68.84912109 86.95629883 C-68.82484451 89.01909438 -68.81351081 91.08161885 -68.8046875 93.14453125 C-68.78897705 95.00621948 -68.78897705 95.00621948 -68.77294922 96.90551758 C-69 100 -69 100 -71 103 C-71 91.78 -71 80.56 -71 69 C-82.55 69 -94.1 69 -106 69 C-106 68.67 -106 68.34 -106 68 C-94.45 68 -82.9 68 -71 68 C-71 56.78 -71 45.56 -71 34 C-70.67 34 -70.34 34 -70 34 C-70 45.22 -70 56.44 -70 68 C-46.9 68 -23.8 68 0 68 C0 45.56 0 23.12 0 0 Z " fill="#595959" transform="translate(341,186)"/>
<path d="M0 0 C0.33 0 0.66 0 1 0 C1 11.55 1 23.1 1 35 C11.23 35 21.46 35 32 35 C32 35.33 32 35.66 32 36 C7.30508475 38.10169492 7.30508475 38.10169492 1 36 C1 46.23 1 56.46 1 67 C12.22 66.67 23.44 66.34 35 66 C35 66.66 35 67.32 35 68 C23.78 68 12.56 68 1 68 C1 79.55 1 91.1 1 103 C12.55 103 24.1 103 36 103 C36 103.33 36 103.66 36 104 C32.06711636 104.93087909 28.42345837 105.11608885 24.38671875 105.09765625 C22.5159668 105.09282227 22.5159668 105.09282227 20.60742188 105.08789062 C19.31384766 105.07951172 18.02027344 105.07113281 16.6875 105.0625 C14.71813477 105.05573242 14.71813477 105.05573242 12.70898438 105.04882812 C9.4726099 105.03705949 6.23632822 105.0206176 3 105 C1.98057785 111.9903233 1.68400077 118.94442055 1.4375 126 C1.39431641 127.15628906 1.35113281 128.31257812 1.30664062 129.50390625 C1.20132083 132.33583854 1.09918913 135.16784747 1 138 C0.67 138 0.34 138 0 138 C0 92.46 0 46.92 0 0 Z " fill="#A3A6A7" transform="translate(234,186)"/>
<path d="M0 0 C11.55 0 23.1 0 35 0 C35 11.22 35 22.44 35 34 C23.45 34 11.9 34 0 34 C0 22.78 0 11.56 0 0 Z M2 2 C2 11.9 2 21.8 2 32 C12.23 32 22.46 32 33 32 C33 22.1 33 12.2 33 2 C22.77 2 12.54 2 2 2 Z " fill="#B8B88D" transform="translate(92,324)"/>
<path d="M0 0 C0.33 0 0.66 0 1 0 C1 11.22 1 22.44 1 34 C12.55 34 24.1 34 36 34 C36 45.55 36 57.1 36 69 C24.45 69 12.9 69 1 69 C1 80.22 1 91.44 1 103 C0.67 103 0.34 103 0 103 C-0.33 80.56 -0.66 58.12 -1 35 C-5.95 34.67 -10.9 34.34 -16 34 C-16 33.67 -16 33.34 -16 33 C-11.05 33 -6.1 33 -1 33 C-1.01160156 30.70160156 -1.02320312 28.40320313 -1.03515625 26.03515625 C-1.04294709 23.81779112 -1.04902369 21.60042749 -1.05493164 19.38305664 C-1.0599714 17.83780234 -1.0668032 16.29255284 -1.07543945 14.74731445 C-1.08752076 12.53074971 -1.09323173 10.31424782 -1.09765625 8.09765625 C-1.10281754 7.4028566 -1.10797882 6.70805695 -1.11329651 5.99220276 C-1.11349277 4.3277067 -1.06189129 2.66334501 -1 1 C-0.67 0.67 -0.34 0.34 0 0 Z M1 35 C1 45.89 1 56.78 1 68 C11.89 68 22.78 68 34 68 C35.48679725 65.02640551 35.11112605 62.33700821 35.09765625 59.0234375 C35.09515869 57.76966309 35.09266113 56.51588867 35.09008789 55.22412109 C35.08098389 53.62391113 35.07187988 52.02370117 35.0625 50.375 C35.041875 45.30125 35.02125 40.2275 35 35 C23.78 35 12.56 35 1 35 Z " fill="#666F75" transform="translate(91,255)"/>
<path d="M0 0 C0.33 0 0.66 0 1 0 C2.22306809 4.7752611 2.14779804 9.43933931 2.14526367 14.33251953 C2.14862228 15.26477356 2.1519809 16.19702759 2.15544128 17.15753174 C2.16492465 20.23263894 2.16689275 23.30769159 2.16796875 26.3828125 C2.17118194 28.52082339 2.17454606 30.65883406 2.17805481 32.79684448 C2.18403866 37.27391063 2.18589535 41.75095748 2.18530273 46.22802734 C2.18520088 51.97277881 2.19888072 57.71740733 2.21607494 63.46212959 C2.22717344 67.87495496 2.22922265 72.28775033 2.22869301 76.70058823 C2.22987531 78.819339 2.23431103 80.93809049 2.24202538 83.05682755 C2.25178662 86.01339707 2.2489631 88.96969596 2.24291992 91.92626953 C2.24853943 92.80529938 2.25415894 93.68432922 2.25994873 94.58999634 C2.22832015 100.65751977 2.22832015 100.65751977 0 104 C-1.75403806 102.24596194 -1.12611991 99.94379256 -1.13552856 97.60675049 C-1.13350433 96.83289001 -1.1314801 96.05902954 -1.12939453 95.26171875 C-1.13114685 94.45007263 -1.13289917 93.63842651 -1.13470459 92.80218506 C-1.13913219 90.09726873 -1.13617761 87.39241709 -1.1328125 84.6875 C-1.13348632 82.80151354 -1.134457 80.91552717 -1.13571167 79.02954102 C-1.1371907 75.05809714 -1.13503137 71.08667566 -1.13037109 67.11523438 C-1.12473585 62.07128565 -1.1279115 57.02739086 -1.13394356 51.98344421 C-1.13759723 48.07616792 -1.13638773 44.16890391 -1.13381577 40.2616272 C-1.13315643 38.40564975 -1.13393946 36.54967113 -1.13629532 34.69369507 C-1.1477686 23.09045638 -0.82592414 11.57494714 0 0 Z " fill="#6D6D6D" transform="translate(413,47)"/>
<path d="M0 0 C0.33 0 0.66 0 1 0 C1 22.44 1 44.88 1 68 C12.55 68 24.1 68 36 68 C36 68.33 36 68.66 36 69 C24.45 69 12.9 69 1 69 C1 80.22 1 91.44 1 103 C0.67 103 0.34 103 0 103 C0 91.78 0 80.56 0 69 C-11.55 69 -23.1 69 -35 69 C-24.54799328 63.77399664 -11.68569876 67 0 67 C0 44.89 0 22.78 0 0 Z " fill="#707171" transform="translate(198,117)"/>
<path d="M0 0 C11.88 0 23.76 0 36 0 C36 11.22 36 22.44 36 34 C24.12 34 12.24 34 0 34 C0 22.78 0 11.56 0 0 Z M2 2 C2 12.23 2 22.46 2 33 C12.89 33 23.78 33 35 33 C35 22.77 35 12.54 35 2 C24.11 2 13.22 2 2 2 Z " fill="#576C85" transform="translate(127,324)"/>
<path d="M0 0 C23.1 0 46.2 0 70 0 C70 0.33 70 0.66 70 1 C59.11 1 48.22 1 37 1 C37 11.89 37 22.78 37 34 C36.34 34 35.68 34 35 34 C35 23.11 35 12.22 35 1 C24.11 1 13.22 1 2 1 C2.33 4.63 2.66 8.26 3 12 C2.67 12.66 2.34 13.32 2 14 C1.84876169 15.5195764 1.75118307 17.04472502 1.68359375 18.5703125 C1.64169922 19.46621094 1.59980469 20.36210937 1.55664062 21.28515625 C1.51732422 22.22230469 1.47800781 23.15945313 1.4375 24.125 C1.39431641 25.06988281 1.35113281 26.01476562 1.30664062 26.98828125 C1.20040928 29.32537092 1.09836824 31.6625683 1 34 C0.67 34 0.34 34 0 34 C0 22.78 0 11.56 0 0 Z " fill="#2E333D" transform="translate(163,324)"/>
<path d="M0 0 C11.22 0 22.44 0 34 0 C34 10.23 34 20.46 34 31 C33.67 31 33.34 31 33 31 C33 21.1 33 11.2 33 1 C28.441875 1.144375 23.88375 1.28875 19.1875 1.4375 C17.75301514 1.48060303 16.31853027 1.52370605 14.84057617 1.56811523 C13.71111572 1.60622314 12.58165527 1.64433105 11.41796875 1.68359375 C10.26063232 1.72025146 9.1032959 1.75690918 7.91088867 1.79467773 C4.9356554 1.88328509 4.9356554 1.88328509 2 3 C2.08378906 4.25554687 2.16757813 5.51109375 2.25390625 6.8046875 C2.35718884 8.49476617 2.46002966 10.18487188 2.5625 11.875 C2.61857422 12.69742187 2.67464844 13.51984375 2.73242188 14.3671875 C2.78076172 15.1921875 2.82910156 16.0171875 2.87890625 16.8671875 C2.94960327 17.98262939 2.94960327 17.98262939 3.02172852 19.12060547 C2.98923079 23.42710221 2.42852464 27.71475357 2 32 C12.23 32 22.46 32 33 32 C33 32.33 33 32.66 33 33 C22.11 33 11.22 33 0 33 C0 22.11 0 11.22 0 0 Z " fill="#4E6A95" transform="translate(92,290)"/>
<path d="M0 0 C0.33 0 0.66 0 1 0 C1 11.22 1 22.44 1 34 C12.88 34 24.76 34 37 34 C37 34.33 37 34.66 37 35 C13.57 35 -9.86 35 -34 35 C-34 34.67 -34 34.34 -34 34 C-30.06711636 33.06912091 -26.42345837 32.88391115 -22.38671875 32.90234375 C-21.13955078 32.90556641 -19.89238281 32.90878906 -18.60742188 32.91210938 C-17.31384766 32.92048828 -16.02027344 32.92886719 -14.6875 32.9375 C-12.71813477 32.94426758 -12.71813477 32.94426758 -10.70898438 32.95117188 C-7.4726099 32.96294051 -4.23632822 32.9793824 -1 33 C-1.01160156 32.04222656 -1.02320313 31.08445312 -1.03515625 30.09765625 C-1.11687332 20.02602697 -0.69627964 10.04632047 0 0 Z " fill="#7C7E7E" transform="translate(305,47)"/>
<path d="M0 0 C5.28 0 10.56 0 16 0 C16 0.33 16 0.66 16 1 C15.07316406 1.06058594 14.14632812 1.12117188 13.19140625 1.18359375 C11.39509766 1.30927734 11.39509766 1.30927734 9.5625 1.4375 C8.36753906 1.51871094 7.17257813 1.59992188 5.94140625 1.68359375 C3.11429756 1.67656114 3.11429756 1.67656114 2 3 C1.84141158 5.14386657 1.74870702 7.29266838 1.68359375 9.44140625 C1.64548584 10.61646729 1.60737793 11.79152832 1.56811523 13.00219727 C1.52501221 14.50709717 1.48190918 16.01199707 1.4375 17.5625 C1.293125 22.326875 1.14875 27.09125 1 32 C11.56 31.67 22.12 31.34 33 31 C33.33 26.05 33.66 21.1 34 16 C34.33 16 34.66 16 35 16 C35 21.94 35 27.88 35 34 C23.45 34 11.9 34 0 34 C0 22.78 0 11.56 0 0 Z " fill="#4F658E" transform="translate(56,359)"/>
<path d="M0 0 C5.094375 -0.020625 10.18875 -0.04125 15.4375 -0.0625 C17.04681396 -0.071604 18.65612793 -0.08070801 20.31420898 -0.09008789 C21.57048096 -0.09258545 22.82675293 -0.09508301 24.12109375 -0.09765625 C26.06133423 -0.10551147 26.06133423 -0.10551147 28.04077148 -0.11352539 C31 0 31 0 32 1 C32.08783542 3.21855264 32.10694609 5.43988496 32.09765625 7.66015625 C32.09515869 8.87582275 32.09266113 10.09148926 32.09008789 11.34399414 C32.08098389 12.90110107 32.07187988 14.45820801 32.0625 16.0625 C32.041875 20.991875 32.02125 25.92125 32 31 C21.44 31 10.88 31 0 31 C0 20.77 0 10.54 0 0 Z M1 1 C0.95875 5.41375 0.9175 9.8275 0.875 14.375 C0.85679199 15.76638184 0.83858398 17.15776367 0.81982422 18.59130859 C0.8148291 19.68266113 0.80983398 20.77401367 0.8046875 21.8984375 C0.79421387 23.01911621 0.78374023 24.13979492 0.77294922 25.29443359 C0.71944677 28.14977843 0.71944677 28.14977843 3 30 C4.90205606 30.29310536 4.90205606 30.29310536 7.0703125 30.23046875 C8.29234375 30.22756836 8.29234375 30.22756836 9.5390625 30.22460938 C10.39242187 30.21236328 11.24578125 30.20011719 12.125 30.1875 C12.95515625 30.18685547 13.7853125 30.18621094 14.640625 30.18554688 C23.38406484 30.64039319 23.38406484 30.64039319 31 28 C31.08758003 26.00035018 31.10696576 23.9976389 31.09765625 21.99609375 C31.09515869 20.90224365 31.09266113 19.80839355 31.09008789 18.68139648 C31.08098389 17.28091064 31.07187988 15.8804248 31.0625 14.4375 C31.0315625 7.7859375 31.0315625 7.7859375 31 1 C21.1 1 11.2 1 1 1 Z " fill="#E9D84C" transform="translate(129,291)"/>
<path d="M0 0 C0.33 0 0.66 0 1 0 C1 11.22 1 22.44 1 34 C12.55 34 24.1 34 36 34 C36 34.33 36 34.66 36 35 C32.06711636 35.93087909 28.42345837 36.11608885 24.38671875 36.09765625 C23.13955078 36.09443359 21.89238281 36.09121094 20.60742188 36.08789062 C19.31384766 36.07951172 18.02027344 36.07113281 16.6875 36.0625 C14.71813477 36.05573242 14.71813477 36.05573242 12.70898438 36.04882812 C9.4726099 36.03705949 6.23632822 36.0206176 3 36 C1.98057785 42.9903233 1.68400077 49.94442055 1.4375 57 C1.39431641 58.15628906 1.35113281 59.31257813 1.30664062 60.50390625 C1.20132083 63.33583854 1.09918913 66.16784747 1 69 C0.67 69 0.34 69 0 69 C0 46.23 0 23.46 0 0 Z " fill="#747576" transform="translate(234,255)"/>
<path d="M0 0 C11.88 0 23.76 0 36 0 C35.67 0.66 35.34 1.32 35 2 C32.07250977 2.39477539 32.07250977 2.39477539 28.19140625 2.59765625 C27.1685276 2.65644203 27.1685276 2.65644203 26.12498474 2.71641541 C23.93788142 2.8408697 21.7503704 2.952423 19.5625 3.0625 C17.37835928 3.17793475 15.19444516 3.29612288 13.01072693 3.41929626 C11.02643926 3.5303953 9.04166534 3.63270438 7.05688477 3.73461914 C4.08612596 3.80352876 4.08612596 3.80352876 2 5 C2 4.01 2 3.02 2 2 C1.34 1.34 0.68 0.68 0 0 Z " fill="#6079A1" transform="translate(163,289)"/>
<path d="M0 0 C0.33 0 0.66 0 1 0 C1 10.56 1 21.12 1 32 C-9.89 32 -20.78 32 -32 32 C-27.87485791 29.93742896 -26.18199862 29.76243398 -21.703125 29.8046875 C-20.07358887 29.81218018 -20.07358887 29.81218018 -18.41113281 29.81982422 C-17.03795898 29.83803223 -15.66478516 29.85624023 -14.25 29.875 C-7.69125 29.936875 -7.69125 29.936875 -1 30 C-0.67 20.1 -0.34 10.2 0 0 Z " fill="#516E9F" transform="translate(197,291)"/>
<path d="M0 0 C0.66 0 1.32 0 2 0 C2.16780395 4.07485825 2.32834318 8.1499316 2.48217773 12.2253418 C2.53552222 13.61148768 2.59084559 14.99755889 2.64819336 16.38354492 C2.73031421 18.37658226 2.80471215 20.36993309 2.87890625 22.36328125 C2.9260376 23.56251221 2.97316895 24.76174316 3.02172852 25.99731445 C3 29 3 29 2 32 C1.34 32 0.68 32 0 32 C0 21.44 0 10.88 0 0 Z " fill="#CEC78F" transform="translate(92,325)"/>
<path d="M0 0 C6.27 0 12.54 0 19 0 C19 5.28 19 10.56 19 16 C16.01054405 11.51581607 16.37740622 7.34658811 16 2 C10.72 1.67 5.44 1.34 0 1 C0 0.67 0 0.34 0 0 Z " fill="#5870A6" transform="translate(72,359)"/>
<path d="M0 0 C0.33 0 0.66 0 1 0 C1 10.89 1 21.78 1 33 C0.01 32.67 -0.98 32.34 -2 32 C-1.34 32 -0.68 32 0 32 C-0.13835803 27.54140138 -0.28694579 23.08320214 -0.4375 18.625 C-0.47681641 17.35398437 -0.51613281 16.08296875 -0.55664062 14.7734375 C-0.59853516 13.56171875 -0.64042969 12.35 -0.68359375 11.1015625 C-0.72025146 9.98088379 -0.75690918 8.86020508 -0.79467773 7.70556641 C-0.82596013 5.03287229 -0.82596013 5.03287229 -2 3 C-1.34 2.01 -0.68 1.02 0 0 Z " fill="#000413" transform="translate(90,290)"/>
<path d="M0 0 C2.47368421 4.94736842 2.47368421 4.94736842 3 8 C2.67 8.33 2.34 8.66 2 9 C1.84417697 10.34015221 1.74955858 11.68758903 1.68359375 13.03515625 C1.62075195 14.24848633 1.62075195 14.24848633 1.55664062 15.48632812 C1.51732422 16.33646484 1.47800781 17.18660156 1.4375 18.0625 C1.39431641 18.91650391 1.35113281 19.77050781 1.30664062 20.65039062 C1.20023298 22.76672037 1.09958269 24.88333813 1 27 C0.67 27 0.34 27 0 27 C0 18.09 0 9.18 0 0 Z " fill="#456A9D" transform="translate(165,295)"/>
<path d="M0 0 C1.670625 0.061875 1.670625 0.061875 3.375 0.125 C2.776875 0.351875 2.17875 0.57875 1.5625 0.8125 C-1.31702818 2.54021691 -2.20726513 4.08699671 -3.625 7.125 C-4.34423208 10.82023952 -4.34423208 10.82023952 -4.625 14.125 C-4.955 14.125 -5.285 14.125 -5.625 14.125 C-5.67889087 12.16696493 -5.71774217 10.20851091 -5.75 8.25 C-5.77320313 7.15945313 -5.79640625 6.06890625 -5.8203125 4.9453125 C-5.51182257 0.49071795 -4.37050879 0.1507072 0 0 Z " fill="#47669D" transform="translate(62.625,359.875)"/>
<path d="M0 0 C1.98 0 3.96 0 6 0 C5.2884375 0.6496875 5.2884375 0.6496875 4.5625 1.3125 C1.75462907 4.34500061 1.76313866 7.73331628 1.4375 11.6875 C1.35371094 12.68136719 1.26992187 13.67523438 1.18359375 14.69921875 C1.12300781 15.45847656 1.06242188 16.21773437 1 17 C0.67 17 0.34 17 0 17 C0 11.39 0 5.78 0 0 Z " fill="#090A0B" transform="translate(235,186)"/>
<path d="M0 0 C3 3 3 3 3.07421875 5.26171875 C2.94660156 6.06222656 2.81898438 6.86273438 2.6875 7.6875 C2.50767578 8.89986328 2.50767578 8.89986328 2.32421875 10.13671875 C2.21722656 10.75160156 2.11023438 11.36648437 2 12 C1.34 11.67 0.68 11.34 0 11 C0 7.37 0 3.74 0 0 Z " fill="#4B4B4B" transform="translate(412,64)"/>
<path d="M0 0 C0.99 0.495 0.99 0.495 2 1 C2 10.375 2 10.375 1 15 C0.67 15 0.34 15 0 15 C0 10.05 0 5.1 0 0 Z " fill="#010414" transform="translate(92,359)"/>
</svg>
