<?xml version="1.0" encoding="UTF-8"?>
<svg version="1.1" xmlns="http://www.w3.org/2000/svg" width="278" height="324">
<path d="M0 0 C1.17949219 0.10183594 2.35898438 0.20367187 3.57421875 0.30859375 C4.47785156 0.39238281 5.38148438 0.47617187 6.3125 0.5625 C6.3125 2.8725 6.3125 5.1825 6.3125 7.5625 C11.2625 7.5625 16.2125 7.5625 21.3125 7.5625 C21.3125 12.5125 21.3125 17.4625 21.3125 22.5625 C26.2625 22.5625 31.2125 22.5625 36.3125 22.5625 C36.3125 27.5125 36.3125 32.4625 36.3125 37.5625 C41.2625 37.8925 46.2125 38.2225 51.3125 38.5625 C51.6425 43.1825 51.9725 47.8025 52.3125 52.5625 C59.2425 53.0575 59.2425 53.0575 66.3125 53.5625 C67.94606321 58.46318963 67.36779694 63.41988476 67.3125 68.5625 C72.2625 68.5625 77.2125 68.5625 82.3125 68.5625 C82.3434375 72.2440625 82.3434375 72.2440625 82.375 76 C82.384104 76.77400146 82.39320801 77.54800293 82.40258789 78.34545898 C82.40974913 80.08471717 82.36274702 81.82395304 82.3125 83.5625 C81.3125 84.5625 81.3125 84.5625 78.15234375 84.66015625 C76.86457031 84.64855469 75.57679688 84.63695312 74.25 84.625 C72.31447266 84.61146484 72.31447266 84.61146484 70.33984375 84.59765625 C69.34082031 84.58605469 68.34179688 84.57445312 67.3125 84.5625 C67.32410156 85.47773438 67.33570313 86.39296875 67.34765625 87.3359375 C67.35667969 88.52445312 67.36570313 89.71296875 67.375 90.9375 C67.38660156 92.12085938 67.39820313 93.30421875 67.41015625 94.5234375 C67.3125 97.5625 67.3125 97.5625 66.3125 99.5625 C61.6925 99.5625 57.0725 99.5625 52.3125 99.5625 C51.9825 104.5125 51.6525 109.4625 51.3125 114.5625 C46.6925 114.8925 42.0725 115.2225 37.3125 115.5625 C36.9825 120.1825 36.6525 124.8025 36.3125 129.5625 C31.3625 129.8925 26.4125 130.2225 21.3125 130.5625 C21.3125 135.5125 21.3125 140.4625 21.3125 145.5625 C11.0825 145.5625 0.8525 145.5625 -9.6875 145.5625 C-10.0175 135.6625 -10.3475 125.7625 -10.6875 115.5625 C-25.2075 115.5625 -39.7275 115.5625 -54.6875 115.5625 C-55.0175 120.1825 -55.3475 124.8025 -55.6875 129.5625 C-60.6375 129.8925 -65.5875 130.2225 -70.6875 130.5625 C-70.6875 150.0325 -70.6875 169.5025 -70.6875 189.5625 C-68.7075 189.5625 -66.7275 189.5625 -64.6875 189.5625 C-62.69133446 191.55866554 -63.27766573 195.37951963 -63.125 198.125 C-63.06022461 199.19137695 -63.06022461 199.19137695 -62.99414062 200.27929688 C-62.88778223 202.04011912 -62.78711154 203.8012832 -62.6875 205.5625 C-60.3775 205.5625 -58.0675 205.5625 -55.6875 205.5625 C-55.6875 211.8325 -55.6875 218.1025 -55.6875 224.5625 C-60.6375 224.8925 -65.5875 225.2225 -70.6875 225.5625 C-71.0175 224.2425 -71.3475 222.9225 -71.6875 221.5625 C-76.6375 221.5625 -81.5875 221.5625 -86.6875 221.5625 C-86.6875 216.6125 -86.6875 211.6625 -86.6875 206.5625 C-88.8359375 206.59505208 -90.984375 206.62760417 -93.1328125 206.66015625 C-95.6875 206.5625 -95.6875 206.5625 -101.6875 205.5625 C-102.1825 198.1375 -102.1825 198.1375 -102.6875 190.5625 C-107.3075 190.5625 -111.9275 190.5625 -116.6875 190.5625 C-118.81829691 186.30090618 -117.73252317 180.15486298 -117.6875 175.5625 C-122.6375 175.5625 -127.5875 175.5625 -132.6875 175.5625 C-132.71005176 165.67060217 -132.72841552 155.7787213 -132.73931217 145.88680363 C-132.74454082 141.2940736 -132.75163812 136.701362 -132.76293945 132.10864258 C-132.773769 127.68016312 -132.77977698 123.25170144 -132.78237724 118.82320976 C-132.78423137 117.12984372 -132.78785175 115.43647871 -132.79323006 113.74312019 C-132.8004414 111.37958768 -132.8014909 109.01612955 -132.80102539 106.65258789 C-132.80462067 105.94552704 -132.80821594 105.23846619 -132.81192017 104.50997925 C-132.80155216 99.67655216 -132.80155216 99.67655216 -131.6875 98.5625 C-129.33436445 98.48978259 -126.97916332 98.47879132 -124.625 98.5 C-122.68947266 98.51353516 -122.68947266 98.51353516 -120.71484375 98.52734375 C-119.71582031 98.53894531 -118.71679688 98.55054688 -117.6875 98.5625 C-117.70490234 97.31533203 -117.70490234 97.31533203 -117.72265625 96.04296875 C-117.73619141 94.41294922 -117.73619141 94.41294922 -117.75 92.75 C-117.76160156 91.67105469 -117.77320313 90.59210938 -117.78515625 89.48046875 C-117.6875 86.5625 -117.6875 86.5625 -116.6875 83.5625 C-112.0675 83.5625 -107.4475 83.5625 -102.6875 83.5625 C-102.3575 78.6125 -102.0275 73.6625 -101.6875 68.5625 C-97.0675 68.2325 -92.4475 67.9025 -87.6875 67.5625 C-87.3575 62.9425 -87.0275 58.3225 -86.6875 53.5625 C-82.0675 53.2325 -77.4475 52.9025 -72.6875 52.5625 C-72.3575 47.9425 -72.0275 43.3225 -71.6875 38.5625 C-65.54446425 37.66238549 -59.58270683 37.41595994 -53.37890625 37.4296875 C-52.41274887 37.42873077 -51.44659149 37.42777405 -50.45115662 37.42678833 C-48.41820205 37.42611117 -46.38524527 37.42793293 -44.35229492 37.43212891 C-41.26280799 37.43747783 -38.1734668 37.43217108 -35.08398438 37.42578125 C-33.09895802 37.42644223 -31.11393175 37.4277238 -29.12890625 37.4296875 C-28.21613419 37.42766327 -27.30336212 37.42563904 -26.3629303 37.42355347 C-25.48849777 37.42670563 -24.61406525 37.42985779 -23.71313477 37.43310547 C-22.58017723 37.43429886 -22.58017723 37.43429886 -21.42433167 37.43551636 C-17.49828381 37.61767731 -13.59373296 38.12847412 -9.6875 38.5625 C-9.6875 26.0225 -9.6875 13.4825 -9.6875 0.5625 C-6.14075997 -0.61974668 -3.71227005 -0.33079634 0 0 Z " fill="#D3D3D3" transform="translate(156.6875,51.4375)"/>
<path d="M0 0 C3.61328125 0.03255208 7.2265625 0.06510417 10.83984375 0.09765625 C11.16984375 4.71765625 11.49984375 9.33765625 11.83984375 14.09765625 C18.76984375 14.59265625 18.76984375 14.59265625 25.83984375 15.09765625 C27.47340696 19.99834588 26.89514069 24.95504101 26.83984375 30.09765625 C31.78984375 30.09765625 36.73984375 30.09765625 41.83984375 30.09765625 C41.87078125 33.77921875 41.87078125 33.77921875 41.90234375 37.53515625 C41.91144775 38.30915771 41.92055176 39.08315918 41.92993164 39.88061523 C41.93709288 41.61987342 41.89009077 43.35910929 41.83984375 45.09765625 C40.83984375 46.09765625 40.83984375 46.09765625 37.6796875 46.1953125 C36.39191406 46.18371094 35.10414063 46.17210937 33.77734375 46.16015625 C32.48699219 46.15113281 31.19664062 46.14210937 29.8671875 46.1328125 C28.86816406 46.12121094 27.86914062 46.10960937 26.83984375 46.09765625 C26.85144531 47.01289063 26.86304688 47.928125 26.875 48.87109375 C26.88402344 50.05960938 26.89304688 51.248125 26.90234375 52.47265625 C26.91394531 53.65601563 26.92554688 54.839375 26.9375 56.05859375 C26.83984375 59.09765625 26.83984375 59.09765625 25.83984375 61.09765625 C21.21984375 61.09765625 16.59984375 61.09765625 11.83984375 61.09765625 C11.50984375 66.04765625 11.17984375 70.99765625 10.83984375 76.09765625 C6.21984375 76.42765625 1.59984375 76.75765625 -3.16015625 77.09765625 C-3.49015625 81.71765625 -3.82015625 86.33765625 -4.16015625 91.09765625 C-9.11015625 91.42765625 -14.06015625 91.75765625 -19.16015625 92.09765625 C-19.16015625 97.04765625 -19.16015625 101.99765625 -19.16015625 107.09765625 C-29.39015625 107.09765625 -39.62015625 107.09765625 -50.16015625 107.09765625 C-50.49015625 97.19765625 -50.82015625 87.29765625 -51.16015625 77.09765625 C-65.68015625 77.09765625 -80.20015625 77.09765625 -95.16015625 77.09765625 C-95.49015625 81.71765625 -95.82015625 86.33765625 -96.16015625 91.09765625 C-101.11015625 91.42765625 -106.06015625 91.75765625 -111.16015625 92.09765625 C-111.16015625 111.56765625 -111.16015625 131.03765625 -111.16015625 151.09765625 C-109.18015625 151.09765625 -107.20015625 151.09765625 -105.16015625 151.09765625 C-103.16399071 153.09382179 -103.75032198 156.91467588 -103.59765625 159.66015625 C-103.53288086 160.7265332 -103.53288086 160.7265332 -103.46679688 161.81445312 C-103.36043848 163.57527537 -103.25976779 165.33643945 -103.16015625 167.09765625 C-100.85015625 167.09765625 -98.54015625 167.09765625 -96.16015625 167.09765625 C-96.16015625 173.36765625 -96.16015625 179.63765625 -96.16015625 186.09765625 C-101.11015625 186.42765625 -106.06015625 186.75765625 -111.16015625 187.09765625 C-111.49015625 185.77765625 -111.82015625 184.45765625 -112.16015625 183.09765625 C-117.11015625 183.09765625 -122.06015625 183.09765625 -127.16015625 183.09765625 C-127.16015625 178.14765625 -127.16015625 173.19765625 -127.16015625 168.09765625 C-129.30859375 168.13020833 -131.45703125 168.16276042 -133.60546875 168.1953125 C-136.16015625 168.09765625 -136.16015625 168.09765625 -142.16015625 167.09765625 C-142.65515625 159.67265625 -142.65515625 159.67265625 -143.16015625 152.09765625 C-147.78015625 152.09765625 -152.40015625 152.09765625 -157.16015625 152.09765625 C-159.29095316 147.83606243 -158.20517942 141.69001923 -158.16015625 137.09765625 C-163.11015625 137.09765625 -168.06015625 137.09765625 -173.16015625 137.09765625 C-173.18270801 127.20575842 -173.20107177 117.31387755 -173.21196842 107.42195988 C-173.21719707 102.82922985 -173.22429437 98.23651825 -173.2355957 93.64379883 C-173.24642525 89.21531937 -173.25243323 84.78685769 -173.25503349 80.35836601 C-173.25688762 78.66499997 -173.260508 76.97163496 -173.26588631 75.27827644 C-173.27309765 72.91474393 -173.27414715 70.5512858 -173.27368164 68.18774414 C-173.27727692 67.48068329 -173.28087219 66.77362244 -173.28457642 66.0451355 C-173.27420841 61.21170841 -173.27420841 61.21170841 -172.16015625 60.09765625 C-169.8070207 60.02493884 -167.45181957 60.01394757 -165.09765625 60.03515625 C-163.80730469 60.04417969 -162.51695312 60.05320313 -161.1875 60.0625 C-160.18847656 60.07410156 -159.18945312 60.08570313 -158.16015625 60.09765625 C-158.17755859 58.83308594 -158.17755859 58.83308594 -158.1953125 57.54296875 C-158.20433594 56.44726562 -158.21335937 55.3515625 -158.22265625 54.22265625 C-158.23425781 53.13210937 -158.24585938 52.0415625 -158.2578125 50.91796875 C-158.16015625 48.09765625 -158.16015625 48.09765625 -157.16015625 46.09765625 C-152.21015625 46.09765625 -147.26015625 46.09765625 -142.16015625 46.09765625 C-142.16015625 51.04765625 -142.16015625 55.99765625 -142.16015625 61.09765625 C-147.11015625 61.09765625 -152.06015625 61.09765625 -157.16015625 61.09765625 C-157.16015625 81.22765625 -157.16015625 101.35765625 -157.16015625 122.09765625 C-152.21015625 122.09765625 -147.26015625 122.09765625 -142.16015625 122.09765625 C-142.16015625 106.91765625 -142.16015625 91.73765625 -142.16015625 76.09765625 C-137.21015625 76.09765625 -132.26015625 76.09765625 -127.16015625 76.09765625 C-127.16015625 71.14765625 -127.16015625 66.19765625 -127.16015625 61.09765625 C-96.80015625 61.09765625 -66.44015625 61.09765625 -35.16015625 61.09765625 C-35.16015625 70.99765625 -35.16015625 80.89765625 -35.16015625 91.09765625 C-30.21015625 91.09765625 -25.26015625 91.09765625 -20.16015625 91.09765625 C-20.19109375 87.84921875 -20.19109375 87.84921875 -20.22265625 84.53515625 C-20.25855808 76.68053577 -19.75682585 68.92894476 -19.16015625 61.09765625 C-14.21015625 61.09765625 -9.26015625 61.09765625 -4.16015625 61.09765625 C-4.16015625 56.14765625 -4.16015625 51.19765625 -4.16015625 46.09765625 C0.78984375 46.09765625 5.73984375 46.09765625 10.83984375 46.09765625 C10.83984375 35.86765625 10.83984375 25.63765625 10.83984375 15.09765625 C5.88984375 15.09765625 0.93984375 15.09765625 -4.16015625 15.09765625 C-4.2578125 4.2578125 -4.2578125 4.2578125 -4.16015625 1.09765625 C-3.16015625 0.09765625 -3.16015625 0.09765625 0 0 Z " fill="#7A7A7A" transform="translate(197.16015625,89.90234375)"/>
<path d="M0 0 C4.95 0 9.9 0 15 0 C15 4.95 15 9.9 15 15 C20.94 14.67 26.88 14.34 33 14 C32.67 14.66 32.34 15.32 32 16 C31.76970044 18.37123246 31.58880058 20.74741943 31.4375 23.125 C31.293125 25.39375 31.14875 27.6625 31 30 C35.95 30 40.9 30 46 30 C46 40.23 46 50.46 46 61 C41.05 61 36.1 61 31 61 C31 65.95 31 70.9 31 76 C26.05 76 21.1 76 16 76 C16 80.95 16 85.9 16 91 C11.05 91 6.1 91 1 91 C1 80.77 1 70.54 1 60 C-29.36 60 -59.72 60 -91 60 C-91 55.38 -91 50.76 -91 46 C-86.05 46 -81.1 46 -76 46 C-76 41.05 -76 36.1 -76 31 C-50.92 31 -25.84 31 0 31 C0 20.77 0 10.54 0 0 Z " fill="#E1E1E1" transform="translate(162,75)"/>
<path d="M0 0 C3.61328125 0.03255208 7.2265625 0.06510417 10.83984375 0.09765625 C11.33484375 7.02765625 11.33484375 7.02765625 11.83984375 14.09765625 C18.76984375 14.59265625 18.76984375 14.59265625 25.83984375 15.09765625 C27.47340696 19.99834588 26.89514069 24.95504101 26.83984375 30.09765625 C31.78984375 30.09765625 36.73984375 30.09765625 41.83984375 30.09765625 C41.87078125 33.77921875 41.87078125 33.77921875 41.90234375 37.53515625 C41.91144775 38.30915771 41.92055176 39.08315918 41.92993164 39.88061523 C41.93709288 41.61987342 41.89009077 43.35910929 41.83984375 45.09765625 C40.83984375 46.09765625 40.83984375 46.09765625 37.6796875 46.1953125 C36.39191406 46.18371094 35.10414063 46.17210937 33.77734375 46.16015625 C32.48699219 46.15113281 31.19664062 46.14210937 29.8671875 46.1328125 C28.86816406 46.12121094 27.86914062 46.10960937 26.83984375 46.09765625 C26.85144531 47.01289063 26.86304688 47.928125 26.875 48.87109375 C26.88402344 50.05960938 26.89304688 51.248125 26.90234375 52.47265625 C26.91394531 53.65601563 26.92554688 54.839375 26.9375 56.05859375 C26.83984375 59.09765625 26.83984375 59.09765625 25.83984375 61.09765625 C21.21984375 61.09765625 16.59984375 61.09765625 11.83984375 61.09765625 C11.50984375 66.04765625 11.17984375 70.99765625 10.83984375 76.09765625 C6.21984375 76.42765625 1.59984375 76.75765625 -3.16015625 77.09765625 C-3.49015625 81.71765625 -3.82015625 86.33765625 -4.16015625 91.09765625 C-9.11015625 91.42765625 -14.06015625 91.75765625 -19.16015625 92.09765625 C-19.16015625 97.04765625 -19.16015625 101.99765625 -19.16015625 107.09765625 C-29.39015625 107.09765625 -39.62015625 107.09765625 -50.16015625 107.09765625 C-50.49015625 97.19765625 -50.82015625 87.29765625 -51.16015625 77.09765625 C-65.68015625 77.09765625 -80.20015625 77.09765625 -95.16015625 77.09765625 C-95.49015625 81.71765625 -95.82015625 86.33765625 -96.16015625 91.09765625 C-98.63939426 91.1245072 -101.11834465 91.14442172 -103.59765625 91.16015625 C-104.30470703 91.16853516 -105.01175781 91.17691406 -105.74023438 91.18554688 C-107.54709184 91.19419213 -109.35403228 91.14985636 -111.16015625 91.09765625 C-112.16015625 90.09765625 -112.16015625 90.09765625 -112.2578125 86.9375 C-112.20898438 81.51757812 -112.20898438 81.51757812 -112.16015625 76.09765625 C-107.21015625 76.09765625 -102.26015625 76.09765625 -97.16015625 76.09765625 C-97.16015625 71.14765625 -97.16015625 66.19765625 -97.16015625 61.09765625 C-76.70015625 61.09765625 -56.24015625 61.09765625 -35.16015625 61.09765625 C-35.16015625 70.99765625 -35.16015625 80.89765625 -35.16015625 91.09765625 C-30.21015625 91.09765625 -25.26015625 91.09765625 -20.16015625 91.09765625 C-20.18078125 88.93203125 -20.20140625 86.76640625 -20.22265625 84.53515625 C-20.25855808 76.68053577 -19.75682585 68.92894476 -19.16015625 61.09765625 C-14.21015625 61.09765625 -9.26015625 61.09765625 -4.16015625 61.09765625 C-4.16015625 56.14765625 -4.16015625 51.19765625 -4.16015625 46.09765625 C0.78984375 46.09765625 5.73984375 46.09765625 10.83984375 46.09765625 C10.83984375 35.86765625 10.83984375 25.63765625 10.83984375 15.09765625 C5.88984375 15.09765625 0.93984375 15.09765625 -4.16015625 15.09765625 C-4.2578125 4.2578125 -4.2578125 4.2578125 -4.16015625 1.09765625 C-3.16015625 0.09765625 -3.16015625 0.09765625 0 0 Z " fill="#7C7C7C" transform="translate(197.16015625,89.90234375)"/>
<path d="M0 0 C1.17949219 0.10183594 2.35898438 0.20367187 3.57421875 0.30859375 C4.47785156 0.39238281 5.38148438 0.47617187 6.3125 0.5625 C6.3125 2.8725 6.3125 5.1825 6.3125 7.5625 C11.2625 7.5625 16.2125 7.5625 21.3125 7.5625 C21.3125 12.5125 21.3125 17.4625 21.3125 22.5625 C26.2625 22.5625 31.2125 22.5625 36.3125 22.5625 C36.3125 27.8425 36.3125 33.1225 36.3125 38.5625 C31.0325 38.5625 25.7525 38.5625 20.3125 38.5625 C20.3125 33.6125 20.3125 28.6625 20.3125 23.5625 C15.3625 23.5625 10.4125 23.5625 5.3125 23.5625 C5.3125 33.4625 5.3125 43.3625 5.3125 53.5625 C-4.57939783 53.58505176 -14.4712787 53.60341552 -24.36319637 53.61431217 C-28.9559264 53.61954082 -33.548638 53.62663812 -38.14135742 53.63793945 C-42.56983688 53.648769 -46.99829856 53.65477698 -51.42679024 53.65737724 C-53.12015628 53.65923137 -54.81352129 53.66285175 -56.50687981 53.66823006 C-58.87041232 53.6754414 -61.23387045 53.6764909 -63.59741211 53.67602539 C-64.30447296 53.67962067 -65.01153381 53.68321594 -65.74002075 53.68692017 C-70.57344784 53.67655216 -70.57344784 53.67655216 -71.6875 52.5625 C-71.76021741 50.20936445 -71.77120868 47.85416332 -71.75 45.5 C-71.74097656 44.20964844 -71.73195313 42.91929688 -71.72265625 41.58984375 C-71.71105469 40.59082031 -71.69945313 39.59179688 -71.6875 38.5625 C-65.54446425 37.66238549 -59.58270683 37.41595994 -53.37890625 37.4296875 C-52.41274887 37.42873077 -51.44659149 37.42777405 -50.45115662 37.42678833 C-48.41820205 37.42611117 -46.38524527 37.42793293 -44.35229492 37.43212891 C-41.26280799 37.43747783 -38.1734668 37.43217108 -35.08398438 37.42578125 C-33.09895802 37.42644223 -31.11393175 37.4277238 -29.12890625 37.4296875 C-28.21613419 37.42766327 -27.30336212 37.42563904 -26.3629303 37.42355347 C-25.48849777 37.42670563 -24.61406525 37.42985779 -23.71313477 37.43310547 C-22.58017723 37.43429886 -22.58017723 37.43429886 -21.42433167 37.43551636 C-17.49828381 37.61767731 -13.59373296 38.12847412 -9.6875 38.5625 C-9.6875 26.0225 -9.6875 13.4825 -9.6875 0.5625 C-6.14075997 -0.61974668 -3.71227005 -0.33079634 0 0 Z " fill="#070707" transform="translate(156.6875,51.4375)"/>
<path d="M0 0 C20.13 0 40.26 0 61 0 C61 9.9 61 19.8 61 30 C65.95 30 70.9 30 76 30 C76 34.95 76 39.9 76 45 C66.43 45 56.86 45 47 45 C46.67 35.1 46.34 25.2 46 15 C30.82 14.67 15.64 14.34 0 14 C0 9.38 0 4.76 0 0 Z " fill="#010101" transform="translate(101,151)"/>
<path d="M0 0 C0.33 0.66 0.66 1.32 1 2 C5.95 2 10.9 2 16 2 C16 12.23 16 22.46 16 33 C11.05 33 6.1 33 1 33 C1 48.18 1 63.36 1 79 C-3.95 79 -8.9 79 -14 79 C-14 58.87 -14 38.74 -14 18 C-9.05 18 -4.1 18 1 18 C1 13.05 1 8.1 1 3 C-3.95 3 -8.9 3 -14 3 C-14 2.67 -14 2.34 -14 2 C-9.38 2 -4.76 2 0 2 C0 1.34 0 0.68 0 0 Z " fill="#DEDEDE" transform="translate(54,133)"/>
<path d="M0 0 C17.49 0 34.98 0 53 0 C53 4.95 53 9.9 53 15 C40.46 15 27.92 15 15 15 C15 19.62 15 24.24 15 29 C5.1 29 -4.8 29 -15 29 C-15 24.38 -15 19.76 -15 15 C-10.05 15 -5.1 15 0 15 C0 10.05 0 5.1 0 0 Z " fill="#FCFCFC" transform="translate(86,106)"/>
<path d="M0 0 C4.95 0 9.9 0 15 0 C15 25.08 15 50.16 15 76 C10.05 76 5.1 76 0 76 C0 50.92 0 25.84 0 0 Z " fill="#070707" transform="translate(24,151)"/>
<path d="M0 0 C0.33 0 0.66 0 1 0 C1 4.62 1 9.24 1 14 C2.38823975 13.99476318 3.77647949 13.98952637 5.20678711 13.98413086 C10.33731445 13.96608654 15.46783897 13.95457008 20.59838867 13.94506836 C22.82267732 13.94002683 25.04696263 13.93319377 27.27124023 13.92456055 C30.46078309 13.91248702 33.65028229 13.90677004 36.83984375 13.90234375 C38.34139259 13.89460182 38.34139259 13.89460182 39.87327576 13.88670349 C40.79415482 13.88662796 41.71503387 13.88655243 42.66381836 13.88647461 C43.47878281 13.884254 44.29374725 13.88203339 45.13340759 13.87974548 C47 14 47 14 48 15 C48.08783542 17.21855264 48.10694609 19.43988496 48.09765625 21.66015625 C48.0962413 22.32462265 48.09482635 22.98908905 48.09336853 23.6736908 C48.08775518 25.80333899 48.07520054 27.93288339 48.0625 30.0625 C48.05748671 31.50325369 48.05292351 32.94400903 48.04882812 34.38476562 C48.03863076 37.92324958 48.0190583 41.46150813 48 45 C57.57 45 67.14 45 77 45 C76.979375 40.359375 76.95875 35.71875 76.9375 30.9375 C76.91459297 20.57067342 77.08179612 10.32979368 78 0 C87.9 0 97.8 0 108 0 C108 4.95 108 9.9 108 15 C103.38 15.33 98.76 15.66 94 16 C93.67 20.62 93.34 25.24 93 30 C88.05 30.33 83.1 30.66 78 31 C78 35.95 78 40.9 78 46 C67.77 46 57.54 46 47 46 C46.67 36.1 46.34 26.2 46 16 C31.48 16 16.96 16 2 16 C1.67 20.62 1.34 25.24 1 30 C-1.47923801 30.02685095 -3.9581884 30.04676547 -6.4375 30.0625 C-7.14455078 30.07087891 -7.85160156 30.07925781 -8.58007812 30.08789062 C-10.38693559 30.09653588 -12.19387603 30.05220011 -14 30 C-15 29 -15 29 -15.09765625 25.83984375 C-15.04882812 20.41992188 -15.04882812 20.41992188 -15 15 C-10.05 15 -5.1 15 0 15 C0 10.05 0 5.1 0 0 Z " fill="#212120" transform="translate(100,151)"/>
<path d="M0 0 C4.95 0 9.9 0 15 0 C15 20.13 15 40.26 15 61 C10.05 61 5.1 61 0 61 C0 40.87 0 20.74 0 0 Z " fill="#040404" transform="translate(70,181)"/>
<path d="M0 0 C20.13 0 40.26 0 61 0 C61 4.95 61 9.9 61 15 C40.87 15 20.74 15 0 15 C0 10.05 0 5.1 0 0 Z " fill="#787878" transform="translate(101,136)"/>
<path d="M0 0 C2.31 0 4.62 0 7 0 C7.33 4.95 7.66 9.9 8 15 C10.31 15 12.62 15 15 15 C15 21.27 15 27.54 15 34 C10.05 34.33 5.1 34.66 0 35 C-0.33 33.68 -0.66 32.36 -1 31 C-5.95 31 -10.9 31 -16 31 C-16.08658105 25.37223197 -15.8086192 20.66033437 -15 15 C-10.05 15 -5.1 15 0 15 C0 10.05 0 5.1 0 0 Z " fill="#0C0C0C" transform="translate(86,242)"/>
<path d="M0 0 C12.87 0 25.74 0 39 0 C38.67 4.62 38.34 9.24 38 14 C25.79 14 13.58 14 1 14 C0.67 9.38 0.34 4.76 0 0 Z " fill="#FDFDFD" transform="translate(100,106)"/>
<path d="M0 0 C3.61328125 0.03255208 7.2265625 0.06510417 10.83984375 0.09765625 C11.16984375 4.71765625 11.49984375 9.33765625 11.83984375 14.09765625 C15.453125 14.29296875 19.06640625 14.48828125 22.6796875 14.68359375 C24.24396484 14.88855469 24.24396484 14.88855469 25.83984375 15.09765625 C27.94643442 19.31083758 26.23437054 25.62635269 25.83984375 30.09765625 C20.88984375 30.09765625 15.93984375 30.09765625 10.83984375 30.09765625 C10.83984375 25.14765625 10.83984375 20.19765625 10.83984375 15.09765625 C5.88984375 15.09765625 0.93984375 15.09765625 -4.16015625 15.09765625 C-4.2578125 4.2578125 -4.2578125 4.2578125 -4.16015625 1.09765625 C-3.16015625 0.09765625 -3.16015625 0.09765625 0 0 Z " fill="#0D0D0C" transform="translate(197.16015625,89.90234375)"/>
<path d="M0 0 C0.33 0 0.66 0 1 0 C1 17.16 1 34.32 1 52 C2.98 52 4.96 52 7 52 C7 52.33 7 52.66 7 53 C5.02 53 3.04 53 1 53 C1 57.95 1 62.9 1 68 C-3.95 68 -8.9 68 -14 68 C-14 70.31 -14 72.62 -14 75 C-14.33 75 -14.66 75 -15 75 C-15 73.02 -15 71.04 -15 69 C-15.99 68.67 -16.98 68.34 -18 68 C-17.01 68 -16.02 68 -15 68 C-15 63.05 -15 58.1 -15 53 C-10.05 53 -5.1 53 0 53 C0 35.51 0 18.02 0 0 Z " fill="#6D6D6D" transform="translate(85,189)"/>
<path d="M0 0 C4.95 0 9.9 0 15 0 C15 4.62 15 9.24 15 14 C19.95 14 24.9 14 30 14 C30 14.33 30 14.66 30 15 C25.38 15 20.76 15 16 15 C16 17.31 16 19.62 16 22 C15.67 22 15.34 22 15 22 C15 19.69 15 17.38 15 15 C10.05 15 5.1 15 0 15 C0 10.05 0 5.1 0 0 Z " fill="#747474" transform="translate(193,136)"/>
<path d="M0 0 C4.95 0 9.9 0 15 0 C15 4.95 15 9.9 15 15 C9.30477818 15.77662116 5.82219599 15.970366 0 15 C0 10.05 0 5.1 0 0 Z " fill="#040404" transform="translate(55,242)"/>
<path d="M0 0 C4.95 0 9.9 0 15 0 C15 4.95 15 9.9 15 15 C10.05 15 5.1 15 0 15 C0 10.05 0 5.1 0 0 Z " fill="#7A7A7A" transform="translate(162,166)"/>
<path d="M0 0 C4.95 0 9.9 0 15 0 C15 4.95 15 9.9 15 15 C10.05 15 5.1 15 0 15 C0 10.05 0 5.1 0 0 Z " fill="#787878" transform="translate(178,151)"/>
<path d="M0 0 C4.95 0 9.9 0 15 0 C15 4.95 15 9.9 15 15 C10.05 15 5.1 15 0 15 C0 10.05 0 5.1 0 0 Z " fill="#090909" transform="translate(40,136)"/>
<path d="M0 0 C2.31243792 -0.02685412 4.6249627 -0.04632841 6.9375 -0.0625 C8.22527344 -0.07410156 9.51304688 -0.08570312 10.83984375 -0.09765625 C14 0 14 0 15 1 C15.14426614 5.66845228 15.04208415 10.32865953 15 15 C10.05 15 5.1 15 0 15 C-0.82264058 10.88679709 -1.04025145 8.66876212 -0.5625 4.6875 C-0.46066406 3.80449219 -0.35882813 2.92148438 -0.25390625 2.01171875 C-0.17011719 1.34785156 -0.08632813 0.68398437 0 0 Z " fill="#0B0B0B" transform="translate(55,120)"/>
<path d="M0 0 C4.95 0 9.9 0 15 0 C15 4.95 15 9.9 15 15 C10.05 15 5.1 15 0 15 C0 10.05 0 5.1 0 0 Z " fill="#070707" transform="translate(70,105)"/>
<path d="M0 0 C4.62 0 9.24 0 14 0 C14 4.95 14 9.9 14 15 C9.71 15 5.42 15 1 15 C1 19.95 1 24.9 1 30 C0.67 30 0.34 30 0 30 C0 20.1 0 10.2 0 0 Z " fill="#FBFBFB" transform="translate(163,75)"/>
<path d="M0 0 C4.95 0 9.9 0 15 0 C15 4.95 15 9.9 15 15 C4.16015625 15.09765625 4.16015625 15.09765625 1 15 C0 14 0 14 -0.09765625 10.83984375 C-0.04882812 5.41992188 -0.04882812 5.41992188 0 0 Z " fill="#070707" transform="translate(85,166)"/>
<path d="M0 0 C4.95 0 9.9 0 15 0 C15 4.62 15 9.24 15 14 C10.09931037 15.63356321 5.14261524 15.05529694 0 15 C0 10.05 0 5.1 0 0 Z " fill="#050505" transform="translate(40,227)"/>
<path d="M0 0 C4.95 0 9.9 0 15 0 C15 4.62 15 9.24 15 14 C10.05 14 5.1 14 0 14 C0 9.38 0 4.76 0 0 Z " fill="#020202" transform="translate(208,136)"/>
<path d="M0 0 C4.62 0 9.24 0 14 0 C14 4.95 14 9.9 14 15 C9.38 15 4.76 15 0 15 C0 10.05 0 5.1 0 0 Z " fill="#FCFCFC" transform="translate(56,136)"/>
<path d="M0 0 C4.62 0 9.24 0 14 0 C14 4.95 14 9.9 14 15 C7.07 14.505 7.07 14.505 0 14 C0 9.38 0 4.76 0 0 Z " fill="#FCFCFC" transform="translate(193,106)"/>
<path d="M0 0 C4.62 0 9.24 0 14 0 C14 4.62 14 9.24 14 14 C9.38 14 4.76 14 0 14 C0 9.38 0 4.76 0 0 Z " fill="#020202" transform="translate(178,166)"/>
<path d="M0 0 C4.62 0 9.24 0 14 0 C14 4.62 14 9.24 14 14 C9.38 14 4.76 14 0 14 C0 9.38 0 4.76 0 0 Z " fill="#010101" transform="translate(224,121)"/>
<path d="M0 0 C4.62 0 9.24 0 14 0 C14 4.62 14 9.24 14 14 C9.38 14 4.76 14 0 14 C0 9.38 0 4.76 0 0 Z " fill="#FCFCFC" transform="translate(178,91)"/>
<path d="M0 0 C4.62 0 9.24 0 14 0 C14 4.62 14 9.24 14 14 C9.38 14 4.76 14 0 14 C0 9.38 0 4.76 0 0 Z " fill="#010101" transform="translate(178,75)"/>
<path d="M0 0 C4.29 0 8.58 0 13 0 C13 4.29 13 8.58 13 13 C8.71 13 4.42 13 0 13 C0 8.71 0 4.42 0 0 Z " fill="#E0E0E0" transform="translate(87,107)"/>
<path d="M0 0 C4.29 0 8.58 0 13 0 C13 4.29 13 8.58 13 13 C8.71 13 4.42 13 0 13 C0 8.71 0 4.42 0 0 Z " fill="#010101" transform="translate(194,91)"/>
<path d="M0 0 C2.64 0.33 5.28 0.66 8 1 C8 3.31 8 5.62 8 8 C12.95 8 17.9 8 23 8 C23 12.95 23 17.9 23 23 C27.95 23 32.9 23 38 23 C38 28.28 38 33.56 38 39 C32.72 39 27.44 39 22 39 C22 34.05 22 29.1 22 24 C17.05 24 12.1 24 7 24 C7 23.67 7 23.34 7 23 C11.95 23 16.9 23 22 23 C22 18.38 22 13.76 22 9 C17.05 9 12.1 9 7 9 C7 6.69 7 4.38 7 2 C4.69 2 2.38 2 0 2 C0 1.34 0 0.68 0 0 Z M23 24 C23 28.62 23 33.24 23 38 C27.62 38 32.24 38 37 38 C37 33.38 37 28.76 37 24 C32.38 24 27.76 24 23 24 Z " fill="#525252" transform="translate(155,51)"/>
<path d="M0 0 C0.33 0 0.66 0 1 0 C1 3.96 1 7.92 1 12 C5.95 12 10.9 12 16 12 C16.020625 14.454375 16.04125 16.90875 16.0625 19.4375 C16.071604 20.21150146 16.08070801 20.98550293 16.09008789 21.78295898 C16.09724913 23.52221717 16.05024702 25.26145304 16 27 C15 28 15 28 11.83984375 28.09765625 C10.55207031 28.08605469 9.26429688 28.07445312 7.9375 28.0625 C6.64714844 28.05347656 5.35679687 28.04445312 4.02734375 28.03515625 C3.02832031 28.02355469 2.02929688 28.01195312 1 28 C1 32.29 1 36.58 1 41 C0.67 41 0.34 41 0 41 C0 36.71 0 32.42 0 28 C-4.95 28 -9.9 28 -15 28 C-15 27.67 -15 27.34 -15 27 C-10.05 27 -5.1 27 0 27 C0 22.38 0 17.76 0 13 C-4.95 13 -9.9 13 -15 13 C-15 12.67 -15 12.34 -15 12 C-10.05 12 -5.1 12 0 12 C0 8.04 0 4.08 0 0 Z M1 13 C1 17.62 1 22.24 1 27 C5.62 27 10.24 27 15 27 C15 22.38 15 17.76 15 13 C10.38 13 5.76 13 1 13 Z " fill="#5E5E5E" transform="translate(223,108)"/>
<path d="M0 0 C10.83984375 -0.09765625 10.83984375 -0.09765625 14 0 C17.30823887 3.30823887 15 9.32144372 15 14 C27.21 14 39.42 14 52 14 C52 9.71 52 5.42 52 1 C52.33 1 52.66 1 53 1 C53 5.62 53 10.24 53 15 C40.46 15 27.92 15 15 15 C15 16.98 15 18.96 15 21 C14.67 21 14.34 21 14 21 C14 19.02 14 17.04 14 15 C9.38 15 4.76 15 0 15 C0 10.05 0 5.1 0 0 Z M1 1 C1 5.29 1 9.58 1 14 C5.29 14 9.58 14 14 14 C14 9.71 14 5.42 14 1 C9.71 1 5.42 1 1 1 Z " fill="#EFEFEF" transform="translate(86,106)"/>
</svg>
