<?xml version="1.0" encoding="UTF-8"?>
<svg version="1.1" xmlns="http://www.w3.org/2000/svg" width="498" height="501">
<path d="M0 0 C8.58 0 17.16 0 26 0 C26 20.13 26 40.26 26 61 C37.89353516 60.98259766 37.89353516 60.98259766 50.02734375 60.96484375 C55.0358081 60.95973719 60.04426927 60.95492344 65.05273438 60.95117188 C73.01099333 60.94518266 80.96924028 60.93808028 88.92749023 60.92456055 C95.34002877 60.91373429 101.75255504 60.90772372 108.16510201 60.90512276 C110.61764278 60.90326803 113.07018285 60.89964653 115.52271843 60.89426994 C118.94476677 60.88706298 122.36676371 60.88600891 125.78881836 60.88647461 C126.81380432 60.88287933 127.83879028 60.87928406 128.89483643 60.87557983 C129.82176804 60.8769545 130.74869965 60.87832916 131.70372009 60.87974548 C132.51397613 60.87882369 133.32423216 60.8779019 134.1590414 60.87695217 C136 61 136 61 137 62 C137.08713831 63.70772358 137.10700007 65.41898649 137.09765625 67.12890625 C137.09443359 68.16337891 137.09121094 69.19785156 137.08789062 70.26367188 C137.07951172 71.35228516 137.07113281 72.44089844 137.0625 73.5625 C137.05798828 74.65498047 137.05347656 75.74746094 137.04882812 76.87304688 C137.03699826 79.58208495 137.02051543 82.29101599 137 85 C137.65597168 84.99476318 138.31194336 84.98952637 138.98779297 84.98413086 C141.95018563 84.96338728 144.91256303 84.95034824 147.875 84.9375 C149.42380859 84.92493164 149.42380859 84.92493164 151.00390625 84.91210938 C151.99003906 84.90888672 152.97617187 84.90566406 153.9921875 84.90234375 C154.90339355 84.89710693 155.81459961 84.89187012 156.75341797 84.88647461 C159 85 159 85 161 86 C161 93.92 161 101.84 161 110 C168.85342779 109.96041007 168.85342779 109.96041007 176.70678711 109.90991211 C178.16483765 109.90616577 178.16483765 109.90616577 179.65234375 109.90234375 C181.15269165 109.89448853 181.15269165 109.89448853 182.68334961 109.88647461 C185 110 185 110 186 111 C186.08726223 112.78071246 186.10699041 114.5648314 186.09765625 116.34765625 C186.09443359 117.42724609 186.09121094 118.50683594 186.08789062 119.61914062 C186.07951172 120.75544922 186.07113281 121.89175781 186.0625 123.0625 C186.05798828 124.20267578 186.05347656 125.34285156 186.04882812 126.51757812 C186.03699747 129.34510351 186.0205141 132.1725264 186 135 C187.19774048 134.86936157 187.19774048 134.86936157 188.41967773 134.73608398 C195.69990762 133.96805835 202.74563609 133.89152334 210 135 C211 136 211 136 211.11352539 138.22485352 C211.10828857 139.18319092 211.10305176 140.14152832 211.09765625 141.12890625 C211.09443359 142.16337891 211.09121094 143.19785156 211.08789062 144.26367188 C211.07951172 145.35228516 211.07113281 146.44089844 211.0625 147.5625 C211.05798828 148.65498047 211.05347656 149.74746094 211.04882812 150.87304688 C211.03699826 153.58208495 211.02051543 156.29101599 211 159 C211.62044189 158.99476318 212.24088379 158.98952637 212.88012695 158.98413086 C215.69090767 158.96334534 218.50167221 158.95033483 221.3125 158.9375 C222.77719727 158.92493164 222.77719727 158.92493164 224.27148438 158.91210938 C225.67817383 158.90727539 225.67817383 158.90727539 227.11328125 158.90234375 C228.40939331 158.89448853 228.40939331 158.89448853 229.73168945 158.88647461 C232 159 232 159 235 160 C235.02332916 176.01993537 235.04097926 192.03986526 235.05181217 208.0598135 C235.05697509 215.4976451 235.06401771 222.93546617 235.07543945 230.37329102 C235.08538641 236.85381342 235.09185346 243.33432819 235.09408849 249.81485802 C235.09539558 253.24830542 235.0984813 256.681731 235.10573006 260.11517143 C235.11374416 263.94193821 235.11399113 267.76868335 235.11352539 271.59545898 C235.11712067 272.74200455 235.12071594 273.88855011 235.12442017 275.06983948 C235.1230455 276.10615509 235.12167084 277.1424707 235.12025452 278.21018982 C235.12163721 279.56937357 235.12163721 279.56937357 235.12304783 280.95601559 C235 283 235 283 234 284 C232.29227642 284.08713831 230.58101351 284.10700007 228.87109375 284.09765625 C227.31938477 284.09282227 227.31938477 284.09282227 225.73632812 284.08789062 C224.1034082 284.07532227 224.1034082 284.07532227 222.4375 284.0625 C220.7987793 284.05573242 220.7987793 284.05573242 219.12695312 284.04882812 C216.41791505 284.03699826 213.70898401 284.02051543 211 284 C211.00785522 285.0372522 211.00785522 285.0372522 211.01586914 286.09545898 C211.036575 289.20946352 211.04963963 292.32345361 211.0625 295.4375 C211.07087891 296.52611328 211.07925781 297.61472656 211.08789062 298.73632812 C211.09272461 300.28803711 211.09272461 300.28803711 211.09765625 301.87109375 C211.10551147 303.30859985 211.10551147 303.30859985 211.11352539 304.77514648 C211 307 211 307 210 308 C208.21928754 308.08726223 206.4351686 308.10699041 204.65234375 308.09765625 C203.68031006 308.09515869 202.70827637 308.09266113 201.70678711 308.09008789 C200.46292236 308.08098389 199.21905762 308.07187988 197.9375 308.0625 C193.998125 308.041875 190.05875 308.02125 186 308 C186 316.25 186 324.5 186 333 C177.75 333 169.5 333 161 333 C161 340.92 161 348.84 161 357 C153.08 357 145.16 357 137 357 C137 359.31 137 361.62 137 364 C132.68751391 364.02886537 128.37505238 364.04675255 124.0625 364.0625 C122.83080078 364.07087891 121.59910156 364.07925781 120.33007812 364.08789062 C118.5753418 364.09272461 118.5753418 364.09272461 116.78515625 364.09765625 C115.15912476 364.10551147 115.15912476 364.10551147 113.50024414 364.11352539 C111 364 111 364 110 363 C109.8997907 360.72052208 109.86918697 358.43792865 109.8671875 356.15625 C109.86623077 355.47195923 109.86527405 354.78766846 109.86428833 354.0826416 C109.8636067 352.63338123 109.86545977 351.18411782 109.86962891 349.73486328 C109.87497748 347.50937072 109.8696834 345.28407999 109.86328125 343.05859375 C109.86394203 341.65364539 109.8652232 340.24869715 109.8671875 338.84375 C109.86831543 337.55662109 109.86944336 336.26949219 109.87060547 334.94335938 C110 332 110 332 111 331 C114.96 331 118.92 331 123 331 C123 323.08 123 315.16 123 307 C126.96 307 130.92 307 135 307 C135 274.99 135 242.98 135 210 C127.08 210 119.16 210 111 210 C109.42970959 202.14854796 110 194.00694143 110 186 C82.28 186 54.56 186 26 186 C26.03960829 201.75184806 26.03960829 201.75184806 26.09008789 217.50366211 C26.0930069 219.46988877 26.09555549 221.43611604 26.09765625 223.40234375 C26.10277222 224.43363403 26.10788818 225.46492432 26.11315918 226.52746582 C26.11334045 227.98908142 26.11334045 227.98908142 26.11352539 229.48022461 C26.115746 230.33071884 26.11796661 231.18121307 26.12025452 232.05747986 C26 234 26 234 25 235 C23.4706537 235.09839214 21.93680434 235.12798539 20.40429688 235.12939453 C18.93772644 235.13412277 18.93772644 235.13412277 17.44152832 235.13894653 C16.37801147 235.1369223 15.31449463 235.13489807 14.21875 235.1328125 C12.59302063 235.13424759 12.59302063 235.13424759 10.93444824 235.13571167 C8.6377761 235.13639365 6.34110205 235.13453811 4.04443359 235.13037109 C0.51525572 235.12502312 -3.01379487 235.1303155 -6.54296875 235.13671875 C-8.76822945 235.13605797 -10.99349007 235.13477682 -13.21875 235.1328125 C-14.28226685 235.13483673 -15.34578369 235.13686096 -16.44152832 235.13894653 C-17.41924194 235.13579437 -18.39695557 235.13264221 -19.40429688 235.12939453 C-20.26953979 235.12859894 -21.13478271 235.12780334 -22.02624512 235.12698364 C-24 235 -24 235 -25 234 C-25.08726223 232.21928754 -25.10699041 230.4351686 -25.09765625 228.65234375 C-25.09515869 227.68031006 -25.09266113 226.70827637 -25.09008789 225.70678711 C-25.08098389 224.46292236 -25.07187988 223.21905762 -25.0625 221.9375 C-25.041875 217.998125 -25.02125 214.05875 -25 210 C-32.92 210 -40.84 210 -49 210 C-49.71258451 206.43707744 -50.12153291 203.86533836 -50.09765625 200.35546875 C-50.09515869 199.59645264 -50.09266113 198.83743652 -50.09008789 198.05541992 C-50.08098389 197.10900635 -50.07187988 196.16259277 -50.0625 195.1875 C-50.041875 192.155625 -50.02125 189.12375 -50 186 C-57.92 186 -65.84 186 -74 186 C-75.27861615 183.44276771 -75.11336609 181.63262898 -75.09765625 178.7734375 C-75.09515869 177.84450684 -75.09266113 176.91557617 -75.09008789 175.95849609 C-75.08098389 174.77594238 -75.07187988 173.59338867 -75.0625 172.375 C-75.041875 168.62125 -75.02125 164.8675 -75 161 C-82.92 161 -90.84 161 -99 161 C-99.60356885 153.90806601 -100.12115869 146.94489931 -99.9375 139.828125 C-99.79248102 137.98000784 -99.79248102 137.98000784 -101 137 C-102.62340751 136.92511958 -104.24999849 136.91678468 -105.875 136.9375 C-106.85984375 136.94523438 -107.8446875 136.95296875 -108.859375 136.9609375 C-109.89578125 136.97382813 -110.9321875 136.98671875 -112 137 C-114.04161504 137.02539322 -116.08329 137.04646563 -118.125 137.0625 C-119.03507812 137.07410156 -119.94515625 137.08570313 -120.8828125 137.09765625 C-123 137 -123 137 -124 136 C-124.09959621 134.15840977 -124.13080411 132.31303033 -124.1328125 130.46875 C-124.13410156 129.34855469 -124.13539062 128.22835937 -124.13671875 127.07421875 C-124.13285156 125.89472656 -124.12898438 124.71523437 -124.125 123.5 C-124.12886719 122.32050781 -124.13273437 121.14101562 -124.13671875 119.92578125 C-124.13542969 118.80558594 -124.13414063 117.68539062 -124.1328125 116.53125 C-124.13168457 115.49548828 -124.13055664 114.45972656 -124.12939453 113.39257812 C-124 111 -124 111 -123 110 C-121.21928754 109.91273777 -119.4351686 109.89300959 -117.65234375 109.90234375 C-116.57275391 109.90556641 -115.49316406 109.90878906 -114.38085938 109.91210938 C-112.67639648 109.92467773 -112.67639648 109.92467773 -110.9375 109.9375 C-109.22723633 109.94426758 -109.22723633 109.94426758 -107.48242188 109.95117188 C-104.65489649 109.96300253 -101.8274736 109.9794859 -99 110 C-99.0721875 108.84242188 -99.144375 107.68484375 -99.21875 106.4921875 C-99.31259492 104.95313078 -99.40633961 103.41406796 -99.5 101.875 C-99.54769531 101.11445313 -99.59539062 100.35390625 -99.64453125 99.5703125 C-99.77666158 97.38072416 -99.88897227 95.19074164 -100 93 C-100.0721875 91.86820312 -100.144375 90.73640625 -100.21875 89.5703125 C-100.1465625 88.72210938 -100.074375 87.87390625 -100 87 C-96.69711664 84.79807776 -95.72537273 84.76040032 -91.89453125 84.8046875 C-90.91162109 84.81113281 -89.92871094 84.81757813 -88.91601562 84.82421875 C-87.37977539 84.84935547 -87.37977539 84.84935547 -85.8125 84.875 C-84.77673828 84.88402344 -83.74097656 84.89304687 -82.67382812 84.90234375 C-80.11565315 84.9259214 -77.55794252 84.9588297 -75 85 C-75.00523682 84.34402832 -75.01047363 83.68805664 -75.01586914 83.01220703 C-75.03661272 80.04981437 -75.04965176 77.08743697 -75.0625 74.125 C-75.07087891 73.09246094 -75.07925781 72.05992187 -75.08789062 70.99609375 C-75.09111328 70.00996094 -75.09433594 69.02382812 -75.09765625 68.0078125 C-75.10289307 67.09660645 -75.10812988 66.18540039 -75.11352539 65.24658203 C-75 63 -75 63 -74 61 C-66.08 61 -58.16 61 -50 61 C-50.03954567 53.84981557 -50.03954567 53.84981557 -50.09008789 46.69970703 C-50.09258545 45.81138184 -50.09508301 44.92305664 -50.09765625 44.0078125 C-50.10289307 43.09660645 -50.10812988 42.18540039 -50.11352539 41.24658203 C-50 39 -50 39 -49 37 C-41.08 37 -33.16 37 -25 37 C-25 28.75 -25 20.5 -25 12 C-16.75 12 -8.5 12 0 12 C0 8.04 0 4.08 0 0 Z " fill="#DBDBDA" transform="translate(188,83)"/>
<path d="M0 0 C1.00023193 0.00523682 2.00046387 0.01047363 3.03100586 0.01586914 C4.00303955 0.0183667 4.97507324 0.02086426 5.9765625 0.0234375 C7.84235962 0.03709351 7.84235962 0.03709351 9.74584961 0.05102539 C13.68522461 0.07165039 17.62459961 0.09227539 21.68334961 0.11352539 C21.68334961 8.03352539 21.68334961 15.95352539 21.68334961 24.11352539 C13.76334961 24.11352539 5.84334961 24.11352539 -2.31665039 24.11352539 C-2.31665039 32.36352539 -2.31665039 40.61352539 -2.31665039 49.11352539 C-10.23665039 49.11352539 -18.15665039 49.11352539 -26.31665039 49.11352539 C-26.31665039 64.95352539 -26.31665039 80.79352539 -26.31665039 97.11352539 C-18.39665039 97.11352539 -10.47665039 97.11352539 -2.31665039 97.11352539 C-2.31665039 105.36352539 -2.31665039 113.61352539 -2.31665039 122.11352539 C5.93334961 122.11352539 14.18334961 122.11352539 22.68334961 122.11352539 C22.68334961 130.36352539 22.68334961 138.61352539 22.68334961 147.11352539 C30.60334961 147.11352539 38.52334961 147.11352539 46.68334961 147.11352539 C46.68334961 138.86352539 46.68334961 130.61352539 46.68334961 122.11352539 C99.48334961 122.11352539 152.28334961 122.11352539 206.68334961 122.11352539 C206.68334961 130.36352539 206.68334961 138.61352539 206.68334961 147.11352539 C214.93334961 147.11352539 223.18334961 147.11352539 231.68334961 147.11352539 C231.68334961 171.20352539 231.68334961 195.29352539 231.68334961 220.11352539 C239.60334961 220.11352539 247.52334961 220.11352539 255.68334961 220.11352539 C255.68334961 188.10352539 255.68334961 156.09352539 255.68334961 123.11352539 C247.76334961 123.11352539 239.84334961 123.11352539 231.68334961 123.11352539 C231.68334961 114.86352539 231.68334961 106.61352539 231.68334961 98.11352539 C240.26334961 98.11352539 248.84334961 98.11352539 257.68334961 98.11352539 C257.68334961 105.70352539 257.68334961 113.29352539 257.68334961 121.11352539 C264.45939101 121.07402724 264.45939101 121.07402724 271.23535156 121.0234375 C272.08057373 121.02093994 272.9257959 121.01844238 273.79663086 121.01586914 C274.66070557 121.01063232 275.52478027 121.00539551 276.41503906 121 C278.68334961 121.11352539 278.68334961 121.11352539 281.68334961 122.11352539 C281.70667877 138.13346076 281.72432887 154.15339065 281.73516178 170.17333889 C281.7403247 177.61117049 281.74736732 185.04899156 281.75878906 192.48681641 C281.76873602 198.96733881 281.77520306 205.44785359 281.7774381 211.92838341 C281.77874519 215.36183081 281.78183091 218.79525639 281.78907967 222.22869682 C281.79709377 226.0554636 281.79734074 229.88220874 281.796875 233.70898438 C281.80047028 234.85552994 281.80406555 236.0020755 281.80776978 237.18336487 C281.80639511 238.21968048 281.80502045 239.25599609 281.80360413 240.32371521 C281.80498682 241.68289896 281.80498682 241.68289896 281.80639744 243.06954098 C281.68334961 245.11352539 281.68334961 245.11352539 280.68334961 246.11352539 C278.97562603 246.20066371 277.26436312 246.22052546 275.55444336 246.21118164 C274.00273438 246.20634766 274.00273438 246.20634766 272.41967773 246.20141602 C271.33106445 246.19303711 270.24245117 246.1846582 269.12084961 246.17602539 C267.48212891 246.16925781 267.48212891 246.16925781 265.81030273 246.16235352 C263.10126466 246.15052366 260.39233362 246.13404082 257.68334961 246.11352539 C257.69120483 247.15077759 257.69120483 247.15077759 257.69921875 248.20898438 C257.71992461 251.32298891 257.73298924 254.436979 257.74584961 257.55102539 C257.75422852 258.63963867 257.76260742 259.72825195 257.77124023 260.84985352 C257.77607422 262.4015625 257.77607422 262.4015625 257.78100586 263.98461914 C257.78886108 265.42212524 257.78886108 265.42212524 257.796875 266.88867188 C257.68334961 269.11352539 257.68334961 269.11352539 256.68334961 270.11352539 C254.90263715 270.20078762 253.11851821 270.2205158 251.33569336 270.21118164 C250.36365967 270.20868408 249.39162598 270.20618652 248.39013672 270.20361328 C247.14627197 270.19450928 245.90240723 270.18540527 244.62084961 270.17602539 C240.68147461 270.15540039 236.74209961 270.13477539 232.68334961 270.11352539 C232.68334961 278.36352539 232.68334961 286.61352539 232.68334961 295.11352539 C224.43334961 295.11352539 216.18334961 295.11352539 207.68334961 295.11352539 C207.68334961 303.03352539 207.68334961 310.95352539 207.68334961 319.11352539 C199.76334961 319.11352539 191.84334961 319.11352539 183.68334961 319.11352539 C183.68334961 321.42352539 183.68334961 323.73352539 183.68334961 326.11352539 C179.37086351 326.14239076 175.05840199 326.16027794 170.74584961 326.17602539 C169.51415039 326.1844043 168.28245117 326.1927832 167.01342773 326.20141602 C165.25869141 326.20625 165.25869141 326.20625 163.46850586 326.21118164 C161.84247437 326.21903687 161.84247437 326.21903687 160.18359375 326.22705078 C157.68334961 326.11352539 157.68334961 326.11352539 156.68334961 325.11352539 C156.58314031 322.83404748 156.55253658 320.55145404 156.55053711 318.26977539 C156.54958038 317.58548462 156.54862366 316.90119385 156.54763794 316.19616699 C156.54695631 314.74690662 156.54880938 313.29764321 156.55297852 311.84838867 C156.55832709 309.62289611 156.55303301 307.39760538 156.54663086 305.17211914 C156.54729164 303.76717078 156.54857281 302.36222254 156.55053711 300.95727539 C156.55166504 299.67014648 156.55279297 298.38301758 156.55395508 297.05688477 C156.68334961 294.11352539 156.68334961 294.11352539 157.68334961 293.11352539 C161.64334961 293.11352539 165.60334961 293.11352539 169.68334961 293.11352539 C169.68334961 285.19352539 169.68334961 277.27352539 169.68334961 269.11352539 C173.64334961 269.11352539 177.60334961 269.11352539 181.68334961 269.11352539 C181.68334961 237.10352539 181.68334961 205.09352539 181.68334961 172.11352539 C173.76334961 172.11352539 165.84334961 172.11352539 157.68334961 172.11352539 C156.1130592 164.26207335 156.68334961 156.12046682 156.68334961 148.11352539 C128.96334961 148.11352539 101.24334961 148.11352539 72.68334961 148.11352539 C72.7229579 163.86537345 72.7229579 163.86537345 72.7734375 179.6171875 C72.77635651 181.58341417 72.7789051 183.54964143 72.78100586 185.51586914 C72.78612183 186.54715942 72.79123779 187.57844971 72.79650879 188.64099121 C72.79669006 190.10260681 72.79669006 190.10260681 72.796875 191.59375 C72.79909561 192.44424423 72.80131622 193.29473846 72.80360413 194.17100525 C72.68334961 196.11352539 72.68334961 196.11352539 71.68334961 197.11352539 C70.15400331 197.21191753 68.62015395 197.24151078 67.08764648 197.24291992 C65.62107605 197.24764816 65.62107605 197.24764816 64.12487793 197.25247192 C63.06136108 197.25044769 61.99784424 197.24842346 60.90209961 197.24633789 C59.27637024 197.24777298 59.27637024 197.24777298 57.61779785 197.24923706 C55.32112571 197.24991904 53.02445166 197.2480635 50.7277832 197.24389648 C47.19860533 197.23854851 43.66955474 197.24384089 40.14038086 197.25024414 C37.91512016 197.24958336 35.68985954 197.24830221 33.46459961 197.24633789 C32.40108276 197.24836212 31.33756592 197.25038635 30.24182129 197.25247192 C29.26410767 197.24931976 28.28639404 197.2461676 27.27905273 197.24291992 C26.41380981 197.24212433 25.54856689 197.24132874 24.65710449 197.24050903 C22.68334961 197.11352539 22.68334961 197.11352539 21.68334961 196.11352539 C21.59608738 194.33281293 21.5763592 192.54869399 21.58569336 190.76586914 C21.58819092 189.79383545 21.59068848 188.82180176 21.59326172 187.8203125 C21.60236572 186.57644775 21.61146973 185.33258301 21.62084961 184.05102539 C21.64147461 180.11165039 21.66209961 176.17227539 21.68334961 172.11352539 C13.76334961 172.11352539 5.84334961 172.11352539 -2.31665039 172.11352539 C-3.0292349 168.55060283 -3.4381833 165.97886375 -3.41430664 162.46899414 C-3.41180908 161.70997803 -3.40931152 160.95096191 -3.40673828 160.16894531 C-3.39763428 159.22253174 -3.38853027 158.27611816 -3.37915039 157.30102539 C-3.35852539 154.26915039 -3.33790039 151.23727539 -3.31665039 148.11352539 C-11.23665039 148.11352539 -19.15665039 148.11352539 -27.31665039 148.11352539 C-28.59526654 145.5562931 -28.43001648 143.74615437 -28.41430664 140.88696289 C-28.41180908 139.95803223 -28.40931152 139.02910156 -28.40673828 138.07202148 C-28.39763428 136.88946777 -28.38853027 135.70691406 -28.37915039 134.48852539 C-28.35852539 130.73477539 -28.33790039 126.98102539 -28.31665039 123.11352539 C-36.23665039 123.11352539 -44.15665039 123.11352539 -52.31665039 123.11352539 C-52.92021924 116.0215914 -53.43780908 109.0584247 -53.25415039 101.94165039 C-53.10913141 100.09353323 -53.10913141 100.09353323 -54.31665039 99.11352539 C-55.9400579 99.03864497 -57.56664888 99.03031007 -59.19165039 99.05102539 C-60.66891602 99.06262695 -60.66891602 99.06262695 -62.17602539 99.07446289 C-63.21243164 99.08735352 -64.24883789 99.10024414 -65.31665039 99.11352539 C-67.35826544 99.13891861 -69.3999404 99.15999102 -71.44165039 99.17602539 C-72.35172852 99.18762695 -73.26180664 99.19922852 -74.19946289 99.21118164 C-76.31665039 99.11352539 -76.31665039 99.11352539 -77.31665039 98.11352539 C-77.4162466 96.27193516 -77.4474545 94.42655572 -77.44946289 92.58227539 C-77.45075195 91.46208008 -77.45204102 90.34188477 -77.45336914 89.18774414 C-77.44950195 88.00825195 -77.44563477 86.82875977 -77.44165039 85.61352539 C-77.44551758 84.4340332 -77.44938477 83.25454102 -77.45336914 82.03930664 C-77.45208008 80.91911133 -77.45079102 79.79891602 -77.44946289 78.64477539 C-77.44833496 77.60901367 -77.44720703 76.57325195 -77.44604492 75.50610352 C-77.31665039 73.11352539 -77.31665039 73.11352539 -76.31665039 72.11352539 C-74.53593793 72.02626316 -72.75181899 72.00653498 -70.96899414 72.01586914 C-69.8894043 72.0190918 -68.80981445 72.02231445 -67.69750977 72.02563477 C-65.99304688 72.03820312 -65.99304688 72.03820312 -64.25415039 72.05102539 C-62.54388672 72.05779297 -62.54388672 72.05779297 -60.79907227 72.06469727 C-57.97154688 72.07652792 -55.14412399 72.09301129 -52.31665039 72.11352539 C-52.38883789 70.95594727 -52.46102539 69.79836914 -52.53540039 68.60571289 C-52.62924531 67.06665618 -52.72299001 65.52759335 -52.81665039 63.98852539 C-52.8643457 63.22797852 -52.91204102 62.46743164 -52.96118164 61.68383789 C-53.09331197 59.49424955 -53.20562266 57.30426703 -53.31665039 55.11352539 C-53.38883789 53.98172852 -53.46102539 52.84993164 -53.53540039 51.68383789 C-53.46321289 50.83563477 -53.39102539 49.98743164 -53.31665039 49.11352539 C-50.01376703 46.91160315 -49.04202312 46.87392571 -45.21118164 46.91821289 C-44.22827148 46.9246582 -43.24536133 46.93110352 -42.23266602 46.93774414 C-41.20850586 46.95450195 -40.1843457 46.97125977 -39.12915039 46.98852539 C-38.09338867 46.99754883 -37.05762695 47.00657227 -35.99047852 47.01586914 C-33.43230354 47.03944679 -30.87459291 47.07235509 -28.31665039 47.11352539 C-28.32188721 46.45755371 -28.32712402 45.80158203 -28.33251953 45.12573242 C-28.35326311 42.16333976 -28.36630215 39.20096236 -28.37915039 36.23852539 C-28.3875293 35.20598633 -28.3959082 34.17344727 -28.40454102 33.10961914 C-28.40776367 32.12348633 -28.41098633 31.13735352 -28.41430664 30.12133789 C-28.41954346 29.21013184 -28.42478027 28.29892578 -28.43017578 27.36010742 C-28.31665039 25.11352539 -28.31665039 25.11352539 -27.31665039 23.11352539 C-19.39665039 23.11352539 -11.47665039 23.11352539 -3.31665039 23.11352539 C-3.35623699 15.91829757 -3.35623699 15.91829757 -3.40673828 8.72314453 C-3.40923584 7.83232178 -3.4117334 6.94149902 -3.41430664 6.02368164 C-3.41954346 5.10723877 -3.42478027 4.1907959 -3.43017578 3.24658203 C-3.27035321 0.24363613 -3.00867768 0.14743757 0 0 Z " fill="#7F7F7F" transform="translate(141.316650390625,120.886474609375)"/>
<path d="M0 0 C8.58 0 17.16 0 26 0 C26 7.59 26 15.18 26 23 C32.7760414 22.96050185 32.7760414 22.96050185 39.55200195 22.90991211 C40.81983521 22.90616577 40.81983521 22.90616577 42.11328125 22.90234375 C42.97735596 22.89710693 43.84143066 22.89187012 44.73168945 22.88647461 C47 23 47 23 50 24 C50.02332916 40.01993537 50.04097926 56.03986526 50.05181217 72.0598135 C50.05697509 79.4976451 50.06401771 86.93546617 50.07543945 94.37329102 C50.08538641 100.85381342 50.09185346 107.33432819 50.09408849 113.81485802 C50.09539558 117.24830542 50.0984813 120.681731 50.10573006 124.11517143 C50.11374416 127.94193821 50.11399113 131.76868335 50.11352539 135.59545898 C50.11712067 136.74200455 50.12071594 137.88855011 50.12442017 139.06983948 C50.1230455 140.10615509 50.12167084 141.1424707 50.12025452 142.21018982 C50.12117631 143.11631232 50.1220981 144.02243483 50.12304783 144.95601559 C50 147 50 147 49 148 C47.29227642 148.08713831 45.58101351 148.10700007 43.87109375 148.09765625 C42.31938477 148.09282227 42.31938477 148.09282227 40.73632812 148.08789062 C39.64771484 148.07951172 38.55910156 148.07113281 37.4375 148.0625 C35.7987793 148.05573242 35.7987793 148.05573242 34.12695312 148.04882812 C31.41791505 148.03699826 28.70898401 148.02051543 26 148 C26.00523682 148.69150146 26.01047363 149.38300293 26.01586914 150.09545898 C26.036575 153.20946352 26.04963963 156.32345361 26.0625 159.4375 C26.07087891 160.52611328 26.07925781 161.61472656 26.08789062 162.73632812 C26.09111328 163.77080078 26.09433594 164.80527344 26.09765625 165.87109375 C26.10289307 166.82943115 26.10812988 167.78776855 26.11352539 168.77514648 C26 171 26 171 25 172 C23.21928754 172.08726223 21.4351686 172.10699041 19.65234375 172.09765625 C18.68031006 172.09515869 17.70827637 172.09266113 16.70678711 172.09008789 C14.84098999 172.07643188 14.84098999 172.07643188 12.9375 172.0625 C8.998125 172.041875 5.05875 172.02125 1 172 C1 180.25 1 188.5 1 197 C-7.25 197 -15.5 197 -24 197 C-24 204.92 -24 212.84 -24 221 C-31.92 221 -39.84 221 -48 221 C-48 223.31 -48 225.62 -48 228 C-56.58 228 -65.16 228 -74 228 C-74 227.67 -74 227.34 -74 227 C-65.75 227 -57.5 227 -49 227 C-49 224.69 -49 222.38 -49 220 C-41.08 220 -33.16 220 -25 220 C-25 212.08 -25 204.16 -25 196 C-16.75 196 -8.5 196 0 196 C0 188.08 0 180.16 0 172 C-7.15018443 172.03954567 -7.15018443 172.03954567 -14.30029297 172.09008789 C-15.63278076 172.09383423 -15.63278076 172.09383423 -16.9921875 172.09765625 C-17.90339355 172.10289307 -18.81459961 172.10812988 -19.75341797 172.11352539 C-22 172 -22 172 -24 171 C-24 138.66 -24 106.32 -24 73 C-32.25 73 -40.5 73 -49 73 C-49 65.08 -49 57.16 -49 49 C-57.25 49 -65.5 49 -74 49 C-74 40.75 -74 32.5 -74 24 C-57.83 24 -41.66 24 -25 24 C-25 32.25 -25 40.5 -25 49 C-16.75 49 -8.5 49 0 49 C0 73.09 0 97.18 0 122 C7.92 122 15.84 122 24 122 C24 89.99 24 57.98 24 25 C16.08 25 8.16 25 0 25 C0 16.75 0 8.5 0 0 Z " fill="#7D7D7C" transform="translate(373,219)"/>
<path d="M0 0 C8.25 0 16.5 0 25 0 C25 7.92 25 15.84 25 24 C33.25 24 41.5 24 50 24 C50 56.34 50 88.68 50 122 C57.92 122.33 65.84 122.66 74 123 C74 130.92 74 138.84 74 147 C65.75 147 57.5 147 49 147 C49 154.92 49 162.84 49 171 C41.08 171 33.16 171 25 171 C25 173.31 25 175.62 25 178 C16.42 178 7.84 178 -1 178 C-1.02291238 173.60336967 -1.04283833 169.20694512 -1.05493164 164.81030273 C-1.05997121 163.31355082 -1.06680287 161.81680384 -1.07543945 160.32006836 C-1.08752159 158.17300193 -1.09323191 156.02600038 -1.09765625 153.87890625 C-1.10289307 152.5854126 -1.10812988 151.29191895 -1.11352539 149.95922852 C-1 147 -1 147 0 146 C3.96 146 7.92 146 12 146 C12 138.08 12 130.16 12 122 C15.96 122 19.92 122 24 122 C24 89.99 24 57.98 24 25 C16.08 25 8.16 25 0 25 C0 16.75 0 8.5 0 0 Z " fill="#7D7D7B" transform="translate(299,268)"/>
<path d="M0 0 C16.17 0 32.34 0 49 0 C49 8.25 49 16.5 49 25 C57.25 25 65.5 25 74 25 C74 33.25 74 41.5 74 50 C81.92 50 89.84 50 98 50 C98 82.01 98 114.02 98 147 C90.08 147 82.16 147 74 147 C74 122.91 74 98.82 74 74 C65.75 74 57.5 74 49 74 C49 65.75 49 57.5 49 49 C32.83 49 16.66 49 0 49 C0 32.83 0 16.66 0 0 Z " fill="#E2E2E1" transform="translate(299,194)"/>
<path d="M0 0 C7.92 0 15.84 0 24 0 C24 20.13 24 40.26 24 61 C60.63 61 97.26 61 135 61 C135 68.92 135 76.84 135 85 C90.45 85 45.9 85 0 85 C0 68.83 0 52.66 0 36 C-8.25 36 -16.5 36 -25 36 C-25 28.08 -25 20.16 -25 12 C-16.75 12 -8.5 12 0 12 C0 8.04 0 4.08 0 0 Z " fill="#030403" transform="translate(189,84)"/>
<path d="M0 0 C36.63 0 73.26 0 111 0 C111 8.25 111 16.5 111 25 C82.29 25 53.58 25 24 25 C24 40.84 24 56.68 24 73 C8.16 73 -7.68 73 -24 73 C-24 65.08 -24 57.16 -24 49 C-16.08 49 -8.16 49 0 49 C0 32.83 0 16.66 0 0 Z " fill="#050504" transform="translate(188,243)"/>
<path d="M0 0 C8.58 0 17.16 0 26 0 C26 7.59 26 15.18 26 23 C32.7760414 22.96050185 32.7760414 22.96050185 39.55200195 22.90991211 C40.81983521 22.90616577 40.81983521 22.90616577 42.11328125 22.90234375 C42.97735596 22.89710693 43.84143066 22.89187012 44.73168945 22.88647461 C47 23 47 23 50 24 C50 64.59 50 105.18 50 147 C41.75 147 33.5 147 25 147 C25 106.41 25 65.82 25 24 C16.75 24 8.5 24 0 24 C0 16.08 0 8.16 0 0 Z " fill="#060606" transform="translate(373,219)"/>
<path d="M0 0 C8.25 0 16.5 0 25 0 C25 7.92 25 15.84 25 24 C33.25 24 41.5 24 50 24 C50 32.25 50 40.5 50 49 C57.92 49 65.84 49 74 49 C74 56.92 74 64.84 74 73 C66.08 73 58.16 73 50 73 C50 80.92 50 88.84 50 97 C65.84 97 81.68 97 98 97 C98 81.16 98 65.32 98 49 C126.71 49 155.42 49 185 49 C185 55.6 185 62.2 185 69 C184.67 69 184.34 69 184 69 C184 62.73 184 56.46 184 50 C156.28 50 128.56 50 100 50 C100.03960829 65.75184806 100.03960829 65.75184806 100.09008789 81.50366211 C100.0930069 83.46988877 100.09555549 85.43611604 100.09765625 87.40234375 C100.10277222 88.43363403 100.10788818 89.46492432 100.11315918 90.52746582 C100.11334045 91.98908142 100.11334045 91.98908142 100.11352539 93.48022461 C100.115746 94.33071884 100.11796661 95.18121307 100.12025452 96.05747986 C100 98 100 98 99 99 C97.4706537 99.09839214 95.93680434 99.12798539 94.40429688 99.12939453 C92.93772644 99.13412277 92.93772644 99.13412277 91.44152832 99.13894653 C90.37801147 99.1369223 89.31449463 99.13489807 88.21875 99.1328125 C86.59302063 99.13424759 86.59302063 99.13424759 84.93444824 99.13571167 C82.6377761 99.13639365 80.34110205 99.13453811 78.04443359 99.13037109 C74.51525572 99.12502312 70.98620513 99.1303155 67.45703125 99.13671875 C65.23177055 99.13605797 63.00650993 99.13477682 60.78125 99.1328125 C59.71773315 99.13483673 58.65421631 99.13686096 57.55847168 99.13894653 C56.58075806 99.13579437 55.60304443 99.13264221 54.59570312 99.12939453 C53.73046021 99.12859894 52.86521729 99.12780334 51.97375488 99.12698364 C50 99 50 99 49 98 C48.91273777 96.21928754 48.89300959 94.4351686 48.90234375 92.65234375 C48.90484131 91.68031006 48.90733887 90.70827637 48.90991211 89.70678711 C48.91901611 88.46292236 48.92812012 87.21905762 48.9375 85.9375 C48.958125 81.998125 48.97875 78.05875 49 74 C41.08 74 33.16 74 25 74 C24.28741549 70.43707744 23.87846709 67.86533836 23.90234375 64.35546875 C23.90484131 63.59645264 23.90733887 62.83743652 23.90991211 62.05541992 C23.91901611 61.10900635 23.92812012 60.16259277 23.9375 59.1875 C23.958125 56.155625 23.97875 53.12375 24 50 C16.08 50 8.16 50 0 50 C0 33.5 0 17 0 0 Z " fill="#7E7E7D" transform="translate(114,219)"/>
<path d="M0 0 C16.17 0 32.34 0 49 0 C49 8.25 49 16.5 49 25 C56.92 25 64.84 25 73 25 C73 32.92 73 40.84 73 49 C48.91 49 24.82 49 0 49 C0 32.83 0 16.66 0 0 Z " fill="#FBFCF9" transform="translate(299,194)"/>
<path d="M0 0 C36.63 0 73.26 0 111 0 C111 8.25 111 16.5 111 25 C74.37 25 37.74 25 0 25 C0 16.75 0 8.5 0 0 Z " fill="#7F7F7F" transform="translate(188,218)"/>
<path d="M0 0 C7.92 0 15.84 0 24 0 C24 32.01 24 64.02 24 97 C16.08 97 8.16 97 0 97 C0 64.99 0 32.98 0 0 Z " fill="#030303" transform="translate(324,293)"/>
<path d="M0 0 C43.23 0 86.46 0 131 0 C131 0.33 131 0.66 131 1 C123.74 1 116.48 1 109 1 C109 8.59 109 16.18 109 24 C84.58 24 60.16 24 35 24 C35 16.41 35 8.82 35 1 C23.45 1 11.9 1 0 1 C0 0.67 0 0.34 0 0 Z " fill="#FDFCFB" transform="translate(190,170)"/>
<path d="M0 0 C3.96 0 7.92 0 12 0 C12 7.92 12 15.84 12 24 C19.92 24 27.84 24 36 24 C36 31.92 36 39.84 36 48 C28.08 48.33 20.16 48.66 12 49 C11.67 50.65 11.34 52.3 11 54 C3.41 54 -4.18 54 -12 54 C-12 44.43 -12 34.86 -12 25 C-8.37 24.67 -4.74 24.34 -1 24 C-0.67 16.08 -0.34 8.16 0 0 Z " fill="#030303" transform="translate(312,391)"/>
<path d="M0 0 C6.81766851 -0.0229037 13.63520459 -0.04283241 20.45288086 -0.05493164 C22.77417451 -0.05997333 25.09546497 -0.06680651 27.41674805 -0.07543945 C30.74528795 -0.08751225 34.07378602 -0.09322979 37.40234375 -0.09765625 C38.44712387 -0.10281754 39.49190399 -0.10797882 40.56834412 -0.11329651 C41.52926468 -0.11337204 42.49018524 -0.11344757 43.48022461 -0.11352539 C44.33071884 -0.115746 45.18121307 -0.11796661 46.05747986 -0.12025452 C48 0 48 0 49 1 C49 8.59 49 16.18 49 24 C32.83 24 16.66 24 0 24 C0 16.08 0 8.16 0 0 Z " fill="#E2E2E1" transform="translate(299,219)"/>
<path d="M0 0 C7.92 0 15.84 0 24 0 C24 7.92 24 15.84 24 24 C16.08 24.33 8.16 24.66 0 25 C-0.33 32.59 -0.66 40.18 -1 48 C-8.59 48 -16.18 48 -24 48 C-24.33 48.99 -24.66 49.98 -25 51 C-25 42.09 -25 33.18 -25 24 C-17.08 23.67 -9.16 23.34 -1 23 C-0.67 15.41 -0.34 7.82 0 0 Z " fill="#FCFDFA" transform="translate(140,146)"/>
<path d="M0 0 C8.58 0 17.16 0 26 0 C26 7.59 26 15.18 26 23 C32.93 23 39.86 23 47 23 C47 23.33 47 23.66 47 24 C31.49 24 15.98 24 0 24 C0 16.08 0 8.16 0 0 Z " fill="#121212" transform="translate(373,219)"/>
<path d="M0 0 C8.25 0 16.5 0 25 0 C25 7.92 25 15.84 25 24 C16.75 24 8.5 24 0 24 C0 16.08 0 8.16 0 0 Z " fill="#050405" transform="translate(299,268)"/>
<path d="M0 0 C7.92 0 15.84 0 24 0 C24 8.25 24 16.5 24 25 C16.08 25 8.16 25 0 25 C0 16.75 0 8.5 0 0 Z " fill="#060606" transform="translate(115,243)"/>
<path d="M0 0 C7.92 0 15.84 0 24 0 C24 8.25 24 16.5 24 25 C16.08 25 8.16 25 0 25 C0 16.75 0 8.5 0 0 Z " fill="#FAFAFA" transform="translate(164,120)"/>
<path d="M0 0 C8.25 0 16.5 0 25 0 C25.020625 3.774375 25.04125 7.54875 25.0625 11.4375 C25.071604 12.62915771 25.08070801 13.82081543 25.09008789 15.04858398 C25.09258545 15.98001221 25.09508301 16.91144043 25.09765625 17.87109375 C25.10551147 19.30859985 25.10551147 19.30859985 25.11352539 20.77514648 C25 23 25 23 24 24 C22.21928754 24.08726223 20.4351686 24.10699041 18.65234375 24.09765625 C17.68031006 24.09515869 16.70827637 24.09266113 15.70678711 24.09008789 C14.46292236 24.08098389 13.21905762 24.07187988 11.9375 24.0625 C7.998125 24.041875 4.05875 24.02125 0 24 C0 16.08 0 8.16 0 0 Z " fill="#070707" transform="translate(65,194)"/>
<path d="M0 0 C7.92 0 15.84 0 24 0 C24 7.92 24 15.84 24 24 C16.08 24 8.16 24 0 24 C0 16.08 0 8.16 0 0 Z " fill="#040404" transform="translate(349,391)"/>
<path d="M0 0 C7.92 0 15.84 0 24 0 C24 7.92 24 15.84 24 24 C16.08 24 8.16 24 0 24 C0 16.08 0 8.16 0 0 Z " fill="#030503" transform="translate(373,366)"/>
<path d="M0 0 C7.92 0 15.84 0 24 0 C24 7.92 24 15.84 24 24 C16.08 24 8.16 24 0 24 C0 16.08 0 8.16 0 0 Z " fill="#7D7D7B" transform="translate(164,268)"/>
<path d="M0 0 C7.92 0 15.84 0 24 0 C24 7.92 24 15.84 24 24 C16.08 24 8.16 24 0 24 C0 16.08 0 8.16 0 0 Z " fill="#050505" transform="translate(140,268)"/>
<path d="M0 0 C7.92 0 15.84 0 24 0 C24 7.92 24 15.84 24 24 C16.08 24 8.16 24 0 24 C0 16.08 0 8.16 0 0 Z " fill="#7F7F7E" transform="translate(115,219)"/>
<path d="M0 0 C7.92 0 15.84 0 24 0 C24 7.92 24 15.84 24 24 C16.08 24 8.16 24 0 24 C0 16.08 0 8.16 0 0 Z " fill="#030303" transform="translate(90,219)"/>
<path d="M0 0 C7.92 0 15.84 0 24 0 C24 7.92 24 15.84 24 24 C16.08 24 8.16 24 0 24 C0 16.08 0 8.16 0 0 Z " fill="#040504" transform="translate(349,194)"/>
<path d="M0 0 C7.92 0 15.84 0 24 0 C24 7.92 24 15.84 24 24 C16.08 24 8.16 24 0 24 C0 16.08 0 8.16 0 0 Z " fill="#030303" transform="translate(324,170)"/>
<path d="M0 0 C7.92 0 15.84 0 24 0 C24 7.92 24 15.84 24 24 C16.08 24 8.16 24 0 24 C0 16.08 0 8.16 0 0 Z " fill="#030303" transform="translate(90,170)"/>
<path d="M0 0 C7.92 0 15.84 0 24 0 C24 7.92 24 15.84 24 24 C16.08 24 8.16 24 0 24 C0 16.08 0 8.16 0 0 Z " fill="#050605" transform="translate(115,145)"/>
<path d="M0 0 C7.92 0 15.84 0 24 0 C24 7.92 24 15.84 24 24 C16.08 24 8.16 24 0 24 C0 16.08 0 8.16 0 0 Z " fill="#040404" transform="translate(139,121)"/>
<path d="M0 0 C0 7.92 0 15.84 0 24 C-5.383125 24.061875 -5.383125 24.061875 -10.875 24.125 C-12.57052002 24.15231201 -12.57052002 24.15231201 -14.30029297 24.18017578 C-15.18861816 24.1851709 -16.07694336 24.19016602 -16.9921875 24.1953125 C-18.35899658 24.21102295 -18.35899658 24.21102295 -19.75341797 24.22705078 C-22 24 -22 24 -24 22 C-24.22705078 19.84521484 -24.22705078 19.84521484 -24.1953125 17.2109375 C-24.18886719 16.26992187 -24.18242187 15.32890625 -24.17578125 14.359375 C-24.15902344 13.37453125 -24.14226562 12.3896875 -24.125 11.375 C-24.11597656 10.38242188 -24.10695313 9.38984375 -24.09765625 8.3671875 C-24.07404116 5.91121866 -24.04110799 3.45572832 -24 1 C-20.37503356 0.83259796 -16.7500216 0.66620297 -13.125 0.5 C-12.09246094 0.45230469 -11.05992187 0.40460938 -9.99609375 0.35546875 C-9.00996094 0.31035156 -8.02382813 0.26523438 -7.0078125 0.21875 C-6.09660645 0.17685547 -5.18540039 0.13496094 -4.24658203 0.09179688 C-2.83190448 0.03399218 -1.41585803 0 0 0 Z " fill="#E2E2E1" transform="translate(323,170)"/>
<path d="M0 0 C0.33 0 0.66 0 1 0 C1 16.17 1 32.34 1 49 C8.92 49 16.84 49 25 49 C25 41.08 25 33.16 25 25 C25.33 25 25.66 25 26 25 C26 32.59 26 40.18 26 48 C33.59 48 41.18 48 49 48 C49 48.33 49 48.66 49 49 C41.41 49 33.82 49 26 49 C26 56.92 26 64.84 26 73 C33.92 73 41.84 73 50 73 C50 80.92 50 88.84 50 97 C65.84 97 81.68 97 98 97 C98 81.16 98 65.32 98 49 C126.71 49 155.42 49 185 49 C185 55.6 185 62.2 185 69 C184.67 69 184.34 69 184 69 C184 62.73 184 56.46 184 50 C156.28 50 128.56 50 100 50 C100.03960829 65.75184806 100.03960829 65.75184806 100.09008789 81.50366211 C100.0930069 83.46988877 100.09555549 85.43611604 100.09765625 87.40234375 C100.10277222 88.43363403 100.10788818 89.46492432 100.11315918 90.52746582 C100.11334045 91.98908142 100.11334045 91.98908142 100.11352539 93.48022461 C100.115746 94.33071884 100.11796661 95.18121307 100.12025452 96.05747986 C100 98 100 98 99 99 C97.4706537 99.09839214 95.93680434 99.12798539 94.40429688 99.12939453 C92.93772644 99.13412277 92.93772644 99.13412277 91.44152832 99.13894653 C90.37801147 99.1369223 89.31449463 99.13489807 88.21875 99.1328125 C86.59302063 99.13424759 86.59302063 99.13424759 84.93444824 99.13571167 C82.6377761 99.13639365 80.34110205 99.13453811 78.04443359 99.13037109 C74.51525572 99.12502312 70.98620513 99.1303155 67.45703125 99.13671875 C65.23177055 99.13605797 63.00650993 99.13477682 60.78125 99.1328125 C59.71773315 99.13483673 58.65421631 99.13686096 57.55847168 99.13894653 C56.58075806 99.13579437 55.60304443 99.13264221 54.59570312 99.12939453 C53.73046021 99.12859894 52.86521729 99.12780334 51.97375488 99.12698364 C50 99 50 99 49 98 C48.91273777 96.21928754 48.89300959 94.4351686 48.90234375 92.65234375 C48.90484131 91.68031006 48.90733887 90.70827637 48.90991211 89.70678711 C48.91901611 88.46292236 48.92812012 87.21905762 48.9375 85.9375 C48.958125 81.998125 48.97875 78.05875 49 74 C41.08 74 33.16 74 25 74 C24.28741549 70.43707744 23.87846709 67.86533836 23.90234375 64.35546875 C23.90484131 63.59645264 23.90733887 62.83743652 23.90991211 62.05541992 C23.91901611 61.10900635 23.92812012 60.16259277 23.9375 59.1875 C23.958125 56.155625 23.97875 53.12375 24 50 C16.08 50 8.16 50 0 50 C0 33.5 0 17 0 0 Z " fill="#717171" transform="translate(114,219)"/>
<path d="M0 0 C16.5 0 33 0 50 0 C50 32.34 50 64.68 50 98 C50.99 98.495 50.99 98.495 52 99 C51.34 99 50.68 99 50 99 C50 106.92 50 114.84 50 123 C49.67 123 49.34 123 49 123 C49 115.08 49 107.16 49 99 C37.12 99 25.24 99 13 99 C13.03958993 106.85342779 13.03958993 106.85342779 13.09008789 114.70678711 C13.09258545 115.6788208 13.09508301 116.65085449 13.09765625 117.65234375 C13.10289307 118.65257568 13.10812988 119.65280762 13.11352539 120.68334961 C13 123 13 123 12 124 C8.37 124 4.74 124 1 124 C1 133.57 1 143.14 1 153 C8.59 153 16.18 153 24 153 C24 151.35 24 149.7 24 148 C24.33 148 24.66 148 25 148 C25 149.98 25 151.96 25 154 C16.42 154 7.84 154 -1 154 C-1.02291238 149.60336967 -1.04283833 145.20694512 -1.05493164 140.81030273 C-1.05997121 139.31355082 -1.06680287 137.81680384 -1.07543945 136.32006836 C-1.08752159 134.17300193 -1.09323191 132.02600038 -1.09765625 129.87890625 C-1.10289307 128.5854126 -1.10812988 127.29191895 -1.11352539 125.95922852 C-1 123 -1 123 0 122 C3.96 122 7.92 122 12 122 C12 114.08 12 106.16 12 98 C15.96 98 19.92 98 24 98 C24 65.99 24 33.98 24 1 C16.08 1 8.16 1 0 1 C0 0.67 0 0.34 0 0 Z M25 1 C25 33.01 25 65.02 25 98 C32.92 98 40.84 98 49 98 C49 65.99 49 33.98 49 1 C41.08 1 33.16 1 25 1 Z " fill="#575757" transform="translate(299,292)"/>
<path d="M0 0 C0.33 0 0.66 0 1 0 C1 7.59 1 15.18 1 23 C-6.92 23 -14.84 23 -23 23 C-23 30.92 -23 38.84 -23 47 C-15.08 47 -7.16 47 1 47 C1 47.33 1 47.66 1 48 C-6.92 48 -14.84 48 -23 48 C-23 63.84 -23 79.68 -23 96 C-15.08 96 -7.16 96 1 96 C1 96.33 1 96.66 1 97 C-7.25 97 -15.5 97 -24 97 C-24 80.83 -24 64.66 -24 48 C-31.92 48 -39.84 48 -48 48 C-48 55.92 -48 63.84 -48 72 C-56.25 72 -64.5 72 -73 72 C-73 71.67 -73 71.34 -73 71 C-65.08 71 -57.16 71 -49 71 C-49.32708094 65.67541161 -49.32708094 65.67541161 -49.65820312 60.35107422 C-49.78546406 58.23460365 -49.89268095 56.11756378 -50 54 C-50.0721875 52.86820313 -50.144375 51.73640625 -50.21875 50.5703125 C-50.1465625 49.72210938 -50.074375 48.87390625 -50 48 C-46.69711664 45.79807776 -45.72537273 45.76040032 -41.89453125 45.8046875 C-40.91162109 45.81113281 -39.92871094 45.81757813 -38.91601562 45.82421875 C-37.89185547 45.84097656 -36.86769531 45.85773438 -35.8125 45.875 C-34.77673828 45.88402344 -33.74097656 45.89304688 -32.67382812 45.90234375 C-30.11565315 45.9259214 -27.55794252 45.9588297 -25 46 C-25.00523682 45.34402832 -25.01047363 44.68805664 -25.01586914 44.01220703 C-25.03661272 41.04981437 -25.04965176 38.08743697 -25.0625 35.125 C-25.07087891 34.09246094 -25.07925781 33.05992187 -25.08789062 31.99609375 C-25.09111328 31.00996094 -25.09433594 30.02382812 -25.09765625 29.0078125 C-25.10289307 28.09660645 -25.10812988 27.18540039 -25.11352539 26.24658203 C-25 24 -25 24 -24 22 C-16.08 22 -8.16 22 0 22 C0 14.74 0 7.48 0 0 Z " fill="#9B9B9B" transform="translate(138,122)"/>
<path d="M0 0 C8.25 0 16.5 0 25 0 C25 32.34 25 64.68 25 98 C25.66 98.33 26.32 98.66 27 99 C26.34 99 25.68 99 25 99 C25 106.92 25 114.84 25 123 C24.67 123 24.34 123 24 123 C24 115.08 24 107.16 24 99 C16.08 99 8.16 99 0 99 C0 98.67 0 98.34 0 98 C7.92 98 15.84 98 24 98 C24 65.99 24 33.98 24 1 C16.08 1 8.16 1 0 1 C0 0.67 0 0.34 0 0 Z " fill="#484848" transform="translate(324,292)"/>
</svg>
